<svg xmlns="http://www.w3.org/2000/svg" width="703.813" height="52.793" viewBox="0 0 703.813 52.793">
  <g id="Grupo_1101608" data-name="Grupo 1101608" transform="translate(10132 10205)">
    <g id="Grupo_1101602" data-name="Grupo 1101602" transform="translate(-9947.907 -10204)">
      <path id="Trazado_877507" data-name="Trazado 877507" d="M51.9,11.558a.754.754,0,0,1-.6-.3,13.444,13.444,0,0,0-1.443-1.629.754.754,0,0,1,1.043-1.086,15.159,15.159,0,0,1,1.606,1.81.754.754,0,0,1-.6,1.207Z" transform="translate(-13.714 -4.408)" fill="#5b2ccf"/>
      <path id="Trazado_877508" data-name="Trazado 877508" d="M31.943,33.913a14.927,14.927,0,0,1-2.741-.247A15.51,15.51,0,0,1,29.21,3.131a.754.754,0,0,1,.262,1.486A14,14,0,1,0,45.948,18.4a13.618,13.618,0,0,0-.377-3.216.754.754,0,0,1,1.466-.356,15.145,15.145,0,0,1,.421,3.572A15.507,15.507,0,0,1,34.674,33.668a14.917,14.917,0,0,1-2.73.245Z" transform="translate(-5.547 -3.12)" fill="#5b2ccf"/>
      <path id="Trazado_877509" data-name="Trazado 877509" d="M43.841,5.687a.789.789,0,0,1-.308-.063,13.53,13.53,0,0,0-2.036-.7.754.754,0,1,1,.373-1.462,14.985,14.985,0,0,1,2.242.769.754.754,0,0,1-.27,1.456Z" transform="translate(-11.569 -3.198)" fill="#5b2ccf"/>
      <path id="Trazado_877510" data-name="Trazado 877510" d="M46.37,61.078A15.516,15.516,0,1,1,61.885,45.563,15.516,15.516,0,0,1,46.37,61.078Zm0-29.523A14.007,14.007,0,1,0,60.377,45.563,14.007,14.007,0,0,0,46.37,31.555Z" transform="translate(-9.093 -9.739)" fill="#5b2ccf"/>
      <path id="Trazado_877511" data-name="Trazado 877511" d="M17.516,61.078A15.516,15.516,0,1,1,33.031,45.563,15.516,15.516,0,0,1,17.516,61.078Zm0-29.523A14.007,14.007,0,1,0,31.523,45.563,14.007,14.007,0,0,0,17.516,31.555Z" transform="translate(-2 -9.739)" fill="#5b2ccf"/>
    </g>
    <g id="Grupo_1101603" data-name="Grupo 1101603" transform="translate(-9479.246 -10205)">
      <path id="Trazado_877512" data-name="Trazado 877512" d="M58.083,44.577a.754.754,0,0,1-.652-1.131,22.939,22.939,0,0,0-13.1-33.374.754.754,0,1,1,.445-1.441A24.447,24.447,0,0,1,58.734,44.2.754.754,0,0,1,58.083,44.577Z" transform="translate(-13.143 -3.626)" fill="#5b2ccf"/>
      <path id="Trazado_877513" data-name="Trazado 877513" d="M47.454,67.075a.754.754,0,0,1-.292-1.45A23.055,23.055,0,0,0,55.426,59.7a.755.755,0,0,1,1.131,1,24.586,24.586,0,0,1-8.81,6.311A.754.754,0,0,1,47.454,67.075Z" transform="translate(-13.854 -16.126)" fill="#5b2ccf"/>
      <path id="Trazado_877514" data-name="Trazado 877514" d="M29.772,70.993a.754.754,0,0,1-.115-.009c-.738-.112-1.5-.267-2.258-.459a.755.755,0,0,1,.37-1.463c.713.18,1.426.325,2.117.431a.754.754,0,0,1-.114,1.5Z" transform="translate(-8.97 -18.484)" fill="#5b2ccf"/>
      <path id="Trazado_877515" data-name="Trazado 877515" d="M17.515,64.89a.754.754,0,0,1-.353-.088,24.435,24.435,0,0,1-9.677-9.308.756.756,0,1,1,1.282-.8,22.927,22.927,0,0,0,9.1,8.777.754.754,0,0,1-.354,1.42Z" transform="translate(-4.181 -14.862)" fill="#5b2ccf"/>
      <path id="Trazado_877516" data-name="Trazado 877516" d="M37.476,71.344a.754.754,0,0,1-.044-1.508,20.707,20.707,0,0,0,2.161-.248.754.754,0,0,1,.246,1.489,22.239,22.239,0,0,1-2.318.265Z" transform="translate(-11.396 -18.616)" fill="#5b2ccf"/>
      <path id="Trazado_877517" data-name="Trazado 877517" d="M4.614,38.176a.754.754,0,0,1-.731-.571A24.45,24.45,0,0,1,27.581,7.21a.754.754,0,1,1,0,1.508A22.941,22.941,0,0,0,5.346,37.238a.754.754,0,0,1-.548.915.773.773,0,0,1-.184.023Z" transform="translate(-3.149 -3.285)" fill="#5b2ccf"/>
      <path id="Trazado_877518" data-name="Trazado 877518" d="M30.089,11.367a.754.754,0,0,1-.533-1.287L32.95,6.686,29.556,3.292a.754.754,0,1,1,1.066-1.066l3.928,3.923a.754.754,0,0,1,0,1.066l-3.928,3.929a.749.749,0,0,1-.533.223Z" transform="translate(-9.586 -2.005)" fill="#5b2ccf"/>
      <path id="Trazado_877519" data-name="Trazado 877519" d="M6.2,61.179a.735.735,0,0,1-.2-.026.754.754,0,0,1-.533-.923l1.438-5.367a.754.754,0,0,1,.923-.533L13.2,55.767a.754.754,0,1,1-.39,1.456L8.174,55.98,6.932,60.619a.754.754,0,0,1-.728.56Z" transform="translate(-3.714 -14.861)" fill="#5b2ccf"/>
      <path id="Trazado_877520" data-name="Trazado 877520" d="M62.019,54.059a.754.754,0,0,1-.728-.559l-1.438-5.367a.754.754,0,1,1,1.457-.39l1.242,4.639,4.64-1.244a.754.754,0,1,1,.39,1.457l-5.367,1.438a.747.747,0,0,1-.2.026Z" transform="translate(-17.082 -13.111)" fill="#5b2ccf"/>
      <path id="Trazado_877521" data-name="Trazado 877521" d="M43.084,45.433H20.558A1.56,1.56,0,0,1,19,43.874V30.394a1.56,1.56,0,0,1,1.558-1.559h4.959l1.04-1.778a1.561,1.561,0,0,1,1.358-.788H35.73a1.561,1.561,0,0,1,1.358.788l.993,1.753,5,.025a1.56,1.56,0,0,1,1.558,1.559v13.48A1.56,1.56,0,0,1,43.084,45.433ZM20.558,30.344l-.05,13.531,22.575.05.05-13.53a.051.051,0,0,0-.05-.051H38.124a1.561,1.561,0,0,1-1.358-.788L35.773,27.8l-7.861-.025-1.04,1.778a1.561,1.561,0,0,1-1.358.788Z" transform="translate(-7.045 -7.97)" fill="#5b2ccf"/>
      <path id="Trazado_877522" data-name="Trazado 877522" d="M34.558,43.349a4.425,4.425,0,1,1,4.424-4.424,4.425,4.425,0,0,1-4.424,4.424Zm0-7.34a2.916,2.916,0,1,0,2.916,2.916,2.916,2.916,0,0,0-2.916-2.916Z" transform="translate(-9.782 -9.993)" fill="#5b2ccf"/>
    </g>
    <g id="Grupo_1101604" data-name="Grupo 1101604" transform="translate(-9854.175 -10205)">
      <path id="Trazado_877523" data-name="Trazado 877523" d="M48.637,8.82H13.379a.754.754,0,1,1,0-1.508H48.637a.754.754,0,1,1,0,1.508Z" transform="translate(-4.612 -3.306)" fill="#5b2ccf"/>
      <path id="Trazado_877524" data-name="Trazado 877524" d="M43.214,66.2h-2.24a.754.754,0,1,1,0-1.508h2.24a.754.754,0,1,1,0,1.508Z" transform="translate(-11.395 -17.411)" fill="#5b2ccf"/>
      <path id="Trazado_877525" data-name="Trazado 877525" d="M21.446,66.2H13.384a.754.754,0,0,1,0-1.508h8.062a.754.754,0,0,1,0,1.508Z" transform="translate(-4.613 -17.411)" fill="#5b2ccf"/>
      <path id="Trazado_877526" data-name="Trazado 877526" d="M33.261,66.2H31.074a.754.754,0,0,1,0-1.508h2.187a.754.754,0,1,1,0,1.508Z" transform="translate(-8.962 -17.411)" fill="#5b2ccf"/>
      <path id="Trazado_877527" data-name="Trazado 877527" d="M57.875,66.2H50.944a.754.754,0,1,1,0-1.508h6.931a.754.754,0,0,1,0,1.508Z" transform="translate(-13.846 -17.411)" fill="#5b2ccf"/>
      <path id="Trazado_877528" data-name="Trazado 877528" d="M8.066,49.391a.754.754,0,0,1-.754-.754V13.379a.754.754,0,1,1,1.508,0V48.637A.754.754,0,0,1,8.066,49.391Z" transform="translate(-3.306 -4.612)" fill="#5b2ccf"/>
      <path id="Trazado_877529" data-name="Trazado 877529" d="M65.442,49.391a.754.754,0,0,1-.754-.754V13.379a.754.754,0,1,1,1.508,0V48.637A.754.754,0,0,1,65.442,49.391Z" transform="translate(-17.41 -4.612)" fill="#5b2ccf"/>
      <path id="Trazado_877530" data-name="Trazado 877530" d="M68.142,11.521H60.129a.754.754,0,0,1-.754-.754V2.754A.754.754,0,0,1,60.129,2h8.013a.754.754,0,0,1,.754.754v8.013A.754.754,0,0,1,68.142,11.521Zm-7.259-1.508h6.5v-6.5h-6.5Z" transform="translate(-16.104 -2)" fill="#5b2ccf"/>
      <path id="Trazado_877531" data-name="Trazado 877531" d="M10.767,11.521H2.754A.754.754,0,0,1,2,10.767V2.754A.754.754,0,0,1,2.754,2h8.013a.754.754,0,0,1,.754.754v8.013A.754.754,0,0,1,10.767,11.521ZM3.508,10.013h6.5v-6.5h-6.5Z" transform="translate(-2 -2)" fill="#5b2ccf"/>
      <path id="Trazado_877532" data-name="Trazado 877532" d="M68.142,68.9H60.129a.754.754,0,0,1-.754-.754V60.129a.754.754,0,0,1,.754-.754h8.013a.754.754,0,0,1,.754.754v8.013A.754.754,0,0,1,68.142,68.9Zm-7.259-1.508h6.5v-6.5h-6.5Z" transform="translate(-16.104 -16.104)" fill="#5b2ccf"/>
      <path id="Trazado_877533" data-name="Trazado 877533" d="M10.767,68.9H2.754A.754.754,0,0,1,2,68.142V60.129a.754.754,0,0,1,.754-.754h8.013a.754.754,0,0,1,.754.754v8.013A.754.754,0,0,1,10.767,68.9ZM3.508,67.388h6.5v-6.5h-6.5Z" transform="translate(-2 -16.104)" fill="#5b2ccf"/>
      <path id="Trazado_877534" data-name="Trazado 877534" d="M24.459,46.33a.754.754,0,0,1-.557-1.262l15.454-17a.754.754,0,0,1,1.029-.081L55.838,40.351a.755.755,0,0,1-.942,1.18L40,29.608,25.017,46.084a.754.754,0,0,1-.558.247Z" transform="translate(-7.336 -8.348)" fill="#5b2ccf"/>
      <path id="Trazado_877535" data-name="Trazado 877535" d="M8.066,40.251a.754.754,0,0,1-.521-1.3l9.276-8.871a.754.754,0,0,1,1.038,0l9.23,8.693a.754.754,0,1,1-1.034,1.1l-8.713-8.2L8.585,40.041a.754.754,0,0,1-.519.21Z" transform="translate(-3.306 -8.852)" fill="#5b2ccf"/>
      <path id="Trazado_877536" data-name="Trazado 877536" d="M28.515,27.737A3.837,3.837,0,1,1,32.351,23.9a3.837,3.837,0,0,1-3.836,3.837Zm0-6.165A2.329,2.329,0,1,0,30.843,23.9a2.329,2.329,0,0,0-2.328-2.328Z" transform="translate(-7.575 -6.44)" fill="#5b2ccf"/>
    </g>
    <g id="Grupo_1101605" data-name="Grupo 1101605" transform="translate(-9666.712 -10205)">
      <path id="Trazado_877537" data-name="Trazado 877537" d="M14.454,42.965a.754.754,0,0,1-.725-.545,16.407,16.407,0,0,1-.482-2.262.754.754,0,1,1,1.493-.213A14.684,14.684,0,0,0,15.179,42a.754.754,0,0,1-.515.934.783.783,0,0,1-.21.032Z" transform="translate(-4.763 -11.168)" fill="#5b2ccf"/>
      <path id="Trazado_877538" data-name="Trazado 877538" d="M31.194,49.2a18.086,18.086,0,0,1-8.571-2.157.754.754,0,0,1,.717-1.327,16.57,16.57,0,0,0,19.352-2.669.7.7,0,0,1,.067-.058,16.584,16.584,0,0,0,0-23.779.666.666,0,0,1-.066-.057,16.577,16.577,0,0,0-27.817,8.959.754.754,0,1,1-1.484-.268A18.084,18.084,0,0,1,43.68,18.012a.728.728,0,0,1,.065.054,18.095,18.095,0,0,1,0,26.067c-.022.02-.044.038-.066.056A17.968,17.968,0,0,1,31.194,49.2Z" transform="translate(-4.797 -4.704)" fill="#5b2ccf"/>
      <path id="Trazado_877539" data-name="Trazado 877539" d="M18.919,51.956a.754.754,0,0,1-.565-.255,16.5,16.5,0,0,1-1.494-1.968.754.754,0,1,1,1.267-.819A15.132,15.132,0,0,0,19.485,50.7a.754.754,0,0,1-.565,1.253Z" transform="translate(-5.623 -13.448)" fill="#5b2ccf"/>
      <path id="Trazado_877540" data-name="Trazado 877540" d="M36.754,49.2A.754.754,0,0,1,36,48.446V13.754a.754.754,0,1,1,1.508,0V48.446A.754.754,0,0,1,36.754,49.2Z" transform="translate(-10.358 -4.704)" fill="#5b2ccf"/>
      <path id="Trazado_877541" data-name="Trazado 877541" d="M48.786,20.948H36.754a.754.754,0,1,1,0-1.508H48.786a.754.754,0,0,1,0,1.508Z" transform="translate(-10.358 -6.287)" fill="#5b2ccf"/>
      <path id="Trazado_877542" data-name="Trazado 877542" d="M52.934,29.228H36.754a.754.754,0,1,1,0-1.508h16.18a.754.754,0,1,1,0,1.508Z" transform="translate(-10.358 -8.323)" fill="#5b2ccf"/>
      <path id="Trazado_877543" data-name="Trazado 877543" d="M54.1,37.508H36.754a.754.754,0,0,1,0-1.508H54.1a.754.754,0,0,1,0,1.508Z" transform="translate(-10.358 -10.358)" fill="#5b2ccf"/>
      <path id="Trazado_877544" data-name="Trazado 877544" d="M52.934,45.788H36.754a.754.754,0,1,1,0-1.508h16.18a.754.754,0,1,1,0,1.508Z" transform="translate(-10.358 -12.393)" fill="#5b2ccf"/>
      <path id="Trazado_877545" data-name="Trazado 877545" d="M48.786,54.068H36.754a.754.754,0,1,1,0-1.508H48.786a.754.754,0,0,1,0,1.508Z" transform="translate(-10.358 -14.429)" fill="#5b2ccf"/>
      <path id="Trazado_877546" data-name="Trazado 877546" d="M36.754,8.033A.754.754,0,0,1,36,7.279V2.754a.754.754,0,1,1,1.508,0V7.279A.754.754,0,0,1,36.754,8.033Z" transform="translate(-10.358 -2)" fill="#5b2ccf"/>
      <path id="Trazado_877547" data-name="Trazado 877547" d="M22.016,11.981a.754.754,0,0,1-.654-.377L19.1,7.682a.754.754,0,1,1,1.306-.754l2.263,3.922a.754.754,0,0,1-.652,1.131Z" transform="translate(-6.179 -3.119)" fill="#5b2ccf"/>
      <path id="Trazado_877548" data-name="Trazado 877548" d="M11.226,22.771a.748.748,0,0,1-.377-.1L6.927,20.407A.754.754,0,1,1,7.681,19.1L11.6,21.364a.754.754,0,0,1-.377,1.407Z" transform="translate(-3.118 -6.179)" fill="#5b2ccf"/>
      <path id="Trazado_877549" data-name="Trazado 877549" d="M7.279,37.508H2.754a.754.754,0,0,1,0-1.508H7.279a.754.754,0,0,1,0,1.508Z" transform="translate(-2 -10.358)" fill="#5b2ccf"/>
      <path id="Trazado_877550" data-name="Trazado 877550" d="M7.31,53.771a.754.754,0,0,1-.377-1.407L10.855,50.1a.754.754,0,1,1,.754,1.306L7.687,53.67a.754.754,0,0,1-.377.1Z" transform="translate(-3.12 -13.8)" fill="#5b2ccf"/>
      <path id="Trazado_877551" data-name="Trazado 877551" d="M19.754,65.675a.754.754,0,0,1-.652-1.131l2.263-3.922a.754.754,0,1,1,1.306.754L20.408,65.3A.754.754,0,0,1,19.754,65.675Z" transform="translate(-6.179 -16.318)" fill="#5b2ccf"/>
      <path id="Trazado_877552" data-name="Trazado 877552" d="M36.754,70.033A.754.754,0,0,1,36,69.279V64.754a.754.754,0,1,1,1.508,0v4.525A.754.754,0,0,1,36.754,70.033Z" transform="translate(-10.358 -17.241)" fill="#5b2ccf"/>
      <path id="Trazado_877553" data-name="Trazado 877553" d="M53.016,65.675a.754.754,0,0,1-.654-.377L50.1,61.376a.754.754,0,1,1,1.306-.754l2.263,3.922a.754.754,0,0,1-.652,1.131Z" transform="translate(-13.799 -16.318)" fill="#5b2ccf"/>
      <path id="Trazado_877554" data-name="Trazado 877554" d="M64.92,53.771a.754.754,0,0,1-.377-.1l-3.922-2.263a.754.754,0,1,1,.754-1.306L65.3,52.364a.754.754,0,0,1-.377,1.407Z" transform="translate(-16.318 -13.8)" fill="#5b2ccf"/>
      <path id="Trazado_877555" data-name="Trazado 877555" d="M69.279,37.508H64.754a.754.754,0,1,1,0-1.508h4.525a.754.754,0,0,1,0,1.508Z" transform="translate(-17.241 -10.358)" fill="#5b2ccf"/>
      <path id="Trazado_877556" data-name="Trazado 877556" d="M61,22.771a.754.754,0,0,1-.377-1.407L64.549,19.1a.754.754,0,1,1,.754,1.306L61.381,22.67a.748.748,0,0,1-.377.1Z" transform="translate(-16.319 -6.179)" fill="#5b2ccf"/>
      <path id="Trazado_877557" data-name="Trazado 877557" d="M50.754,11.981A.754.754,0,0,1,50.1,10.85l2.263-3.922a.754.754,0,1,1,1.306.754L51.408,11.6a.754.754,0,0,1-.654.377Z" transform="translate(-13.8 -3.119)" fill="#5b2ccf"/>
    </g>
    <g id="Grupo_1101606" data-name="Grupo 1101606" transform="translate(-10132 -10205)">
      <path id="Trazado_877558" data-name="Trazado 877558" d="M42.234,71.588a.754.754,0,0,1-.12-1.5c.754-.122,1.474-.272,2.14-.446a.754.754,0,1,1,.377,1.46c-.711.185-1.478.344-2.278.474a.755.755,0,0,1-.119.01Z" transform="translate(-11.671 -19.098)" fill="#5b2ccf"/>
      <path id="Trazado_877559" data-name="Trazado 877559" d="M26.8,55.407h-.047A26.412,26.412,0,1,1,48.39,46.27a25.915,25.915,0,0,1-1.916,2.009.755.755,0,0,1-1.034-1.1,24.53,24.53,0,0,0,1.81-1.9,24.882,24.882,0,1,0-20.4,8.616.755.755,0,1,1-.046,1.508Z" transform="translate(-1.954 -2.631)" fill="#5b2ccf"/>
      <path id="Trazado_877560" data-name="Trazado 877560" d="M51.765,68.337a.754.754,0,0,1-.341-1.428c.726-.366,1.352-.711,1.916-1.056a.754.754,0,1,1,.787,1.284c-.6.366-1.26.731-2.022,1.116A.754.754,0,0,1,51.765,68.337Z" transform="translate(-14.013 -18.139)" fill="#5b2ccf"/>
      <path id="Trazado_877561" data-name="Trazado 877561" d="M38.726,44.784H27.4a.754.754,0,0,1-.653-.377L21.1,34.6a.754.754,0,0,1,0-.754l5.656-9.8a.754.754,0,0,1,.653-.377H38.726a.754.754,0,0,1,.653.377l5.66,9.8a.754.754,0,0,1,0,.754l-5.66,9.8A.754.754,0,0,1,38.726,44.784ZM27.84,43.276H38.291l5.224-9.05-5.224-9.05H27.84l-5.224,9.05Z" transform="translate(-6.634 -7.802)" fill="#5b2ccf"/>
      <path id="Trazado_877562" data-name="Trazado 877562" d="M29.243,20.161a.754.754,0,0,1-.624-1.177L39.05,3.592a.754.754,0,1,1,1.249.846L29.869,19.831a.754.754,0,0,1-.625.33Z" transform="translate(-8.477 -2.785)" fill="#5b2ccf"/>
      <path id="Trazado_877563" data-name="Trazado 877563" d="M19.1,32.727a.754.754,0,0,1-.679-.425L10.3,15.574a.754.754,0,1,1,1.358-.658l8.115,16.729a.754.754,0,0,1-.679,1.083Z" transform="translate(-3.988 -5.546)" fill="#5b2ccf"/>
      <path id="Trazado_877564" data-name="Trazado 877564" d="M23.216,50.742h-.055L4.616,49.4a.754.754,0,0,1,.109-1.5L23.27,49.236a.755.755,0,0,1-.054,1.508Z" transform="translate(-2.441 -13.759)" fill="#5b2ccf"/>
      <path id="Trazado_877565" data-name="Trazado 877565" d="M30.433,66.564a.746.746,0,0,1-.422-.13.754.754,0,0,1-.2-1.048L40.24,49.992a.754.754,0,1,1,1.249.846L31.059,66.232a.754.754,0,0,1-.625.331Z" transform="translate(-8.77 -14.192)" fill="#5b2ccf"/>
      <path id="Trazado_877566" data-name="Trazado 877566" d="M59.881,54.9a.754.754,0,0,1-.679-.425L51.086,37.747a.754.754,0,1,1,1.358-.658l8.115,16.728A.754.754,0,0,1,59.88,54.9Z" transform="translate(-14.013 -10.997)" fill="#5b2ccf"/>
      <path id="Trazado_877567" data-name="Trazado 877567" d="M62.8,26.51h-.055L44.2,25.171a.754.754,0,0,1-.7-.806.762.762,0,0,1,.806-.7L62.855,25a.755.755,0,1,1-.054,1.508Z" transform="translate(-12.167 -7.801)" fill="#5b2ccf"/>
    </g>
    <g id="Grupo_1101607" data-name="Grupo 1101607" transform="translate(-9572.979 -10205)">
      <path id="Trazado_877568" data-name="Trazado 877568" d="M55.481,22.52a.754.754,0,0,1-.533-.221l-9.935-9.935a.754.754,0,0,1,0-1.066l7.019-7.019a7.779,7.779,0,1,1,11,11L56.014,22.3a.754.754,0,0,1-.533.221ZM46.613,11.831,55.481,20.7l6.486-6.486A6.271,6.271,0,0,0,53.1,5.345Z" transform="translate(-12.519 -2)" fill="#5b2ccf"/>
      <path id="Trazado_877569" data-name="Trazado 877569" d="M52.022,32.051a4.231,4.231,0,0,1-3-1.241L36.266,18.055a4.244,4.244,0,1,1,6-6L55.023,24.808a4.242,4.242,0,0,1-3,7.24ZM39.267,12.32a2.734,2.734,0,0,0-1.934,4.667L50.089,29.744a2.736,2.736,0,1,0,3.869-3.869L41.2,13.119a2.727,2.727,0,0,0-1.934-.8Z" transform="translate(-10.118 -4.165)" fill="#5b2ccf"/>
      <path id="Trazado_877570" data-name="Trazado 877570" d="M25.845,61.263a.754.754,0,0,1-.433-1.372c.63-.441,1.222-.905,1.717-1.305a.754.754,0,1,1,.944,1.177c-.515.413-1.131.9-1.8,1.364A.75.75,0,0,1,25.845,61.263Z" transform="translate(-7.676 -15.869)" fill="#5b2ccf"/>
      <path id="Trazado_877571" data-name="Trazado 877571" d="M2.754,59.224a.754.754,0,0,1-.743-.885,42.716,42.716,0,0,1,11.9-22.871L29.145,20.25a.754.754,0,0,1,1.066,0L40.973,31.012a.754.754,0,0,1,0,1.066l-9.3,9.307a.754.754,0,1,1-1.067-1.066l8.767-8.773-9.7-9.7L14.985,36.536A41.2,41.2,0,0,0,3.7,57.521a41.51,41.51,0,0,0,10.831-3.838c.232-.116.447-.235.663-.367a.754.754,0,0,1,.787,1.287c-.252.151-.5.293-.765.423A42.993,42.993,0,0,1,2.886,59.213a.787.787,0,0,1-.132.011Z" transform="translate(-2 -6.432)" fill="#5b2ccf"/>
      <path id="Trazado_877572" data-name="Trazado 877572" d="M33.344,54.682a.754.754,0,0,1-.533-1.287l1.584-1.584a.756.756,0,0,1,1.069,1.069L33.88,54.463A.754.754,0,0,1,33.344,54.682Z" transform="translate(-9.52 -14.19)" fill="#5b2ccf"/>
    </g>
    <g id="Grupo_1101601" data-name="Grupo 1101601" transform="translate(-9760.442 -10200)">
      <path id="Trazado_877494" data-name="Trazado 877494" d="M37.464,10.378h-2.24a.754.754,0,1,1,0-1.508h2.24a.754.754,0,1,1,0,1.508Z" transform="translate(-9.982 -8.87)" fill="#5b2ccf"/>
      <path id="Trazado_877495" data-name="Trazado 877495" d="M42.281,42.091H5.635A3.639,3.639,0,0,1,2,38.456V12.505A3.639,3.639,0,0,1,5.635,8.87h8.854a.754.754,0,0,1,0,1.508H5.635a2.13,2.13,0,0,0-2.127,2.127V38.456a2.13,2.13,0,0,0,2.127,2.127H42.281a2.129,2.129,0,0,0,2.127-2.127V12.505a2.129,2.129,0,0,0-2.127-2.127H34.761a.754.754,0,0,1,0-1.508h7.519a3.639,3.639,0,0,1,3.635,3.635V38.456a3.639,3.639,0,0,1-3.635,3.635Z" transform="translate(-2 -8.87)" fill="#5b2ccf"/>
      <path id="Trazado_877496" data-name="Trazado 877496" d="M27.509,10.378H25.314a.754.754,0,0,1,0-1.508h2.195a.754.754,0,0,1,0,1.508Z" transform="translate(-7.546 -8.87)" fill="#5b2ccf"/>
      <path id="Trazado_877497" data-name="Trazado 877497" d="M41.031,39.419H9.484a2.2,2.2,0,0,1-2.2-2.2v-20.9a2.2,2.2,0,0,1,2.2-2.2H41.031a2.2,2.2,0,0,1,2.2,2.2v20.9A2.2,2.2,0,0,1,41.031,39.419ZM9.484,15.632a.689.689,0,0,0-.688.687v20.9a.689.689,0,0,0,.688.688H41.031a.689.689,0,0,0,.687-.688v-20.9a.688.688,0,0,0-.687-.687Z" transform="translate(-3.3 -10.162)" fill="#5b2ccf"/>
      <path id="Trazado_877498" data-name="Trazado 877498" d="M21.086,42.434a.754.754,0,0,1-.575-1.241L32.8,26.656a.754.754,0,0,1,1.068-.084l12.3,10.572a.754.754,0,0,1-.98,1.144L33.468,28.211l-11.8,13.956A.754.754,0,0,1,21.086,42.434Z" transform="translate(-6.507 -13.177)" fill="#5b2ccf"/>
      <path id="Trazado_877499" data-name="Trazado 877499" d="M8.042,37.236A.754.754,0,0,1,7.5,35.954l7.378-7.585a.754.754,0,0,1,.538-.226.905.905,0,0,1,.539.226L23.3,35.8a.754.754,0,1,1-1.074,1.056l-6.8-6.886L8.583,37.01a.754.754,0,0,1-.541.226Z" transform="translate(-3.299 -13.608)" fill="#5b2ccf"/>
      <path id="Trazado_877500" data-name="Trazado 877500" d="M24.329,25.791a3.441,3.441,0,0,1-.528-.041,3.338,3.338,0,1,1,.528.041Zm0-5.136a1.8,1.8,0,1,0,.29.022,1.885,1.885,0,0,0-.291-.022Z" transform="translate(-6.692 -11.4)" fill="#5b2ccf"/>
      <path id="Trazado_877501" data-name="Trazado 877501" d="M67.164,39.332a.754.754,0,0,1-.754-.754V15.054a.754.754,0,1,1,1.508,0V38.578A.754.754,0,0,1,67.164,39.332Z" transform="translate(-17.834 -10.205)" fill="#5b2ccf"/>
      <path id="Trazado_877502" data-name="Trazado 877502" d="M63.573,18.513a.754.754,0,0,1-.533-1.287l2.706-2.707a.754.754,0,0,1,1.066,0l2.707,2.707a.754.754,0,1,1-1.066,1.066l-2.172-2.174-2.175,2.174a.754.754,0,0,1-.533.221Z" transform="translate(-16.951 -10.204)" fill="#5b2ccf"/>
      <path id="Trazado_877503" data-name="Trazado 877503" d="M66.281,46.117a.754.754,0,0,1-.535-.219L63.037,43.19A.754.754,0,1,1,64.1,42.124L66.278,44.3l2.174-2.174a.754.754,0,1,1,1.066,1.066L66.812,45.9a.754.754,0,0,1-.531.219Z" transform="translate(-16.95 -16.99)" fill="#5b2ccf"/>
      <path id="Trazado_877504" data-name="Trazado 877504" d="M38.8,61.051H15.273a.754.754,0,0,1,0-1.508H38.8a.754.754,0,1,1,0,1.508Z" transform="translate(-5.077 -21.327)" fill="#5b2ccf"/>
      <path id="Trazado_877505" data-name="Trazado 877505" d="M42.876,62.876a.754.754,0,0,1-.533-1.287l2.176-2.174L42.343,57.24a.754.754,0,1,1,1.066-1.066l2.708,2.708a.754.754,0,0,1,0,1.066l-2.708,2.707A.754.754,0,0,1,42.876,62.876Z" transform="translate(-11.863 -20.444)" fill="#5b2ccf"/>
      <path id="Trazado_877506" data-name="Trazado 877506" d="M17.98,62.876a.754.754,0,0,1-.533-.221L14.74,59.948a.754.754,0,0,1,0-1.066l2.707-2.707a.754.754,0,1,1,1.066,1.066L16.34,59.415l2.174,2.174a.754.754,0,0,1-.533,1.287Z" transform="translate(-5.078 -20.444)" fill="#5b2ccf"/>
    </g>
    <g id="Grupo_1101599" data-name="Grupo 1101599" transform="translate(-10039 -10205)">
      <path id="Trazado_877464" data-name="Trazado 877464" d="M62.254,31.583a.754.754,0,0,1-.754-.754V20.134a.754.754,0,1,1,1.508,0V30.828A.754.754,0,0,1,62.254,31.583Z" transform="translate(-17.946 -6.288)" fill="#5b2ccf"/>
      <path id="Trazado_877465" data-name="Trazado 877465" d="M62.254,54.233a.754.754,0,0,1-.754-.754V51.284a.754.754,0,0,1,1.508,0v2.195A.754.754,0,0,1,62.254,54.233Z" transform="translate(-17.946 -13.945)" fill="#5b2ccf"/>
      <path id="Trazado_877466" data-name="Trazado 877466" d="M62.254,69.143a.754.754,0,0,1-.754-.754V61.194a.754.754,0,1,1,1.508,0v7.195A.754.754,0,0,1,62.254,69.143Z" transform="translate(-17.946 -16.381)" fill="#5b2ccf"/>
      <path id="Trazado_877467" data-name="Trazado 877467" d="M62.254,44.308a.754.754,0,0,1-.754-.754v-2.24a.754.754,0,1,1,1.508,0v2.24A.754.754,0,0,1,62.254,44.308Z" transform="translate(-17.946 -11.494)" fill="#5b2ccf"/>
      <path id="Trazado_877468" data-name="Trazado 877468" d="M62.254,11.53a.754.754,0,0,1-.754-.754v-8a.754.754,0,0,1,1.508,0v8A.754.754,0,0,1,62.254,11.53Z" transform="translate(-17.946 -2.02)" fill="#5b2ccf"/>
      <path id="Trazado_877469" data-name="Trazado 877469" d="M45.254,68.883a.754.754,0,0,1-.754-.754V60.134a.754.754,0,0,1,1.508,0v7.994A.754.754,0,0,1,45.254,68.883Z" transform="translate(-13.767 -16.12)" fill="#5b2ccf"/>
      <path id="Trazado_877470" data-name="Trazado 877470" d="M45.254,41.7a.754.754,0,0,1-.754-.754V2.774a.754.754,0,1,1,1.508,0V40.943A.754.754,0,0,1,45.254,41.7Z" transform="translate(-13.767 -2.02)" fill="#5b2ccf"/>
      <path id="Trazado_877471" data-name="Trazado 877471" d="M28.254,59.05A.754.754,0,0,1,27.5,58.3V20.134a.754.754,0,1,1,1.508,0V58.3A.754.754,0,0,1,28.254,59.05Z" transform="translate(-9.588 -6.288)" fill="#5b2ccf"/>
      <path id="Trazado_877472" data-name="Trazado 877472" d="M28.254,11.53a.754.754,0,0,1-.754-.754v-8a.754.754,0,1,1,1.508,0v8A.754.754,0,0,1,28.254,11.53Z" transform="translate(-9.588 -2.02)" fill="#5b2ccf"/>
      <path id="Trazado_877473" data-name="Trazado 877473" d="M11.254,68.883a.754.754,0,0,1-.754-.754V60.134a.754.754,0,0,1,1.508,0v7.994A.754.754,0,0,1,11.254,68.883Z" transform="translate(-5.409 -16.12)" fill="#5b2ccf"/>
      <path id="Trazado_877474" data-name="Trazado 877474" d="M11.254,41.7a.754.754,0,0,1-.754-.754V2.774a.754.754,0,1,1,1.508,0V40.943A.754.754,0,0,1,11.254,41.7Z" transform="translate(-5.409 -2.02)" fill="#5b2ccf"/>
      <path id="Trazado_877475" data-name="Trazado 877475" d="M63.14,19.224H58.05a3.3,3.3,0,1,1,0-6.6H63.14a3.3,3.3,0,0,1,0,6.6ZM58.05,14.133a1.791,1.791,0,1,0,0,3.582H63.14a1.791,1.791,0,0,0,0-3.582Z" transform="translate(-16.287 -4.627)" fill="#5b2ccf"/>
      <path id="Trazado_877476" data-name="Trazado 877476" d="M46.14,59.224H41.05a3.3,3.3,0,1,1,0-6.6H46.14a3.3,3.3,0,0,1,0,6.6ZM41.05,54.133a1.791,1.791,0,0,0,0,3.582H46.14a1.791,1.791,0,0,0,0-3.582Z" transform="translate(-12.108 -14.46)" fill="#5b2ccf"/>
      <path id="Trazado_877477" data-name="Trazado 877477" d="M29.14,19.224H24.05a3.3,3.3,0,0,1,0-6.6H29.14a3.3,3.3,0,0,1,0,6.6ZM24.05,14.133a1.791,1.791,0,0,0,0,3.582H29.14a1.791,1.791,0,1,0,0-3.582Z" transform="translate(-7.929 -4.627)" fill="#5b2ccf"/>
      <path id="Trazado_877478" data-name="Trazado 877478" d="M12.14,59.224H7.05a3.3,3.3,0,0,1,0-6.6H12.14a3.3,3.3,0,0,1,0,6.6ZM7.05,54.133a1.791,1.791,0,0,0,0,3.582H12.14a1.791,1.791,0,0,0,0-3.582Z" transform="translate(-3.75 -14.46)" fill="#5b2ccf"/>
    </g>
  </g>
</svg>
