<svg id="surface1" xmlns="http://www.w3.org/2000/svg" width="75" height="67.383" viewBox="0 0 75 67.383">
  <path id="Trazado_878890" data-name="Trazado 878890" d="M36.367,19.668a4.708,4.708,0,1,1-4.709,4.709A4.709,4.709,0,0,1,36.367,19.668ZM62.734,42.3V14.688A4.7,4.7,0,0,0,58.047,10H14.688A4.7,4.7,0,0,0,10,14.688V51.1L21.614,39.486a4.259,4.259,0,0,1,6.005,0l7.347,7.346L48.113,33.685a4.259,4.259,0,0,1,6.005,0Zm0,0" transform="translate(-8.535 -8.535)" fill="#eef5ff" fill-rule="evenodd"/>
  <path id="Trazado_878891" data-name="Trazado 878891" d="M48.113,164.471,34.966,177.618l-7.347-7.346a4.259,4.259,0,0,0-6.005,0L10,181.886v6.947a4.7,4.7,0,0,0,4.688,4.688H58.047a4.7,4.7,0,0,0,4.688-4.687V173.087l-8.616-8.616A4.259,4.259,0,0,0,48.113,164.471Zm0,0" transform="translate(-8.535 -139.322)" fill="#7cdb49" fill-rule="evenodd"/>
  <path id="Trazado_878892" data-name="Trazado 878892" d="M167.272,80.709A4.708,4.708,0,1,1,162.564,76,4.708,4.708,0,0,1,167.272,80.709Zm0,0" transform="translate(-134.732 -64.867)" fill="#ff9f48" fill-rule="evenodd"/>
  <path id="Trazado_878893" data-name="Trazado 878893" d="M184.93,313.438h41.016a2.938,2.938,0,0,0,2.93-2.93V292.93a2.938,2.938,0,0,0-2.93-2.93H184.93a2.938,2.938,0,0,0-2.93,2.93v17.578A2.938,2.938,0,0,0,184.93,313.438Zm0,0" transform="translate(-155.34 -247.52)" fill="#abc7ff" fill-rule="evenodd"/>
  <path id="Trazado_878894" data-name="Trazado 878894" d="M73.23,2.93h.039a1.465,1.465,0,0,0,0-2.93H73.23a1.465,1.465,0,1,0,0,2.93Zm0,0" transform="translate(-61.253)"/>
  <path id="Trazado_878895" data-name="Trazado 878895" d="M160.2,72.174a6.173,6.173,0,1,0-6.173,6.173A6.18,6.18,0,0,0,160.2,72.174Zm-9.417,0a3.244,3.244,0,1,1,3.244,3.244A3.247,3.247,0,0,1,150.785,72.174Zm0,0" transform="translate(-126.197 -56.332)"/>
  <path id="Trazado_878896" data-name="Trazado 878896" d="M70.605,41.016H55.664V6.152A6.159,6.159,0,0,0,49.512,0H17.871a1.465,1.465,0,0,0,0,2.93H49.512a3.226,3.226,0,0,1,3.223,3.223V30.229l-6.115-6.115a5.718,5.718,0,0,0-8.077,0L26.431,36.225,20.12,29.914a5.719,5.719,0,0,0-8.077,0L2.93,39.028V6.152A3.226,3.226,0,0,1,6.152,2.93H7.769a1.465,1.465,0,0,0,0-2.93H6.152A6.159,6.159,0,0,0,0,6.152V49.512a6.159,6.159,0,0,0,6.152,6.152H25.2v7.324a4.4,4.4,0,0,0,4.395,4.395h29.3a1.465,1.465,0,0,0,0-2.93H29.59a1.467,1.467,0,0,1-1.465-1.465V45.41a1.467,1.467,0,0,1,1.465-1.465H70.605A1.466,1.466,0,0,1,72.07,45.41V62.988a1.467,1.467,0,0,1-1.465,1.465H68.989a1.465,1.465,0,0,0,0,2.93h1.616A4.4,4.4,0,0,0,75,62.988V45.41A4.4,4.4,0,0,0,70.605,41.016ZM25.2,45.41v7.324H6.152A3.227,3.227,0,0,1,2.93,49.512V43.171L14.115,31.986a2.785,2.785,0,0,1,3.934,0l7.346,7.347a1.466,1.466,0,0,0,2.071,0L40.614,26.185a2.784,2.784,0,0,1,3.933,0l8.187,8.187v6.643H29.59A4.4,4.4,0,0,0,25.2,45.41Zm0,0"/>
  <path id="Trazado_878897" data-name="Trazado 878897" d="M433.469,440h-.039a1.465,1.465,0,1,0,0,2.93h.039a1.465,1.465,0,0,0,0-2.93Zm0,0" transform="translate(-368.689 -375.547)"/>
  <path id="Trazado_878898" data-name="Trazado 878898" d="M231.75,334.648a1.465,1.465,0,0,0,1.465-1.465V321.465a1.465,1.465,0,1,0-2.93,0v4.395h-4.6v-4.395a1.465,1.465,0,1,0-2.93,0v11.719a1.465,1.465,0,0,0,2.93,0v-4.395h4.6v4.395A1.465,1.465,0,0,0,231.75,334.648Zm0,0" transform="translate(-190.127 -273.125)"/>
  <path id="Trazado_878899" data-name="Trazado 878899" d="M398.173,329.448A5.226,5.226,0,0,0,395.091,320h-3.763a1.465,1.465,0,0,0-1.465,1.465v11.719a1.465,1.465,0,0,0,2.93,0v-2.727h2.3c.106,0,.211,0,.316-.01l.835,3.116a1.465,1.465,0,0,0,1.414,1.087,1.447,1.447,0,0,0,.38-.051,1.464,1.464,0,0,0,1.036-1.794Zm-5.38-6.519h2.3a2.3,2.3,0,0,1,0,4.6h-2.3Zm0,0" transform="translate(-332.754 -273.125)"/>
  <path id="Trazado_878900" data-name="Trazado 878900" d="M311.181,320h-3.763a1.465,1.465,0,0,0-1.465,1.465v11.719a1.465,1.465,0,0,0,1.465,1.465h3.763a5.234,5.234,0,0,0,5.228-5.228v-4.192A5.234,5.234,0,0,0,311.181,320Zm2.3,9.42a2.3,2.3,0,0,1-2.3,2.3h-2.3V322.93h2.3a2.3,2.3,0,0,1,2.3,2.3Zm0,0" transform="translate(-261.136 -273.125)"/>
</svg>
