<svg xmlns="http://www.w3.org/2000/svg" width="294.949" height="83.999" viewBox="0 0 294.949 83.999">
  <g id="Grupo_1101662" data-name="Grupo 1101662" transform="translate(-1125.051 -4785)">
    <rect id="Rectángulo_403075" data-name="Rectángulo 403075" width="294.949" height="63" transform="translate(1125.051 4785)" fill="#a0eef9"/>
    <g id="Grupo_1101654" data-name="Grupo 1101654" transform="translate(1050.051 4405)">
      <g id="Grupo_1100417" data-name="Grupo 1100417" transform="translate(7936.993 15109.876)">
        <circle id="Elipse_11545" data-name="Elipse 11545" cx="35" cy="35" r="35" transform="translate(-7749.993 -14716.876)" fill="none" stroke="#bdaaeb" stroke-linecap="round" stroke-linejoin="round" stroke-width="2"/>
        <circle id="Elipse_11546" data-name="Elipse 11546" cx="16.886" cy="16.886" r="16.886" transform="translate(-7731.878 -14698.762)" fill="none" stroke="#bdaaeb" stroke-linecap="round" stroke-linejoin="round" stroke-width="2"/>
      </g>
      <g id="Grupo_1100418" data-name="Grupo 1100418" transform="translate(193 393.002)">
        <path id="Trazado_875016" data-name="Trazado 875016" d="M88.65,23.324V73.97a1.611,1.611,0,0,1-1.612,1.611h-44.5a1.611,1.611,0,0,1-1.611-1.611V9.111A1.611,1.611,0,0,1,42.538,7.5h30.29Zm0,0" transform="translate(-35.32 -6.474)" fill="#006be0"/>
        <path id="Trazado_875017" data-name="Trazado 875017" d="M262.281,23.323V73.97a1.611,1.611,0,0,1-1.611,1.611h-4.341a1.612,1.612,0,0,0,1.611-1.611V23.323L242.118,7.5h4.341Zm0,0" transform="translate(-208.951 -6.474)" fill="#003fcc"/>
        <path id="Trazado_875018" data-name="Trazado 875018" d="M275.457,23.281l14.175.042L273.809,7.5l.041,14.174a1.612,1.612,0,0,0,1.606,1.607Zm0,0" transform="translate(-236.302 -6.473)" fill="#64bdff"/>
        <path id="Trazado_875019" data-name="Trazado 875019" d="M62.77,200.241H9.111A1.611,1.611,0,0,1,7.5,198.629V180.811A1.611,1.611,0,0,1,9.111,179.2H62.77a1.611,1.611,0,0,1,1.611,1.611v17.819A1.611,1.611,0,0,1,62.77,200.241Zm0,0" transform="translate(-6.473 -154.653)" fill="#64bdff"/>
        <path id="Trazado_875020" data-name="Trazado 875020" d="M387.553,180.81v17.819a1.611,1.611,0,0,1-1.612,1.611h-3.973a1.611,1.611,0,0,0,1.612-1.611V180.81a1.611,1.611,0,0,0-1.612-1.611h3.973A1.611,1.611,0,0,1,387.553,180.81Zm0,0" transform="translate(-329.645 -154.653)" fill="#43a3f9"/>
        <path id="Trazado_875021" data-name="Trazado 875021" d="M106.992,48.087,104.3,45.4l5.853-5.852a1.9,1.9,0,1,1,2.692,2.692Zm0,0" transform="translate(-90.013 -33.646)" fill="#e3f4ff"/>
        <path id="Trazado_875022" data-name="Trazado 875022" d="M80.079,88.061c-1.164,1.164-4.858,2.97-6.021,1.806s.642-4.858,1.806-6.021a2.981,2.981,0,1,1,4.215,4.215Zm0,0" transform="translate(-63.588 -71.608)" fill="#fdb659"/>
        <path id="Trazado_875023" data-name="Trazado 875023" d="M104.192,373.284H84.261a1.644,1.644,0,0,1,0-3.288h19.931a1.644,1.644,0,0,1,0,3.288Zm0,0" transform="translate(-71.3 -319.313)" fill="#e3f4ff"/>
        <path id="Trazado_875024" data-name="Trazado 875024" d="M56.3,23.519h-1.94s0-6.49-.011-6.536a1.025,1.025,0,0,0-.291-.86L38.234.3a1.027,1.027,0,0,0-.86-.29C37.328,0,18.643,0,18.643,0a1.027,1.027,0,0,0,0,2.055h17.84l.038,13.15a2.645,2.645,0,0,0,2.631,2.631l13.15.039v5.645H6.633V2.637a.584.584,0,0,1,.584-.584h6.952a1.027,1.027,0,0,0,0-2.055H7.217A2.642,2.642,0,0,0,4.579,2.637V23.519H2.639A2.642,2.642,0,0,0,0,26.158V43.976a2.642,2.642,0,0,0,2.639,2.639h1.94V67.5a2.642,2.642,0,0,0,2.639,2.639H38a1.027,1.027,0,1,0,0-2.055H7.217a.585.585,0,0,1-.584-.584V46.615h6.714a1.027,1.027,0,0,0,0-2.055H2.639a.585.585,0,0,1-.584-.584V26.158a.585.585,0,0,1,.584-.584H56.3a.584.584,0,0,1,.584.584V43.976a.584.584,0,0,1-.584.584H17.821a1.027,1.027,0,1,0,0,2.055H52.3V67.5a.584.584,0,0,1-.584.584H42.477a1.027,1.027,0,1,0,0,2.055h9.241A2.642,2.642,0,0,0,54.356,67.5V46.615H56.3a2.642,2.642,0,0,0,2.639-2.639V26.158A2.642,2.642,0,0,0,56.3,23.519ZM39.158,15.78a.585.585,0,0,1-.582-.582L38.542,3.514l12.3,12.3Zm0,0"/>
        <path id="Trazado_875025" data-name="Trazado 875025" d="M157.028,219.6v-4.041h3.019a3.286,3.286,0,0,0,3.282-3.282v-1.654a3.286,3.286,0,0,0-3.282-3.282h-3.161a1.915,1.915,0,0,0-1.912,1.912V219.6a1.027,1.027,0,0,0,2.055,0Zm0-10.205h3.019a1.229,1.229,0,0,1,1.228,1.228v1.655a1.229,1.229,0,0,1-1.228,1.228h-3.019Zm0,0" transform="translate(-133.744 -178.942)"/>
        <path id="Trazado_875026" data-name="Trazado 875026" d="M228,234.35h-2.5a1.027,1.027,0,0,0,0,2.055H228a3.426,3.426,0,0,0,0-6.851h-.533a.944.944,0,0,1,0-1.889H230.4a1.027,1.027,0,1,0,0-2.055h-2.931a3,3,0,0,0,0,6H228a1.371,1.371,0,1,1,0,2.742Zm0,0" transform="translate(-193.724 -194.705)"/>
        <path id="Trazado_875027" data-name="Trazado 875027" d="M295.946,362.5h-6.3a1.027,1.027,0,0,0,0,2.055h6.3a1.027,1.027,0,1,0,0-2.055Zm0,0" transform="translate(-249.081 -312.844)"/>
        <path id="Trazado_875028" data-name="Trazado 875028" d="M315.8,386.5h-3.151a1.027,1.027,0,1,0,0,2.055H315.8a1.027,1.027,0,1,0,0-2.055Zm0,0" transform="translate(-268.93 -333.557)"/>
        <path id="Trazado_875029" data-name="Trazado 875029" d="M83.617,463.907h34.524a1.027,1.027,0,0,0,0-2.055H83.617a1.027,1.027,0,1,0,0,2.055Zm0,0" transform="translate(-71.276 -398.586)"/>
        <path id="Trazado_875030" data-name="Trazado 875030" d="M351.144,238.18h2.877a1.027,1.027,0,1,0,0-2.055h-2.877a1.027,1.027,0,1,0,0,2.055Zm0,0" transform="translate(-302.157 -203.781)"/>
        <path id="Trazado_875031" data-name="Trazado 875031" d="M351.144,262.93h2.877a1.027,1.027,0,1,0,0-2.055h-2.877a1.027,1.027,0,1,0,0,2.055Zm0,0" transform="translate(-302.157 -225.14)"/>
        <path id="Trazado_875032" data-name="Trazado 875032" d="M48.021,236.125H45.145a1.027,1.027,0,0,0,0,2.055h2.877a1.027,1.027,0,0,0,0-2.055Zm0,0" transform="translate(-38.074 -203.781)"/>
        <path id="Trazado_875033" data-name="Trazado 875033" d="M48.021,260.875H45.145a1.027,1.027,0,1,0,0,2.055h2.877a1.027,1.027,0,1,0,0-2.055Zm0,0" transform="translate(-38.074 -225.14)"/>
        <path id="Trazado_875034" data-name="Trazado 875034" d="M68.7,38.693c-1.193,1.193-3.666,5.615-1.806,7.474a2.518,2.518,0,0,0,1.848.67,9.935,9.935,0,0,0,5.627-2.476h0A3.991,3.991,0,0,0,75.54,41.67L80.713,36.5a2.931,2.931,0,0,0-4.144-4.145L71.4,37.525A3.994,3.994,0,0,0,68.7,38.693Zm4.215,4.215a8.476,8.476,0,0,1-2.642,1.54c-1.22.453-1.839.354-1.926.266s-.187-.706.267-1.926a8.477,8.477,0,0,1,1.539-2.642,1.953,1.953,0,0,1,2.762,2.762Zm5.1-9.1a.876.876,0,0,1,1.239,1.238l-4.339,4.338a3.975,3.975,0,0,0-1.238-1.238Zm0,0" transform="translate(-57.155 -27.182)"/>
        <path id="Trazado_875035" data-name="Trazado 875035" d="M97.719,367.842a2.671,2.671,0,1,0,0-5.342H77.788a2.671,2.671,0,1,0,0,5.342Zm-20.548-2.671a.617.617,0,0,1,.616-.616H97.719a.616.616,0,1,1,0,1.233H77.788A.617.617,0,0,1,77.172,365.171Zm0,0" transform="translate(-64.827 -312.844)"/>
      </g>
    </g>
    <g id="Grupo_1101658" data-name="Grupo 1101658" transform="translate(4)">
      <g id="Grupo_1101657" data-name="Grupo 1101657" transform="translate(1333 4800)">
        <circle id="Elipse_11613" data-name="Elipse 11613" cx="29" cy="29" r="29" transform="translate(6 5.947)" fill="#adc4e6"/>
        <path id="Trazado_877591" data-name="Trazado 877591" d="M58.3,27,55,32.5h6.595Z" transform="translate(5.253 2.478)" fill="#526273"/>
        <path id="Trazado_877592" data-name="Trazado 877592" d="M11.029,57.137a4.309,4.309,0,0,1-3.474-3.474.219.219,0,0,0-.418,0,4.309,4.309,0,0,1-3.474,3.474.219.219,0,0,0,0,.418,4.309,4.309,0,0,1,3.474,3.474.219.219,0,0,0,.418,0,4.309,4.309,0,0,1,3.474-3.474A.219.219,0,0,0,11.029,57.137Z" transform="translate(0.15 5.106)" fill="#ffecb3"/>
        <path id="Trazado_877593" data-name="Trazado 877593" d="M61.029,7.137a4.309,4.309,0,0,1-3.474-3.474.219.219,0,0,0-.418,0,4.309,4.309,0,0,1-3.474,3.474.219.219,0,0,0,0,.418,4.309,4.309,0,0,1,3.474,3.474.219.219,0,0,0,.418,0,4.309,4.309,0,0,1,3.474-3.474.219.219,0,0,0,0-.418Z" transform="translate(5.106 0.15)" fill="#ffecb3"/>
        <circle id="Elipse_11614" data-name="Elipse 11614" cx="20" cy="20" r="20" transform="translate(15 14.947)" fill="#eaeaea"/>
        <path id="Trazado_877594" data-name="Trazado 877594" d="M45.181,27.595H38.586V21H27.595v6.595H21V38.586h6.595v6.595H38.586V38.586h6.595Z" transform="translate(1.883 1.883)" fill="#ff8088"/>
        <path id="Trazado_877595" data-name="Trazado 877595" d="M21.1,39.784h5.5v5.5a1.1,1.1,0,0,0,1.1,1.1H38.685a1.1,1.1,0,0,0,1.1-1.1v-5.5h5.5a1.1,1.1,0,0,0,1.1-1.1V27.694a1.1,1.1,0,0,0-1.1-1.1h-5.5V21.1a1.1,1.1,0,0,0-1.1-1.1H27.694a1.1,1.1,0,0,0-1.1,1.1v5.5H21.1a1.1,1.1,0,0,0-1.1,1.1V38.685A1.1,1.1,0,0,0,21.1,39.784Zm1.1-10.991h5.5a1.1,1.1,0,0,0,1.1-1.1V22.2h8.793v5.5a1.1,1.1,0,0,0,1.1,1.1h5.5v8.793h-5.5a1.1,1.1,0,0,0-1.1,1.1v5.5H28.793v-5.5a1.1,1.1,0,0,0-1.1-1.1H22.2Z" transform="translate(1.784 1.784)"/>
        <path id="Trazado_877596" data-name="Trazado 877596" d="M13,33.883A20.883,20.883,0,1,0,33.883,13,20.906,20.906,0,0,0,13,33.883ZM33.883,15.2A18.685,18.685,0,1,1,15.2,33.883,18.706,18.706,0,0,1,33.883,15.2Z" transform="translate(1.09 1.09)"/>
        <path id="Trazado_877597" data-name="Trazado 877597" d="M35.137,5.178l-.252,2.183a27.5,27.5,0,0,1,16.656,8.274l1.586-1.522a29.692,29.692,0,0,0-17.99-8.935Z" transform="translate(3.26 0.315)"/>
        <path id="Trazado_877598" data-name="Trazado 877598" d="M33.244,5.022c-.756-.03-1.526-.03-2.282,0l.084,2.2c.7-.025,1.413-.025,2.115,0Z" transform="translate(2.871 0.297)"/>
        <path id="Trazado_877599" data-name="Trazado 877599" d="M7.2,34.659A27.451,27.451,0,0,1,31.5,7.361l-.252-2.183a29.679,29.679,0,0,0,0,58.961l.252-2.183A27.451,27.451,0,0,1,7.2,34.659Z" transform="translate(0.297 0.315)"/>
        <path id="Trazado_877600" data-name="Trazado 877600" d="M31.046,56.982l-.084,2.2c.378.015.758.022,1.141.022s.763-.007,1.141-.022l-.084-2.2c-.7.026-1.413.026-2.115,0Z" transform="translate(2.871 5.45)"/>
        <path id="Trazado_877601" data-name="Trazado 877601" d="M61.233,26.53a1.143,1.143,0,0,0-1.885,0l-3.3,5.5a1.1,1.1,0,0,0,.943,1.665H59.14a27.428,27.428,0,0,1-24.255,26.2l.252,2.183A29.642,29.642,0,0,0,61.365,33.691h2.224a1.1,1.1,0,0,0,.942-1.665Zm-2.3,4.963,1.356-2.261,1.356,2.261Z" transform="translate(3.26 2.382)"/>
        <path id="Trazado_877602" data-name="Trazado 877602" d="M12.184,56.436c-2.552-.706-2.925-1.077-3.629-3.63a1.1,1.1,0,0,0-2.119,0c-.7,2.552-1.077,2.925-3.629,3.63a1.1,1.1,0,0,0,0,2.119c2.552.706,2.925,1.077,3.629,3.63a1.1,1.1,0,0,0,2.119,0c.7-2.552,1.077-2.925,3.629-3.63a1.1,1.1,0,0,0,0-2.119ZM7.5,58.922A4.328,4.328,0,0,0,6.069,57.5,4.328,4.328,0,0,0,7.5,56.069,4.328,4.328,0,0,0,8.922,57.5,4.328,4.328,0,0,0,7.5,58.922Z" transform="translate(0 4.956)"/>
        <path id="Trazado_877603" data-name="Trazado 877603" d="M62.184,6.436c-2.552-.706-2.925-1.077-3.629-3.63a1.1,1.1,0,0,0-2.119,0c-.7,2.552-1.077,2.925-3.629,3.63a1.1,1.1,0,0,0,0,2.119c2.552.706,2.925,1.077,3.629,3.63a1.1,1.1,0,0,0,2.119,0c.7-2.552,1.077-2.925,3.629-3.63a1.1,1.1,0,0,0,0-2.119ZM57.5,8.922A4.328,4.328,0,0,0,56.069,7.5,4.328,4.328,0,0,0,57.5,6.069,4.328,4.328,0,0,0,58.922,7.5,4.328,4.328,0,0,0,57.5,8.922Z" transform="translate(4.956)"/>
      </g>
    </g>
    <g id="Grupo_1101659" data-name="Grupo 1101659" transform="translate(-214.102 -1.453)">
      <g id="Grupo_1101661" data-name="Grupo 1101661" transform="translate(1353.714 4817.871)">
        <path id="Trazado_877604" data-name="Trazado 877604" d="M20.134,15.723H60.021v-.585A4.638,4.638,0,0,0,55.382,10.5H17.864A7.865,7.865,0,0,0,10,18.365V44.671a4.638,4.638,0,0,0,4.638,4.638h.638V20.582a4.858,4.858,0,0,1,4.859-4.859Zm0,0" transform="translate(-8.758 -9.259)" fill="#ee4e71"/>
        <path id="Trazado_877605" data-name="Trazado 877605" d="M58.281,82.287V61.805a4.036,4.036,0,0,1,4.036-4.036h40.2v-.557a4.638,4.638,0,0,0-4.638-4.638H57.359A4.858,4.858,0,0,0,52.5,57.433V86.745a4.638,4.638,0,0,0,4.638,4.638h1.143Zm0,0" transform="translate(-45.982 -46.11)" fill="#ffd866"/>
        <g id="Grupo_1101660" data-name="Grupo 1101660" transform="translate(12.299 11.66)">
          <path id="Trazado_877606" data-name="Trazado 877606" d="M101.795,387.536q-.093-.172-.17-.353Q101.7,387.364,101.795,387.536Zm0,0" transform="translate(-101.308 -350.839)" fill="#d6effb"/>
          <path id="Trazado_877607" data-name="Trazado 877607" d="M117.846,403.985q-.185-.068-.362-.153Q117.661,403.917,117.846,403.985Zm0,0" transform="translate(-115.198 -365.42)" fill="#d6effb"/>
          <path id="Trazado_877608" data-name="Trazado 877608" d="M120.781,405.184q-.193-.049-.379-.117Q120.588,405.134,120.781,405.184Zm0,0" transform="translate(-117.754 -366.502)" fill="#d6effb"/>
          <path id="Trazado_877609" data-name="Trazado 877609" d="M498.244,387.184c-.051.121-.108.238-.17.353A3.86,3.86,0,0,0,498.244,387.184Zm0,0" transform="translate(-448.54 -350.84)" fill="#d6effb"/>
          <path id="Trazado_877610" data-name="Trazado 877610" d="M501.672,374.527a4.079,4.079,0,0,1-.047.615A4.079,4.079,0,0,0,501.672,374.527Zm0,0" transform="translate(-451.65 -339.754)" fill="#d6effb"/>
          <path id="Trazado_877611" data-name="Trazado 877611" d="M500.639,381.082c-.027.131-.06.26-.1.387Q500.6,381.279,500.639,381.082Zm0,0" transform="translate(-450.7 -345.495)" fill="#d6effb"/>
          <path id="Trazado_877612" data-name="Trazado 877612" d="M124.462,406.143a4.045,4.045,0,0,1-1.009-.127A4.045,4.045,0,0,0,124.462,406.143Zm0,0" transform="translate(-120.426 -367.333)" fill="#d6effb"/>
          <path id="Trazado_877613" data-name="Trazado 877613" d="M99.07,374.527a4.083,4.083,0,0,0,.047.615A4.02,4.02,0,0,1,99.07,374.527Zm0,0" transform="translate(-99.07 -339.754)" fill="#d6effb"/>
          <path id="Trazado_877614" data-name="Trazado 877614" d="M99.83,381.468c-.039-.127-.073-.256-.1-.387C99.757,381.213,99.79,381.342,99.83,381.468Zm0,0" transform="translate(-99.648 -345.495)" fill="#d6effb"/>
          <path id="Trazado_877615" data-name="Trazado 877615" d="M113.735,401.686q-.172-.093-.333-.2Q113.563,401.593,113.735,401.686Zm0,0" transform="translate(-111.623 -363.364)" fill="#d6effb"/>
          <path id="Trazado_877616" data-name="Trazado 877616" d="M145.056,94.422h-41.95a4.036,4.036,0,0,0-4.036,4.036v20.482L112.7,106.916a2.926,2.926,0,0,1,4.036.157l13.778,14.205,7.7-5.612a2.925,2.925,0,0,1,3.486.03l7.39,5.582V98.458a4.036,4.036,0,0,0-4.036-4.036ZM135,110.1a4.071,4.071,0,1,1,4.071-4.071A4.071,4.071,0,0,1,135,110.1Zm0,0" transform="translate(-99.07 -94.422)" fill="#d6effb"/>
        </g>
        <path id="Trazado_877617" data-name="Trazado 877617" d="M141.7,198.681a2.925,2.925,0,0,0-3.486-.03l-7.7,5.612-13.778-14.205a2.926,2.926,0,0,0-4.036-.157L99.071,201.924V212.18a4.078,4.078,0,0,0,.047.615c.01.066.022.133.035.2.027.131.06.26.1.387s.085.25.136.371.108.238.17.353a4.054,4.054,0,0,0,1.292,1.423c.108.073.218.14.333.2.057.031.115.061.174.089q.177.085.362.153t.379.117a4.046,4.046,0,0,0,1.009.127h41.95a4.035,4.035,0,0,0,3.549-2.112c.062-.114.119-.232.17-.353s.1-.244.136-.37a3.952,3.952,0,0,0,.1-.387c.014-.065.025-.132.035-.2a4.072,4.072,0,0,0,.047-.614v-7.918Zm0,0" transform="translate(-86.772 -165.747)" fill="#00b7ec"/>
        <path id="Trazado_877618" data-name="Trazado 877618" d="M363.862,159.188a4.071,4.071,0,1,1-4.071-4.071A4.071,4.071,0,0,1,363.862,159.188Zm0,0" transform="translate(-311.559 -135.922)" fill="#ffd866"/>
        <path id="Trazado_877619" data-name="Trazado 877619" d="M58.283,10.918h-.545a5.889,5.889,0,0,0-5.269-5.167A5.888,5.888,0,0,0,46.624.5H9.106A9.116,9.116,0,0,0,0,9.606V35.912a5.888,5.888,0,0,0,5.31,5.853,5.887,5.887,0,0,0,5.749,5.248,5.27,5.27,0,0,0,5.275,5.2H58.283a5.283,5.283,0,0,0,5.278-5.277V16.2a5.283,5.283,0,0,0-5.278-5.278ZM61.078,16.2V36.522l-5.4-4.079a4.144,4.144,0,0,0-4.966-.043l-6.831,4.977L30.853,23.947a4.161,4.161,0,0,0-5.748-.224L13.54,33.926V16.2A2.8,2.8,0,0,1,16.334,13.4H58.283A2.8,2.8,0,0,1,61.078,16.2Zm0,30.738a2.8,2.8,0,0,1-2.794,2.795H16.334a2.794,2.794,0,0,1-2.794-2.794v-9.7L26.748,25.585a1.681,1.681,0,0,1,2.323.09l5.879,6.062h0L46.653,43.8a1.241,1.241,0,1,0,1.782-1.728l-2.809-2.9,6.548-4.77a1.675,1.675,0,0,1,2.007.017l6.9,5.21Zm-53.32-5.8V11.823a3.577,3.577,0,0,1,.019-.37,3.622,3.622,0,0,1,3.6-3.248H26.561a1.241,1.241,0,0,0,0-2.483H11.376a6.107,6.107,0,0,0-6.1,6.1V39.256a3.4,3.4,0,0,1-2.793-3.344V9.606A6.631,6.631,0,0,1,9.106,2.983H46.624a3.4,3.4,0,0,1,3.332,2.74H36.493a1.241,1.241,0,0,0,0,2.483H51.9a3.4,3.4,0,0,1,3.327,2.712H16.334A5.283,5.283,0,0,0,11.057,16.2V36.676h0V44.53a3.4,3.4,0,0,1-3.3-3.4Zm0,0" transform="translate(0.001 -0.5)"/>
        <path id="Trazado_877620" data-name="Trazado 877620" d="M351.032,145.117a5.313,5.313,0,1,0,5.312,5.312A5.319,5.319,0,0,0,351.032,145.117Zm0,8.143a2.83,2.83,0,1,1,2.83-2.83A2.833,2.833,0,0,1,351.032,153.26Zm0,0" transform="translate(-302.8 -127.164)"/>
        <path id="Trazado_877621" data-name="Trazado 877621" d="M244.056,44.29a1.273,1.273,0,0,0,.114.214,1.229,1.229,0,0,0,.154.189,1.3,1.3,0,0,0,.189.155,1.265,1.265,0,0,0,.215.114,1.244,1.244,0,0,0,.718.071,1.257,1.257,0,0,0,.446-.185,1.327,1.327,0,0,0,.189-.155,1.237,1.237,0,0,0,.155-.189,1.273,1.273,0,0,0,.114-.214,1.3,1.3,0,0,0,.071-.232,1.26,1.26,0,0,0,.024-.243,1.237,1.237,0,0,0-.552-1.032,1.257,1.257,0,0,0-.446-.185,1.221,1.221,0,0,0-.485,0,1.237,1.237,0,0,0-.232.071,1.264,1.264,0,0,0-.215.114,1.22,1.22,0,0,0-.343.343,1.259,1.259,0,0,0-.209.689,1.261,1.261,0,0,0,.025.243A1.3,1.3,0,0,0,244.056,44.29Zm0,0" transform="translate(-213.674 -37.35)"/>
      </g>
    </g>
  </g>
</svg>
