<svg xmlns="http://www.w3.org/2000/svg" xmlns:xlink="http://www.w3.org/1999/xlink" width="295" height="196.043" viewBox="0 0 295 196.043">
  <defs>
    <clipPath id="clip-path">
      <rect id="Rectángulo_403190" data-name="Rectángulo 403190" width="295" height="196.043" fill="none"/>
    </clipPath>
  </defs>
  <g id="Grupo_1101732" data-name="Grupo 1101732" transform="translate(0 -40)">
    <g id="Grupo_1101731" data-name="Grupo 1101731" transform="translate(0 40)" clip-path="url(#clip-path)">
      <path id="Trazado_877866" data-name="Trazado 877866" d="M135.605,113.338H10.272A8.45,8.45,0,0,1,1.6,105.124V32.3a8.451,8.451,0,0,1,8.667-8.214H135.605A8.449,8.449,0,0,1,144.27,32.3v72.824a8.448,8.448,0,0,1-8.665,8.214" transform="translate(2.386 4.245)" fill="#fff"/>
      <path id="Trazado_877867" data-name="Trazado 877867" d="M148.03,64.67c-1.912-1.136-6.358-2.758-9.011-2.758H82.907c-5.037,0-9.493,2.557-11.017,6.321l-14.781,36.5a7.3,7.3,0,0,0,.915,7.151l5.522,3.835s3.707,2.211,5.987,2.211H82.3l55.64-31.994Z" transform="translate(84.065 46.095)" fill="#fff"/>
      <path id="Trazado_877868" data-name="Trazado 877868" d="M82.512,118.449H69.742c-2.355,0-6.02-2.168-6.176-2.26l-5.54-3.849a7.58,7.58,0,0,1-1.039-7.538L71.769,68.3c1.586-3.906,6.146-6.529,11.348-6.529h56.11c2.73,0,7.27,1.662,9.2,2.8a.32.32,0,0,1,.132.417L138.468,86.26a.319.319,0,0,1-.134.148L82.694,118.4a.362.362,0,0,1-.182.05M58.489,111.84l5.47,3.8c.017.007,3.63,2.145,5.783,2.145H82.415l55.461-31.89,9.916-20.9c-1.979-1.091-6.074-2.555-8.566-2.555H83.117c-4.916,0-9.212,2.454-10.694,6.107l-14.781,36.5a6.953,6.953,0,0,0,.848,6.8" transform="translate(83.855 45.907)"/>
      <path id="Trazado_877869" data-name="Trazado 877869" d="M147.062,86.806H88.585a7.819,7.819,0,0,1-8-7.582V23.792a7.818,7.818,0,0,1,8-7.582h58.477a7.821,7.821,0,0,1,8,7.582V79.224a7.822,7.822,0,0,1-8,7.582" transform="translate(119.785 -6.442)" fill="#1a1a1a"/>
      <path id="Trazado_877870" data-name="Trazado 877870" d="M101.407,43.4H92.769a1.978,1.978,0,0,1-2.024-1.919V34.668a1.978,1.978,0,0,1,2.024-1.919h8.638a1.978,1.978,0,0,1,2.024,1.919v6.812a1.978,1.978,0,0,1-2.024,1.919" transform="translate(134.88 16.001)" fill="#fff"/>
      <path id="Trazado_877871" data-name="Trazado 877871" d="M51.1,65.192S43.4,67.224,35.627,81.126,26,103.376,24.809,109.643s.132,14.726,1.989,17.439h35.9a4.964,4.964,0,0,1,3.543-1.93c2.454-.259,43.782,0,43.782,0s-.619-6.793,2.69-8.931l-5.244-3.675-5.1.094s-.821-12.153-1.6-19.4a42.1,42.1,0,0,0-7.653-19.766c-4.132-5.89-10.7-10.821-18.884-11.215S51.1,65.192,51.1,65.192" transform="translate(36.199 46.527)" fill="#1a1a1a"/>
      <path id="Trazado_877872" data-name="Trazado 877872" d="M52.93,77.2l.122-5.669s3.444.283,4.717-2.121,1.285-7.087,1.238-10.027-.42-8.162-.42-8.162-.385,1.831-3.919,1.853-8.043-.21-9.677,1.8l-1.007,2.857S40,56.443,38.693,60.353s3.491,4.6,5.082,3.858c0,0,3.707,3.415,4.284,6.769s-.385,8.181-2.19,9.235c0,0,3.342,4.657,5.2,4.5S52.93,77.2,52.93,77.2" transform="translate(57.182 31.589)" fill="#fff"/>
      <path id="Trazado_877873" data-name="Trazado 877873" d="M85.706,94.069a5.794,5.794,0,0,0-1.457-4.075A28.128,28.128,0,0,0,80.4,86.545H66.337s-4.59-.747-4.794-1.407c0,0-3.319,1.838-2.688,8.931H72.782s.425-1.421-1.6-1.987-4.63-1.292-4.63-1.292a2.822,2.822,0,0,1,1.678-.53,8.288,8.288,0,0,1,4.349,1.226,7.728,7.728,0,0,1,2.054,2.583Z" transform="translate(87.363 77.612)" fill="#fff"/>
      <path id="Trazado_877874" data-name="Trazado 877874" d="M68.478,88.335s-2.074-5.367-7-5.32l4.416,4.91s-3.652.231-4.555-.28l-4.349-4.118a45.267,45.267,0,0,0-5.211,2.046c-1.892.971-3.774,1.244-8.349.886,0,0-3.18,2-3.777,5.251a18.192,18.192,0,0,0,.567,7.168,3.4,3.4,0,0,1,3.078-1.789c2.255,0,18.911-.356,18.911-.356A5.547,5.547,0,0,0,65.872,95s2.372-.483,3-1.5a3.777,3.777,0,0,0,.646-1.657s1.044-.625.85-1.565-1.89-1.942-1.89-1.942" transform="translate(58.68 74.731)" fill="#fff"/>
      <path id="Trazado_877875" data-name="Trazado 877875" d="M31.146,144.1s7.387-15.285,9.336-19.853,6.616-15.332,8.488-22.226S52.75,88.93,51.686,83.815s-7.074-4.785-9.083-3.861-6.562,5.275-6.562,5.275.748-9.673,1.169-16.9.341-15.41-2.238-21.246-7.7-6.029-10.408-3.861-6.686,7.9-7.648,21.717a273.262,273.262,0,0,0,.569,37.127c.567,6.166,1.847,17.279,1.847,17.279s-2.593-8.132-6.166-12.89-6.146-5.192-8.571-4.316S1.911,108.5,3.89,114.023A243.988,243.988,0,0,0,15.248,138.7c2.75,4.792,3.061,5.313,3.061,5.313s7.83.764,12.837.087" transform="translate(3.822 19.013)" fill="#3552ff"/>
      <path id="Trazado_877876" data-name="Trazado 877876" d="M67.262,58.139s2.243-1.56,1.069-5.306-4.968-4.287-9.941-4.789S46.683,48.225,43.552,51a9.15,9.15,0,0,0-3.26,5.9s1.949,9.254,2.419,12.412,1.375,6.178-1.375,7.151-7.8,1.282-8.4,5.659.816,5.039.816,5.039l4.816-2.513s7.218,3.368,12.337,1.876a8.034,8.034,0,0,0,5.91-8.28,12.208,12.208,0,0,0-2.775-7.524c-1.818-1.994-2.016-1.881-2.016-1.881a3.747,3.747,0,0,1-4.749-2.451c-1.415-3.6,3.23-4.749,5.1-3.946l1.082-3.293a5.964,5.964,0,0,1,4.155-1.516c2.782-.042,5.08.082,6.494-.295s2.9-1.049,3.153-2.074Z" transform="translate(48.734 27.069)" fill="#3552ff"/>
      <path id="Trazado_877877" data-name="Trazado 877877" d="M44.6,60.162l-.311,5.661,3.789.688a4.588,4.588,0,0,0,1.256-3,8.735,8.735,0,0,0-1.616-3.908s-2.524.849-3.118.556" transform="translate(65.825 42.966)" fill="#3552ff"/>
      <path id="Trazado_877878" data-name="Trazado 877878" d="M0,44.565H142.693V29.294s-1.111-6.927-7.924-6.927H8.4s-7.35.024-8.324,6.927Z" transform="translate(0 1.913)" fill="#1a1a1a"/>
      <path id="Trazado_877879" data-name="Trazado 877879" d="M104.112,117.182H71.287c-7.817,0-13.382-5.961-11.015-11.8l14.779-36.5c1.524-3.764,5.982-6.319,11.02-6.319h56.11c7.825,0,13.389,5.961,11.02,11.8l-14.784,36.5c-1.524,3.762-5.98,6.319-11.017,6.319H104.112Z" transform="translate(88.768 46.976)" fill="#3552ff"/>
      <path id="Trazado_877880" data-name="Trazado 877880" d="M54.392,90.562,53.007,87s-1.116,2.041-2.3,2.1Z" transform="translate(75.362 80.143)" fill="#3552ff"/>
      <path id="Trazado_877881" data-name="Trazado 877881" d="M57.641,90.928,47.7,80.9l-2.486,1.947,7.026,7.479Z" transform="translate(67.201 71.86)" fill="#3552ff"/>
      <path id="Trazado_877882" data-name="Trazado 877882" d="M104.8,95.594H43.031a3.187,3.187,0,0,1-3.257-3.3,3.074,3.074,0,0,1,3.081-3.3h86.782v2.06h-23.28a2.4,2.4,0,0,0-1.489,2.689Z" transform="translate(59.119 82.833)" fill="#3552ff"/>
      <path id="Trazado_877883" data-name="Trazado 877883" d="M93.475,84.862l4.11-10.012s.972-1.968-2.253-3.1l-17.059-.085A3.132,3.132,0,0,0,75.6,73.73c-.927,2.072-4.3,10.18-4.3,10.18a2.973,2.973,0,0,0,2.8,3.1,30.956,30.956,0,0,0,6.37,0s-1.745-5.862-1.688-5.991.124-3.488.124-3.488l10.9-.014a17.321,17.321,0,0,1,3.657,7.344" transform="translate(105.981 59.33)" fill="#1a1a1a"/>
      <path id="Trazado_877884" data-name="Trazado 877884" d="M65.923,91.177l9.786,6.039,51.366-.019s1.539-.653,1.887-1.322v3.031s-.358,1.381-1.6,1.45H75.622l-9.316-5.567a1.781,1.781,0,0,1-.375-1.174c.07-.629-.007-2.437-.007-2.437" transform="translate(97.986 85.807)" fill="#3552ff"/>
      <path id="Trazado_877885" data-name="Trazado 877885" d="M119.494,89.953l9.105,5.678s1.1,1.622,0,2.619a2.507,2.507,0,0,1-1.957.839L75.7,99.1l-9.4-5.8s-1.34-2.315,1.047-3.194l23.412-.151.119,4.768,2.678,1.572,10.512-.031.157-6.472Z" transform="translate(97.993 83.925)" fill="#1a1a1a"/>
      <path id="Trazado_877886" data-name="Trazado 877886" d="M11.658,83.659l1.989,3.611S7.715,86.733,7.416,85.7s4.242-2.039,4.242-2.039" transform="translate(11.003 75.605)" fill="#1a1a1a"/>
      <path id="Trazado_877887" data-name="Trazado 877887" d="M17.006,83.659l-1.8,3.611s7.225-.412,7.424-1.777-5.624-1.834-5.624-1.834" transform="translate(22.602 75.605)" fill="#1a1a1a"/>
      <path id="Trazado_877888" data-name="Trazado 877888" d="M7.329,84.524,8.816,96.761H32.983l1.36-12.138s-3.324,1.94-13.508,1.94S7.329,84.524,7.329,84.524" transform="translate(10.894 76.779)" fill="#1a1a1a"/>
      <path id="Trazado_877889" data-name="Trazado 877889" d="M58.347,30.7a3.829,3.829,0,1,1-3.827-3.625A3.732,3.732,0,0,1,58.347,30.7" transform="translate(75.357 8.303)" fill="#fff"/>
      <path id="Trazado_877890" data-name="Trazado 877890" d="M52.4,30.7a3.829,3.829,0,1,1-3.827-3.625A3.732,3.732,0,0,1,52.4,30.7" transform="translate(66.512 8.303)" fill="#3552ff"/>
      <path id="Trazado_877891" data-name="Trazado 877891" d="M46.445,30.7a3.829,3.829,0,1,1-3.827-3.625A3.73,3.73,0,0,1,46.445,30.7" transform="translate(57.667 8.303)" fill="#fff"/>
      <path id="Trazado_877892" data-name="Trazado 877892" d="M74.364,74.162s3.727,1.721,5.609,18.776,1.044,24.581,1.044,24.581l10.515-.031s.149-10.484-.567-21.013-2.2-18.962-5.7-22.328Z" transform="translate(110.532 62.699)" fill="#fff"/>
      <path id="Trazado_877893" data-name="Trazado 877893" d="M74.364,74.154v3.491s1.392,3.121,2.253,10.6,1.445,15.019,1.452,19.228.273,8.471.273,8.471l2.675,1.57s.062-10.149-.477-17.6-1.228-14.757-2.685-18.828-1.569-5.242-3.491-6.925" transform="translate(110.532 62.707)" fill="#1a1a1a"/>
      <path id="Trazado_877894" data-name="Trazado 877894" d="M27.709,85.23s.748-9.673,1.169-16.9.343-15.41-2.235-21.246-7.7-6.029-10.41-3.861-6.686,7.9-7.646,21.717a272.934,272.934,0,0,0,.567,37.127C9.72,108.236,11,119.349,11,119.349L16.232,138.7s.408-8.021.738-12.671a147.43,147.43,0,0,1,3.894-24.322c2.7-11.127,6.845-16.478,6.845-16.478" transform="translate(12.155 19.013)" fill="#3552ff"/>
      <path id="Trazado_877895" data-name="Trazado 877895" d="M101.916,35.008,87.565,62.7s1.621,9.494,6.261,14.84h16.9a33.6,33.6,0,0,0,5.788-14.658Zm.122,29.915a4.374,4.374,0,1,1,4.607-4.367,4.493,4.493,0,0,1-4.607,4.367" transform="translate(130.154 19.066)" fill="#3552ff"/>
      <path id="Trazado_877896" data-name="Trazado 877896" d="M77.75,38a4.893,4.893,0,1,1-4.886-4.631A4.764,4.764,0,0,1,77.75,38" transform="translate(101.042 16.846)" fill="#1a1a1a"/>
      <path id="Trazado_877897" data-name="Trazado 877897" d="M124.348,38a4.893,4.893,0,1,1-4.886-4.631A4.764,4.764,0,0,1,124.348,38" transform="translate(170.303 16.846)" fill="#1a1a1a"/>
      <path id="Trazado_877898" data-name="Trazado 877898" d="M107.612,60.036H91.1a1.78,1.78,0,0,1-1.82-1.725V55.828A1.782,1.782,0,0,1,91.1,54.1h16.509a1.78,1.78,0,0,1,1.82,1.725V58.31a1.779,1.779,0,0,1-1.82,1.725" transform="translate(132.707 35.498)" fill="#1a1a1a"/>
      <path id="Trazado_877899" data-name="Trazado 877899" d="M69.564,91.117a5.7,5.7,0,0,0-7.571-3.427s.07.384,2.29.761,4.319.771,3.784,2.8Z" transform="translate(92.144 80.564)" fill="#1a1a1a"/>
      <path id="Trazado_877900" data-name="Trazado 877900" d="M54.656,55.206v2.871s2.243-1.56,1.069-5.306-4.968-4.287-9.94-4.789c-.157-.016-.318-.028-.477-.042,3.563.427,6.9,4.542,6.549,6.366s-3.844,1.94-6.716,2.277a6.042,6.042,0,0,0-3.871,2.159,6.356,6.356,0,0,1,3.739-1.167c2.782-.042,5.08.082,6.494-.295s2.9-1.049,3.153-2.074" transform="translate(61.341 27.134)" fill="#fff"/>
      <path id="Trazado_877901" data-name="Trazado 877901" d="M50.672,66.078A12.223,12.223,0,0,0,47.9,58.555a16.893,16.893,0,0,0-1.7-1.695c.875,2.246,6.007,16.86-8.252,17.149-.365.007-.7.019-1.027.035a15.532,15.532,0,0,0,7.84.313,8.039,8.039,0,0,0,5.913-8.28" transform="translate(54.877 39.24)" fill="#fff"/>
      <path id="Trazado_877902" data-name="Trazado 877902" d="M45.092,66.162c-.022.021,1.785.349,1.785.349a4.588,4.588,0,0,0,1.256-3A8.735,8.735,0,0,0,46.517,59.6l-1.425.639s2.387,4,0,5.918" transform="translate(67.023 42.965)" fill="#fff"/>
      <path id="Trazado_877903" data-name="Trazado 877903" d="M94.049,90.267H3.61a.332.332,0,1,1,0-.662H94.049a.332.332,0,1,1,0,.662" transform="translate(4.844 83.674)"/>
      <path id="Trazado_877904" data-name="Trazado 877904" d="M125.729,117.705h-9.665a.332.332,0,1,1,0-.662h9.665c4.916,0,9.212-2.454,10.689-6.109l14.781-36.5a6.96,6.96,0,0,0-.917-6.9,11.914,11.914,0,0,0-9.771-4.452H84.4c-4.918,0-9.212,2.454-10.689,6.109l-14.784,36.5a6.965,6.965,0,0,0,.92,6.9,11.921,11.921,0,0,0,9.771,4.452h32.823a.332.332,0,1,1,0,.662H69.616a12.633,12.633,0,0,1-10.348-4.74,7.584,7.584,0,0,1-1-7.516l14.781-36.5c1.584-3.906,6.141-6.531,11.345-6.531H140.51c4.329,0,8.2,1.772,10.346,4.74a7.581,7.581,0,0,1,1,7.514l-14.784,36.5c-1.581,3.906-6.139,6.531-11.343,6.531" transform="translate(85.754 46.784)"/>
      <path id="Trazado_877905" data-name="Trazado 877905" d="M80.584,87.539H74.764A3.81,3.81,0,0,1,71.646,86.1a2.4,2.4,0,0,1-.308-2.336l4.157-10.26a3.608,3.608,0,0,1,3.426-1.989H94.7a3.811,3.811,0,0,1,3.118,1.438,2.377,2.377,0,0,1,.3,2.333L93.968,85.55a.359.359,0,0,1-.455.191.33.33,0,0,1-.2-.429L97.467,75.05a1.731,1.731,0,0,0-.229-1.718,3.132,3.132,0,0,0-2.539-1.15H78.921a2.912,2.912,0,0,0-2.772,1.565L71.994,84.009a1.731,1.731,0,0,0,.231,1.721,3.137,3.137,0,0,0,2.539,1.148h5.821a.332.332,0,1,1,0,.662" transform="translate(105.774 59.132)"/>
      <path id="Trazado_877906" data-name="Trazado 877906" d="M81.261,118.013a.34.34,0,0,1-.351-.332c0-40.887-6.38-43-6.442-43.02a.335.335,0,0,1-.259-.4.351.351,0,0,1,.393-.255c.286.049,7.009,1.65,7.009,43.67a.34.34,0,0,1-.351.332" transform="translate(110.291 62.509)"/>
      <path id="Trazado_877907" data-name="Trazado 877907" d="M78.506,114.426a.341.341,0,0,1-.351-.33C77.983,88.831,75.6,79.349,74.2,75.946a.322.322,0,0,1,.2-.429.354.354,0,0,1,.45.189c1.425,3.444,3.834,13.013,4.008,38.386a.338.338,0,0,1-.348.335Z" transform="translate(110.25 64.527)"/>
      <path id="Trazado_877908" data-name="Trazado 877908" d="M89.591,118.013H78.721a.349.349,0,0,1-.186-.054l-2.6-1.57a.314.314,0,0,1-.107-.455.353.353,0,0,1,.48-.1l2.511,1.518H89.24c-.032-40.571-6.378-42.673-6.442-42.69a.335.335,0,0,1-.256-.4.348.348,0,0,1,.393-.255c.288.049,7.007,1.65,7.007,43.67a.34.34,0,0,1-.351.332" transform="translate(112.63 62.509)"/>
      <path id="Trazado_877909" data-name="Trazado 877909" d="M74.549,78.3a.34.34,0,0,1-.351-.332V74.337a.34.34,0,0,1,.351-.33H85.22a.332.332,0,1,1,0,.662H74.9v3.3a.34.34,0,0,1-.351.332" transform="translate(110.285 62.508)"/>
      <path id="Trazado_877910" data-name="Trazado 877910" d="M127.006,99.526H76.388a2.717,2.717,0,0,1-1.415-.394L67,94.292a2.375,2.375,0,0,1-1.1-2.786,2.555,2.555,0,0,1,2.516-1.787h22.37a.332.332,0,1,1,0,.662H68.412a1.876,1.876,0,0,0-1.845,1.31,1.741,1.741,0,0,0,.811,2.044l7.976,4.841a1.981,1.981,0,0,0,1.034.288h50.617a1.87,1.87,0,0,0,1.842-1.31,1.745,1.745,0,0,0-.808-2.046l-7.976-4.841a2.007,2.007,0,0,0-1.034-.285H104.442a.332.332,0,1,1,0-.662H119.03a2.731,2.731,0,0,1,1.41.389l7.979,4.844a2.378,2.378,0,0,1,1.1,2.788,2.558,2.558,0,0,1-2.516,1.787" transform="translate(97.779 83.829)"/>
      <path id="Trazado_877911" data-name="Trazado 877911" d="M126.966,99.341H76.348a2.756,2.756,0,0,1-1.412-.389l-7.979-4.844a2.458,2.458,0,0,1-1.136-1.475.336.336,0,0,1,.256-.4.349.349,0,0,1,.425.243,1.8,1.8,0,0,0,.835,1.08l7.976,4.841a2,2,0,0,0,1.034.285h50.617a1.856,1.856,0,0,0,1.862-1.384.341.341,0,0,1,.425-.243.332.332,0,0,1,.254.4,2.56,2.56,0,0,1-2.541,1.886" transform="translate(97.819 87.222)"/>
      <path id="Trazado_877912" data-name="Trazado 877912" d="M66.164,94.611a.34.34,0,0,1-.351-.332v-3a.351.351,0,0,1,.7,0v3a.34.34,0,0,1-.351.332" transform="translate(97.822 85.497)"/>
      <path id="Trazado_877913" data-name="Trazado 877913" d="M91.487,96.6a.34.34,0,0,1-.351-.332v-2.9a.351.351,0,0,1,.7,0v2.9a.34.34,0,0,1-.351.332" transform="translate(135.462 88.322)"/>
      <path id="Trazado_877914" data-name="Trazado 877914" d="M42.393,61.339a4.356,4.356,0,0,1-.525-.033,3.835,3.835,0,0,1-3.441-4.247A3.978,3.978,0,0,1,42.91,53.8a4.056,4.056,0,0,1,2.123.917.32.32,0,0,1,.032.469.369.369,0,0,1-.495.026,3.348,3.348,0,0,0-1.753-.754,3.258,3.258,0,0,0-3.7,2.692,3.165,3.165,0,0,0,2.839,3.5,3.345,3.345,0,0,0,1.743-.233.36.36,0,0,1,.462.172.325.325,0,0,1-.179.436,4.134,4.134,0,0,1-1.594.316" transform="translate(57.067 35.044)"/>
      <path id="Trazado_877915" data-name="Trazado 877915" d="M39.837,58.754a.352.352,0,0,1-.291-.146.323.323,0,0,1,.1-.462l2.2-1.4-2.225-1.789a.323.323,0,0,1-.04-.469.361.361,0,0,1,.495-.038l2.576,2.077a.321.321,0,0,1,.122.271.334.334,0,0,1-.154.257L40.031,58.7a.382.382,0,0,1-.194.054" transform="translate(58.693 35.867)"/>
      <path id="Trazado_877916" data-name="Trazado 877916" d="M67.051,10.84c-.167,0-.338-.007-.507-.021A5.783,5.783,0,0,1,62.66,8.905,5.21,5.21,0,0,1,61.342,4.95a5.307,5.307,0,0,1,2.021-3.682A5.9,5.9,0,0,1,67.536.019a5.8,5.8,0,0,1,3.884,1.916A5.21,5.21,0,0,1,72.737,5.89a5.307,5.307,0,0,1-2.021,3.682,5.86,5.86,0,0,1-3.665,1.268M67.031.663a5.151,5.151,0,0,0-3.22,1.115,4.646,4.646,0,0,0-1.77,3.229A4.557,4.557,0,0,0,63.2,8.478a5.211,5.211,0,0,0,7.071.585,4.646,4.646,0,0,0,1.77-3.229,4.557,4.557,0,0,0-1.156-3.472A5.078,5.078,0,0,0,67.473.682c-.149-.014-.3-.019-.443-.019" transform="translate(91.144 0)"/>
      <path id="Trazado_877917" data-name="Trazado 877917" d="M34.388,87.676a.37.37,0,0,1-.177-.045c-1.271-.7-1.813-2.286-1.527-4.469a6.067,6.067,0,0,1,2.725-4.679,6.965,6.965,0,0,1,1.111-.537,17.278,17.278,0,0,1,2.054-.6A8.107,8.107,0,0,0,42.13,75.86a3.45,3.45,0,0,0,.97-3.168,146.932,146.932,0,0,0-2.882-15.528,7.991,7.991,0,0,1,3.953-6.633c5.93-3.781,14.448-2.8,17.837-2.2,2.384.422,5.666,1.27,6.649,3.75a6.781,6.781,0,0,1-.592,6.463.355.355,0,0,1-.485.087.324.324,0,0,1-.094-.462A6.14,6.14,0,0,0,68,52.319c-.855-2.166-3.9-2.939-6.119-3.33-3.3-.589-11.6-1.556-17.32,2.1a7.378,7.378,0,0,0-3.655,5.966,149.567,149.567,0,0,1,2.887,15.556,4.09,4.09,0,0,1-1.186,3.743,8.793,8.793,0,0,1-3.856,1.64,16.48,16.48,0,0,0-1.967.57,6.831,6.831,0,0,0-1,.483,5.439,5.439,0,0,0-2.4,4.2c-.144,1.1-.184,3.062,1.184,3.811a.325.325,0,0,1,.127.455.355.355,0,0,1-.3.165" transform="translate(48.47 26.888)"/>
      <path id="Trazado_877918" data-name="Trazado 877918" d="M28.691,90.227a.362.362,0,0,1-.271-.123.321.321,0,0,1,.05-.467c12.31-9.515,36.888-5.751,37.136-5.711a.334.334,0,0,1,.286.382.351.351,0,0,1-.4.273c-.244-.038-24.513-3.757-36.577,5.572a.381.381,0,0,1-.221.073" transform="translate(42.126 74.928)"/>
      <path id="Trazado_877919" data-name="Trazado 877919" d="M27.022,125.9a.349.349,0,0,1-.311-.179c-7.186-13.171,2.576-36.91,10.415-48.78a68.068,68.068,0,0,1,6.044-8.1c2.128-2.369,5.06-3.934,8.128-5.456a.358.358,0,0,1,.472.139.328.328,0,0,1-.147.45c-3.12,1.549-5.87,3.017-7.922,5.3a68.244,68.244,0,0,0-5.985,8.018c-7.757,11.747-17.437,35.2-10.386,48.127a.321.321,0,0,1-.152.445.343.343,0,0,1-.159.038" transform="translate(35.975 48.041)"/>
      <path id="Trazado_877920" data-name="Trazado 877920" d="M72.773,113.048a.346.346,0,0,1-.351-.313c-.107-1.923-.259-3.868-.408-5.746-.124-1.6-.251-3.2-.353-4.806-.515-8.242-1.5-17.715-6.708-25.87-3.195-5.009-8.876-11.337-17.78-13.053-.724-.141-2.912-.5-2.912-.5l.119-.653s2.2.363,2.931.5c9.152,1.763,14.97,8.238,18.242,13.357,5.288,8.285,6.286,17.854,6.805,26.172.1,1.605.226,3.2.353,4.8.149,1.886.3,3.832.41,5.763a.34.34,0,0,1-.333.349Z" transform="translate(65.79 46.358)"/>
      <path id="Trazado_877921" data-name="Trazado 877921" d="M47.727,72.166c-.321,0-.664-.017-1.027-.045-1.171-.1-2.892-.292-4.09-.521a.33.33,0,0,1-.273-.389.346.346,0,0,1,.413-.262c1.171.224,2.859.417,4.011.509a7.407,7.407,0,0,0,2.82-.2,3.922,3.922,0,0,0,2.6-2.732,22.173,22.173,0,0,0,.758-7.651l-.017-.966c-.032-2.227-.1-6.852-.159-8.568a.342.342,0,0,1,.341-.342.335.335,0,0,1,.361.323c.055,1.718.124,6.35.159,8.577l.015.964a22.661,22.661,0,0,1-.791,7.87A4.555,4.555,0,0,1,49.791,71.9a7.121,7.121,0,0,1-2.064.271" transform="translate(62.916 31.294)"/>
      <path id="Trazado_877922" data-name="Trazado 877922" d="M43.662,53.913c.278-.042.467.073.547,1.025.09,1.065-.2,1.252-.453,1.242s-.5-.337-.492-1.1.032-1.115.4-1.169" transform="translate(64.306 35.231)"/>
      <path id="Trazado_877923" data-name="Trazado 877923" d="M46.457,53.731c.278-.049.47.057.582,1.006.129,1.061-.157,1.259-.408,1.256s-.515-.321-.532-1.082-.007-1.115.358-1.181" transform="translate(68.515 34.98)"/>
      <path id="Trazado_877924" data-name="Trazado 877924" d="M48.274,53.573a.36.36,0,0,1-.229-.08A2.1,2.1,0,0,0,46,53.206a.34.34,0,0,1-.425-.238.328.328,0,0,1,.249-.4,2.789,2.789,0,0,1,2.68.427.318.318,0,0,1,.035.467.352.352,0,0,1-.264.115" transform="translate(67.722 33.223)"/>
      <path id="Trazado_877925" data-name="Trazado 877925" d="M47.1,73.491c-1.944,0-5.112-3.663-5.771-4.448a.322.322,0,0,1,.057-.467.372.372,0,0,1,.492.052c1.634,1.956,4.376,4.521,5.413,4.17,1.181-.436,1.34-4.6,1.161-7.125l.313-5.624a.352.352,0,0,1,.368-.313.338.338,0,0,1,.331.351l-.311,5.581c.082,1.131.39,7.012-1.611,7.747a1.3,1.3,0,0,1-.443.075" transform="translate(61.312 43.141)"/>
      <path id="Trazado_877926" data-name="Trazado 877926" d="M46.6,66.75a.384.384,0,0,1-.2-.059.322.322,0,0,1-.085-.464c2.325-3.1-.741-6.171-.771-6.2a.319.319,0,0,1,.007-.469.366.366,0,0,1,.495.009c.035.035,3.5,3.5.84,7.043a.358.358,0,0,1-.286.141" transform="translate(67.547 42.775)"/>
      <path id="Trazado_877927" data-name="Trazado 877927" d="M40.876,59.246c-.269-.049-.385-.231-.341-.41a11.49,11.49,0,0,1,1.156-3.215c1.939-1.782,4.945-1.846,7.6-1.9,3.195-.068,5.955-.125,6.35-2.93a.333.333,0,0,1,.4-.285.337.337,0,0,1,.3.372c-.477,3.366-3.809,3.436-7.031,3.5-2.645.057-5.383.113-7.128,1.716a13.915,13.915,0,0,0-.96,2.9.347.347,0,0,1-.341.252" transform="translate(60.237 30.606)"/>
      <path id="Trazado_877928" data-name="Trazado 877928" d="M44.784,75.3a26.367,26.367,0,0,1-9.56-2.223.326.326,0,0,1-.164-.443.354.354,0,0,1,.467-.156c.087.04,8.794,3.953,13.9,1.112,2.225-1.235,3.468-3.6,3.692-7.033.293-4.445-2.991-8.2-4.627-9.32a.321.321,0,0,1-.08-.462.369.369,0,0,1,.49-.078c1.735,1.193,5.226,5.181,4.916,9.9-.241,3.665-1.6,6.211-4.04,7.566a10.25,10.25,0,0,1-5,1.134" transform="translate(52.06 38.942)"/>
      <path id="Trazado_877929" data-name="Trazado 877929" d="M34.491,101.912a.342.342,0,0,1-.348-.3c-1.211-11.632,5.6-30.879,5.671-31.072a.348.348,0,0,1,.443-.207.328.328,0,0,1,.221.42c-.07.191-6.835,19.3-5.639,30.8a.334.334,0,0,1-.313.361l-.035,0" transform="translate(50.535 57.494)"/>
      <path id="Trazado_877930" data-name="Trazado 877930" d="M45.971,59.376a2.566,2.566,0,0,1-1.432-.4,3.071,3.071,0,0,1-1.221-2.107.334.334,0,0,1,.313-.361.319.319,0,0,1,.383.3,2.437,2.437,0,0,0,.925,1.629,2.345,2.345,0,0,0,1.9.158.353.353,0,0,1,.43.233.329.329,0,0,1-.246.405,4.225,4.225,0,0,1-1.054.146" transform="translate(64.384 38.748)"/>
      <path id="Trazado_877931" data-name="Trazado 877931" d="M40.4,98.582a.347.347,0,0,1-.341-.255,15.916,15.916,0,0,1-.549-6.633,9.613,9.613,0,0,1,9.458-8.214,6.672,6.672,0,0,1,3.394,1.025.323.323,0,0,1,.132.453.354.354,0,0,1-.477.123,6.027,6.027,0,0,0-3.068-.938A8.885,8.885,0,0,0,40.2,91.8a15.091,15.091,0,0,0,.54,6.373.33.33,0,0,1-.261.4.306.306,0,0,1-.08.009" transform="translate(58.493 75.36)"/>
      <path id="Trazado_877932" data-name="Trazado 877932" d="M51.612,86.161a.346.346,0,0,1-.333-.236.326.326,0,0,1,.229-.412,58.232,58.232,0,0,1,15.808-2.034.333.333,0,1,1,0,.665,57.4,57.4,0,0,0-15.6,2,.4.4,0,0,1-.1.014" transform="translate(76.195 75.361)"/>
      <path id="Trazado_877933" data-name="Trazado 877933" d="M59.1,94.668a.347.347,0,0,1-.348-.288,12.441,12.441,0,0,1,.015-3.894,9.18,9.18,0,0,1,2.775-5.452.366.366,0,0,1,.495,0,.319.319,0,0,1,0,.469,8.538,8.538,0,0,0-2.578,5.086,11.756,11.756,0,0,0-.01,3.7.337.337,0,0,1-.3.372l-.047,0" transform="translate(87.115 77.343)"/>
      <path id="Trazado_877934" data-name="Trazado 877934" d="M49.709,102.593c-.278-.059-.388-.245-.338-.42,5.85-20.079,1.226-32.2,1.179-32.317a.327.327,0,0,1,.206-.427.359.359,0,0,1,.45.193c.05.123,4.756,12.419-1.159,32.724a.35.35,0,0,1-.338.245" transform="translate(73.366 56.27)"/>
      <path id="Trazado_877935" data-name="Trazado 877935" d="M105.007,96.116H43.467a3.641,3.641,0,1,1,0-7.271h86.011a.332.332,0,1,1,0,.662H43.467a2.978,2.978,0,1,0,0,5.947h61.54a.332.332,0,1,1,0,.662" transform="translate(58.909 82.643)"/>
      <path id="Trazado_877936" data-name="Trazado 877936" d="M46.552,62.242a.352.352,0,0,1-.3-.16.324.324,0,0,1,.122-.457,3.919,3.919,0,0,0,1.3-2.416,13.186,13.186,0,0,0-1.9-.247.339.339,0,0,1-.338-.313l-.261-5.412a.343.343,0,0,1,.336-.349.348.348,0,0,1,.365.316l.244,5.112c.343.024.922.068,1.6.167a.732.732,0,0,1,.646.6c.182.886-.955,2.736-1.624,3.114a.357.357,0,0,1-.179.047" transform="translate(67.13 33.848)"/>
      <path id="Trazado_877937" data-name="Trazado 877937" d="M57.559,91.482a.359.359,0,0,1-.261-.111l-9.334-9.84-2.046,1.711,6.728,7.038a.322.322,0,0,1-.025.469.364.364,0,0,1-.495-.021L45.162,83.44a.34.34,0,0,1-.092-.243.328.328,0,0,1,.119-.229l2.571-2.15a.36.36,0,0,1,.49.026l9.568,10.086a.315.315,0,0,1-.025.467.36.36,0,0,1-.234.085" transform="translate(66.99 71.638)"/>
      <path id="Trazado_877938" data-name="Trazado 877938" d="M54.676,91.484a.392.392,0,0,1-.144-.028l-3.772-1.6a.328.328,0,0,1-.177-.441.367.367,0,0,1,.462-.167l3.071,1.3-1.1-3.42a.326.326,0,0,1,.231-.412.356.356,0,0,1,.438.219l1.323,4.115a.324.324,0,0,1-.1.346.359.359,0,0,1-.231.083" transform="translate(75.14 79.742)"/>
      <path id="Trazado_877939" data-name="Trazado 877939" d="M55.086,91.094a24.546,24.546,0,0,1-7.248-1.351.33.33,0,0,1-.221-.422.362.362,0,0,1,.443-.21c6.465,2.053,9.185,1.2,10.057.742a1.706,1.706,0,0,0,.935-1.03c.3-1.228-1.639-1.9-1.942-1.994-.714-.024-7.648-.316-10.107-1.824a.322.322,0,0,1-.107-.457.361.361,0,0,1,.485-.1c2.379,1.457,9.727,1.718,9.8,1.721.209.049,3.028.879,2.553,2.807a2.343,2.343,0,0,1-1.278,1.454,7.181,7.181,0,0,1-3.372.662" transform="translate(69.623 76.604)"/>
      <path id="Trazado_877940" data-name="Trazado 877940" d="M51.98,90.807a28.021,28.021,0,0,1-5.008-.481.331.331,0,0,1-.269-.394.344.344,0,0,1,.413-.257c.07.016,7.084,1.391,10.144-.679a2.931,2.931,0,0,0,1.353-2.143.326.326,0,0,1,.39-.288.335.335,0,0,1,.3.37,3.6,3.6,0,0,1-1.641,2.6,10.6,10.6,0,0,1-5.686,1.268" transform="translate(69.407 79.544)"/>
      <path id="Trazado_877941" data-name="Trazado 877941" d="M55.866,89.1a.354.354,0,0,1-.308-.172,18.112,18.112,0,0,0-3.165-4.085,8.857,8.857,0,0,0-4.018-1.32.34.34,0,0,1-.321-.358.368.368,0,0,1,.375-.306,9.452,9.452,0,0,1,4.408,1.473,18.353,18.353,0,0,1,3.334,4.278.318.318,0,0,1-.139.448.349.349,0,0,1-.167.042" transform="translate(71.424 74.52)"/>
      <path id="Trazado_877942" data-name="Trazado 877942" d="M45.335,86.964a40.236,40.236,0,0,1-4.254-.262.336.336,0,0,1-.3-.372.345.345,0,0,1,.39-.288c1.808.217,6.743.577,7.822-.335a12.5,12.5,0,0,1,5.783-2.614.344.344,0,0,1,.4.283.337.337,0,0,1-.3.377A11.913,11.913,0,0,0,49.458,86.2c-.7.6-2.419.761-4.122.761" transform="translate(60.606 74.832)"/>
      <path id="Trazado_877943" data-name="Trazado 877943" d="M45.833,90.79a.342.342,0,0,1-.348-.3.338.338,0,0,1,.321-.358c.057,0,1.452-.111,2.374-.132.1,0,.261,0,.472,0,4.684.054,7.561-.58,8.566-1.956a.356.356,0,0,1,.487-.082.32.32,0,0,1,.09.46c-1.728,2.362-7.312,2.274-9.155,2.241-.2,0-.358,0-.445,0-.9.021-2.32.13-2.335.132Z" transform="translate(67.605 81.36)"/>
      <path id="Trazado_877944" data-name="Trazado 877944" d="M42.809,54.533a.371.371,0,0,1-.2-.057.324.324,0,0,1-.094-.462,3.829,3.829,0,0,1,4.712-1.233.323.323,0,0,1,.154.445.363.363,0,0,1-.47.148A3.055,3.055,0,0,0,43.1,54.389a.359.359,0,0,1-.291.144" transform="translate(63.11 33.225)"/>
      <path id="Trazado_877945" data-name="Trazado 877945" d="M12.563,121.033a.347.347,0,0,1-.348-.288c-.365-2.562-8.842-62.913,3.64-76.284A7.656,7.656,0,0,1,21.6,41.841a6.353,6.353,0,0,1,4.8,2.126c4.659,5.039,5.567,19.125,2.7,41.855a.339.339,0,0,1-.388.29.334.334,0,0,1-.306-.368c2.807-22.219,1.932-36.517-2.526-41.342a5.537,5.537,0,0,0-4.182-1.9A7.009,7.009,0,0,0,16.379,44.9c-12.27,13.145-3.558,75.131-3.468,75.758a.338.338,0,0,1-.3.372l-.047,0" transform="translate(13.474 18.859)"/>
      <path id="Trazado_877946" data-name="Trazado 877946" d="M19.3,123.034a.373.373,0,0,1-.152-.033.322.322,0,0,1-.162-.443c.256-.5,25.694-50.232,19.948-61.748a3.766,3.766,0,0,0-2.65-2.145A9.808,9.808,0,0,0,27.964,60.4c-14.036,10.352-14.888,56.978-14.9,57.447a.35.35,0,0,1-.7-.009c.027-1.93.865-47.411,15.167-57.963a10.529,10.529,0,0,1,8.911-1.857,4.47,4.47,0,0,1,3.123,2.5c5.885,11.8-18.9,60.266-19.956,62.323a.349.349,0,0,1-.313.186" transform="translate(18.385 40.412)"/>
      <path id="Trazado_877947" data-name="Trazado 877947" d="M26.865,110.448a.347.347,0,0,1-.346-.276c-.075-.434-7.541-42.346-18.645-42.346a4.689,4.689,0,0,0-.676.049,3.061,3.061,0,0,0-2.439,1.706C.7,77.65,19.749,109.316,19.94,109.634a.325.325,0,0,1-.129.455.359.359,0,0,1-.477-.123C18.538,108.652-.09,77.676,4.127,69.3a3.752,3.752,0,0,1,2.959-2.074c12.193-1.831,19.806,41.016,20.125,42.838a.335.335,0,0,1-.288.382l-.057,0" transform="translate(5.212 53.224)"/>
      <path id="Trazado_877948" data-name="Trazado 877948" d="M46.1,62.435H24.544a.332.332,0,1,1,0-.662H46.1a.332.332,0,1,1,0,.662" transform="translate(35.964 45.907)"/>
      <path id="Trazado_877949" data-name="Trazado 877949" d="M69.681,78.176H46.5a.332.332,0,1,1,0-.662H69.681a7.854,7.854,0,0,0,8.046-7.63V50.505a.351.351,0,0,1,.7,0V69.884a8.539,8.539,0,0,1-8.747,8.292" transform="translate(68.593 30.165)"/>
      <path id="Trazado_877950" data-name="Trazado 877950" d="M19.555,113.7H10.206a8.538,8.538,0,0,1-8.747-8.292V32.283a8.539,8.539,0,0,1,8.747-8.292h125.9a8.539,8.539,0,0,1,8.747,8.292v23.16a.35.35,0,0,1-.7,0V32.283a7.856,7.856,0,0,0-8.048-7.627H10.206a7.856,7.856,0,0,0-8.048,7.627v73.13a7.856,7.856,0,0,0,8.048,7.63h9.349a.332.332,0,1,1,0,.662" transform="translate(2.169 4.116)"/>
      <path id="Trazado_877951" data-name="Trazado 877951" d="M125.742,34.077H5.708a.332.332,0,1,1,0-.662H125.742a.332.332,0,1,1,0,.662" transform="translate(7.962 16.905)"/>
      <path id="Trazado_877952" data-name="Trazado 877952" d="M54.733,34.848a3.962,3.962,0,1,1,4.175-3.957,4.074,4.074,0,0,1-4.175,3.957m0-7.25a3.3,3.3,0,1,0,3.473,3.293A3.392,3.392,0,0,0,54.733,27.6" transform="translate(75.148 8.113)"/>
      <path id="Trazado_877953" data-name="Trazado 877953" d="M48.779,34.848a3.962,3.962,0,1,1,4.175-3.957,4.074,4.074,0,0,1-4.175,3.957m0-7.25a3.3,3.3,0,1,0,3.476,3.293A3.392,3.392,0,0,0,48.779,27.6" transform="translate(66.302 8.113)"/>
      <path id="Trazado_877954" data-name="Trazado 877954" d="M42.831,34.848A3.962,3.962,0,1,1,47,30.891a4.074,4.074,0,0,1-4.172,3.957m0-7.25A3.3,3.3,0,1,0,46.3,30.891,3.39,3.39,0,0,0,42.831,27.6" transform="translate(57.457 8.113)"/>
      <path id="Trazado_877955" data-name="Trazado 877955" d="M15.715,51.066a.34.34,0,0,1-.351-.332V33.745a.351.351,0,0,1,.7,0V50.734a.34.34,0,0,1-.351.332" transform="translate(22.837 16.905)"/>
      <path id="Trazado_877956" data-name="Trazado 877956" d="M9.025,97.4a.344.344,0,0,1-.348-.295L7.19,84.668A.338.338,0,0,1,7.5,84.3a.327.327,0,0,1,.385.292L9.373,97.035a.337.337,0,0,1-.308.365l-.04,0" transform="translate(10.684 76.47)"/>
      <path id="Trazado_877957" data-name="Trazado 877957" d="M17.856,97.4a.347.347,0,0,1-.348-.368l1.487-12.443a.331.331,0,0,1,.388-.292.338.338,0,0,1,.308.368L18.2,97.108a.344.344,0,0,1-.348.295" transform="translate(26.021 76.47)"/>
      <path id="Trazado_877958" data-name="Trazado 877958" d="M21.109,88.259c-4.816,0-13.921-.54-13.921-2.574,0-1.075,3.354-1.782,4.794-2.034a.352.352,0,0,1,.41.266.333.333,0,0,1-.281.387C9.3,84.8,7.974,85.457,7.887,85.7c0,.651,4.543,1.9,13.223,1.9s13.22-1.244,13.22-1.912c0-.316-1.139-1.032-5.448-1.5a.336.336,0,0,1-.306-.37.344.344,0,0,1,.388-.29c6.067.662,6.067,1.794,6.067,2.164,0,2.034-9.105,2.574-13.921,2.574" transform="translate(10.684 75.413)"/>
      <path id="Trazado_877959" data-name="Trazado 877959" d="M18.621,102.137a.346.346,0,0,1-.326-.212L5.381,70.2a.324.324,0,0,1,.2-.427.356.356,0,0,1,.455.189l12.912,31.727a.324.324,0,0,1-.2.427.345.345,0,0,1-.127.024" transform="translate(7.963 56.727)"/>
      <path id="Trazado_877960" data-name="Trazado 877960" d="M14.527,112.138a.347.347,0,0,1-.348-.37C16.106,96.018,28.041,62.337,28.16,62a.352.352,0,0,1,.443-.21.326.326,0,0,1,.219.42c-.119.339-12.029,33.955-13.946,49.636a.346.346,0,0,1-.348.292" transform="translate(21.072 45.906)"/>
      <path id="Trazado_877961" data-name="Trazado 877961" d="M12.719,113.057a.345.345,0,0,1-.351-.344l2.287-66.677A.339.339,0,0,1,15,45.718a.344.344,0,0,1,.351.342l-2.285,66.677a.343.343,0,0,1-.351.321" transform="translate(18.383 24.12)"/>
      <path id="Trazado_877962" data-name="Trazado 877962" d="M70.98,92.971a.344.344,0,0,1-.318-.2A10.527,10.527,0,0,0,65.1,86.824a.331.331,0,0,1-.179-.441.37.37,0,0,1,.465-.167,11.155,11.155,0,0,1,5.915,6.293.33.33,0,0,1-.189.436.391.391,0,0,1-.137.026" transform="translate(96.46 79.038)"/>
      <path id="Trazado_877963" data-name="Trazado 877963" d="M70.326,91.673A.347.347,0,0,1,70,91.468,4.932,4.932,0,0,0,68.287,89.2l-.246-.2c-1.236-1.023-4.57-1.631-5.813-.806a.358.358,0,0,1-.487-.08.321.321,0,0,1,.085-.462c1.561-1.032,5.2-.377,6.678.846l.234.191a5.616,5.616,0,0,1,1.912,2.52.322.322,0,0,1-.189.431.34.34,0,0,1-.134.026" transform="translate(91.674 80.338)"/>
      <path id="Trazado_877964" data-name="Trazado 877964" d="M68.669,91.859c-.3-.085-.4-.276-.328-.445a.907.907,0,0,0-.02-.827c-.453-.8-2.223-1.2-3.28-1.428l-.507-.116c-.109-.028-.244-.057-.39-.085-.952-.2-2.389-.493-2.621-1.438a.33.33,0,0,1,.259-.4.346.346,0,0,1,.42.247c.132.535,1.407.8,2.089.938.162.033.3.064.418.09.142.038.308.075.49.113,1.251.276,3.138.7,3.739,1.763A1.517,1.517,0,0,1,69,91.642a.352.352,0,0,1-.328.217" transform="translate(91.431 80.291)"/>
      <path id="Trazado_877965" data-name="Trazado 877965" d="M72.267,93.223a.35.35,0,0,1-.338-.245c-.512-1.758-2.76-5.381-5.423-6.333a.329.329,0,0,1-.206-.429.368.368,0,0,1,.453-.193c2.79,1,5.231,4.643,5.853,6.781a.332.332,0,0,1-.246.408.409.409,0,0,1-.092.012" transform="translate(98.514 78.788)"/>
      <path id="Trazado_877966" data-name="Trazado 877966" d="M73.159,93.508c-.246-.033-.375-.2-.346-.382a6.368,6.368,0,0,0-1.057-3.1,9.9,9.9,0,0,0-4.349-3.8.324.324,0,0,1-.172-.438.358.358,0,0,1,.465-.165,10.513,10.513,0,0,1,4.647,4.052c.293.448,1.353,2.369,1.156,3.552a.347.347,0,0,1-.346.28" transform="translate(99.89 78.232)"/>
      <path id="Trazado_877967" data-name="Trazado 877967" d="M93.9,78.06a.351.351,0,0,1-.281-.137c-4.453-5.758-6.208-14.7-6.226-14.792a.332.332,0,0,1,.03-.207L101.868,35.05a.36.36,0,0,1,.47-.148.324.324,0,0,1,.157.443L88.1,63.117c.209,1.021,1.982,9.117,6.077,14.415a.322.322,0,0,1-.075.464.366.366,0,0,1-.206.064" transform="translate(129.889 18.876)"/>
      <path id="Trazado_877968" data-name="Trazado 877968" d="M102.483,77.891a.366.366,0,0,1-.2-.061.317.317,0,0,1-.082-.462c3.973-5.306,5.415-13.258,5.582-14.243L93.231,35.345a.323.323,0,0,1,.159-.443.356.356,0,0,1,.467.148l14.6,27.874a.318.318,0,0,1,.035.2c-.015.087-1.4,8.865-5.724,14.63a.343.343,0,0,1-.283.141" transform="translate(138.523 18.876)"/>
      <path id="Trazado_877969" data-name="Trazado 877969" d="M107.307,53.574H90.216a.332.332,0,1,1,0-.662h17.091a.332.332,0,1,1,0,.662" transform="translate(133.572 33.882)"/>
      <path id="Trazado_877970" data-name="Trazado 877970" d="M107.389,60.558H91.72A2.457,2.457,0,0,1,89.2,58.17V56.348a2.457,2.457,0,0,1,2.519-2.385h15.669a2.456,2.456,0,0,1,2.514,2.385V58.17a2.456,2.456,0,0,1-2.514,2.388M91.72,54.625A1.774,1.774,0,0,0,89.9,56.348V58.17a1.774,1.774,0,0,0,1.818,1.723h15.669A1.774,1.774,0,0,0,109.2,58.17V56.348a1.774,1.774,0,0,0-1.815-1.723Z" transform="translate(132.585 35.308)"/>
      <path id="Trazado_877971" data-name="Trazado 877971" d="M96.3,53.251a4.705,4.705,0,1,1,4.958-4.7,4.839,4.839,0,0,1-4.958,4.7m0-8.735a4.042,4.042,0,1,0,4.259,4.035A4.155,4.155,0,0,0,96.3,44.516" transform="translate(135.778 21.591)"/>
      <path id="Trazado_877972" data-name="Trazado 877972" d="M93.552,56.046a.34.34,0,0,1-.351-.332V35.443a.351.351,0,0,1,.7,0v20.27a.34.34,0,0,1-.351.332" transform="translate(138.531 19.206)"/>
      <path id="Trazado_877973" data-name="Trazado 877973" d="M101.061,44.175h-.768a.332.332,0,1,1,0-.662h.768a2.061,2.061,0,0,0,2.111-2V35.2a2.061,2.061,0,0,0-2.111-2H93.5a2.062,2.062,0,0,0-2.113,2v6.307a2.062,2.062,0,0,0,2.113,2h.937a.332.332,0,1,1,0,.662H93.5a2.743,2.743,0,0,1-2.812-2.663V35.2A2.744,2.744,0,0,1,93.5,32.539h7.564a2.743,2.743,0,0,1,2.81,2.666v6.307a2.743,2.743,0,0,1-2.81,2.663" transform="translate(134.791 15.716)"/>
      <path id="Trazado_877974" data-name="Trazado 877974" d="M73.073,43.157a4.97,4.97,0,1,1,5.234-4.964,5.11,5.11,0,0,1-5.234,4.964m0-9.263a4.305,4.305,0,1,0,4.535,4.3,4.426,4.426,0,0,0-4.535-4.3" transform="translate(100.834 16.656)"/>
      <path id="Trazado_877975" data-name="Trazado 877975" d="M144.552,91.481h-13a.332.332,0,1,1,0-.662h13a7.855,7.855,0,0,0,8.046-7.63V28.51a7.855,7.855,0,0,0-8.046-7.627H86.873a7.856,7.856,0,0,0-8.048,7.627v54.68a7.856,7.856,0,0,0,8.048,7.63H100.7a.332.332,0,1,1,0,.662H86.873a8.538,8.538,0,0,1-8.747-8.292V28.51a8.537,8.537,0,0,1,8.747-8.29h57.679a8.537,8.537,0,0,1,8.745,8.29v54.68a8.537,8.537,0,0,1-8.745,8.292" transform="translate(116.124 -1.001)"/>
      <path id="Trazado_877976" data-name="Trazado 877976" d="M118.872,35.859H72.305a.332.332,0,1,1,0-.662h46.567a.332.332,0,1,1,0,.662" transform="translate(106.955 19.323)"/>
      <path id="Trazado_877977" data-name="Trazado 877977" d="M119.672,43.157a4.97,4.97,0,1,1,5.234-4.964,5.112,5.112,0,0,1-5.234,4.964m0-9.263a4.305,4.305,0,1,0,4.535,4.3,4.427,4.427,0,0,0-4.535-4.3" transform="translate(170.094 16.656)"/>
      <path id="Trazado_877978" data-name="Trazado 877978" d="M142.622,35.859H96.055a.332.332,0,1,1,0-.662h46.567a.332.332,0,1,1,0,.662" transform="translate(142.256 19.323)"/>
      <path id="Trazado_877979" data-name="Trazado 877979" d="M54.611,37.2H20.142a.332.332,0,1,1,0-.662H54.611a.332.332,0,1,1,0,.662" transform="translate(29.421 21.139)"/>
      <path id="Trazado_877980" data-name="Trazado 877980" d="M54.611,40.237H20.142a.332.332,0,1,1,0-.662H54.611a.332.332,0,1,1,0,.662" transform="translate(29.421 15.784)"/>
      <path id="Trazado_877981" data-name="Trazado 877981" d="M54.611,47.168H20.142a.332.332,0,1,1,0-.662H54.611a.332.332,0,1,1,0,.662" transform="translate(29.421 25.189)"/>
      <path id="Trazado_877982" data-name="Trazado 877982" d="M54.611,50.207H20.142a.332.332,0,1,1,0-.662H54.611a.332.332,0,1,1,0,.662" transform="translate(29.421 29.313)"/>
      <path id="Trazado_877983" data-name="Trazado 877983" d="M121.3,40.324a.351.351,0,0,1-.308-.174c0-.009-.609-1.065-1.79-2.8a.321.321,0,0,1,.1-.457.362.362,0,0,1,.485.1c1.2,1.751,1.793,2.8,1.818,2.84a.325.325,0,0,1-.142.45.373.373,0,0,1-.167.038m-4.085-5.97a.362.362,0,0,1-.286-.139c-.761-1-1.574-2.022-2.422-3.036a.319.319,0,0,1,.057-.464.364.364,0,0,1,.492.054c.85,1.021,1.673,2.051,2.442,3.059a.323.323,0,0,1-.08.464.38.38,0,0,1-.2.061m-5.005-5.994a.36.36,0,0,1-.264-.115c-.88-.959-1.785-1.909-2.693-2.821a.321.321,0,0,1,.012-.469.372.372,0,0,1,.5.012c.913.922,1.825,1.876,2.71,2.845a.32.32,0,0,1-.035.469.374.374,0,0,1-.229.08M106.68,22.81a.348.348,0,0,1-.241-.094c-.957-.877-1.947-1.749-2.946-2.586a.322.322,0,0,1-.032-.469.362.362,0,0,1,.495-.028c1.007.844,2.007,1.723,2.969,2.607a.318.318,0,0,1,.007.469.346.346,0,0,1-.251.1m-6.034-5.06a.348.348,0,0,1-.219-.073c-1.044-.8-2.116-1.574-3.185-2.312a.321.321,0,0,1-.08-.462.366.366,0,0,1,.492-.073c1.077.742,2.158,1.527,3.21,2.331a.321.321,0,0,1,.052.467.354.354,0,0,1-.271.123m-6.512-4.49a.382.382,0,0,1-.194-.054c-1.106-.686-2.255-1.355-3.411-1.994a.323.323,0,0,1-.129-.453.36.36,0,0,1,.48-.12c1.169.641,2.327,1.318,3.446,2.011a.325.325,0,0,1,.1.46.364.364,0,0,1-.293.151m-6.967-3.83a.372.372,0,0,1-.159-.035C85.817,8.816,84.6,8.269,83.39,7.763a.326.326,0,0,1-.179-.436.361.361,0,0,1,.46-.172c1.223.511,2.452,1.065,3.652,1.648a.323.323,0,0,1,.154.448.357.357,0,0,1-.311.179m-7.36-3.081a.383.383,0,0,1-.124-.021C78.435,5.884,77.159,5.472,75.9,5.1a.328.328,0,0,1-.231-.415.349.349,0,0,1,.438-.219c1.275.375,2.566.794,3.829,1.242a.328.328,0,0,1,.2.427.356.356,0,0,1-.328.214M72.12,4.091c-1.387-.313-2.7-.58-3.993-.808a.332.332,0,1,1,.124-.651c1.308.229,2.638.5,3.951.806a.331.331,0,0,1,.259.4.35.35,0,0,1-.341.252" transform="translate(100.832 3.558)"/>
      <path id="Trazado_877984" data-name="Trazado 877984" d="M36.68,50.652a.342.342,0,0,1-.346-.37,33.115,33.115,0,0,1,.806-3.8.349.349,0,0,1,.425-.243.336.336,0,0,1,.256.4,33.809,33.809,0,0,0-.793,3.722.342.342,0,0,1-.348.292M38.6,43.213c-.293-.073-.393-.259-.333-.434.415-1.211.88-2.428,1.382-3.613a.358.358,0,0,1,.455-.186.328.328,0,0,1,.194.431c-.495,1.174-.955,2.378-1.368,3.576a.348.348,0,0,1-.331.226m2.986-7.095a.367.367,0,0,1-.149-.031.324.324,0,0,1-.167-.443c.572-1.138,1.2-2.286,1.857-3.413a.366.366,0,0,1,.475-.13.324.324,0,0,1,.137.453c-.654,1.113-1.271,2.249-1.837,3.375a.348.348,0,0,1-.316.189m3.923-6.67a.347.347,0,0,1-.189-.052.321.321,0,0,1-.1-.457c.733-1.075,1.512-2.138,2.315-3.154a.355.355,0,0,1,.487-.068.318.318,0,0,1,.072.464c-.791,1-1.561,2.055-2.285,3.116a.356.356,0,0,1-.3.151m4.819-6.109a.349.349,0,0,1-.229-.082.32.32,0,0,1-.037-.467c.878-.964,1.8-1.914,2.745-2.821a.366.366,0,0,1,.495,0,.319.319,0,0,1,0,.469c-.932.9-1.845,1.836-2.71,2.791a.365.365,0,0,1-.266.115m5.652-5.426a.359.359,0,0,1-.261-.111.32.32,0,0,1,.032-.469c1.009-.841,2.061-1.662,3.128-2.432a.36.36,0,0,1,.49.061.32.32,0,0,1-.065.464c-1.054.764-2.094,1.572-3.093,2.4a.346.346,0,0,1-.231.082m6.39-4.627a.354.354,0,0,1-.291-.148.318.318,0,0,1,.1-.457c1.111-.7,2.273-1.372,3.449-2.006a.361.361,0,0,1,.477.125.321.321,0,0,1-.132.45c-1.164.629-2.31,1.294-3.409,1.985a.379.379,0,0,1-.194.052M69.356,9.52a.349.349,0,0,1-.313-.186.324.324,0,0,1,.162-.443c1.2-.552,2.439-1.077,3.69-1.565a.35.35,0,0,1,.455.179.322.322,0,0,1-.189.431c-1.238.486-2.466,1.006-3.65,1.551a.356.356,0,0,1-.154.033m7.434-2.9a.349.349,0,0,1-.331-.224.325.325,0,0,1,.216-.422c1.251-.408,2.549-.794,3.856-1.143a.355.355,0,0,1,.43.229.329.329,0,0,1-.241.41C79.428,5.815,78.141,6.2,76.9,6.6a.371.371,0,0,1-.112.019M84.523,4.54a.343.343,0,0,1-.341-.257.333.333,0,0,1,.264-.4c1.3-.28,2.628-.535,3.958-.757a.349.349,0,0,1,.405.269.331.331,0,0,1-.283.384c-1.318.219-2.638.474-3.926.752a.448.448,0,0,1-.077.007M92.445,3.21a.347.347,0,0,1-.348-.288.336.336,0,0,1,.3-.372l.229-.028q.914-.11,1.823-.2a.352.352,0,0,1,.383.295.339.339,0,0,1-.311.365q-.9.088-1.81.2l-.224.026-.045,0" transform="translate(54.002 3.153)"/>
      <path id="Trazado_877985" data-name="Trazado 877985" d="M97.461,113.533a.347.347,0,0,1-.346-.28.333.333,0,0,1,.293-.377,33.753,33.753,0,0,0,3.879-.808.353.353,0,0,1,.433.226.331.331,0,0,1-.239.41,34.264,34.264,0,0,1-3.966.825.215.215,0,0,1-.055,0m7.7-2.124a.346.346,0,0,1-.318-.193.328.328,0,0,1,.172-.441,26.551,26.551,0,0,0,3.476-1.808.362.362,0,0,1,.482.094.318.318,0,0,1-.1.457,26.808,26.808,0,0,1-3.568,1.86.353.353,0,0,1-.144.031m6.691-4.174a.345.345,0,0,1-.256-.108.317.317,0,0,1,.02-.467,25.3,25.3,0,0,0,2.708-2.746.355.355,0,0,1,.492-.049.318.318,0,0,1,.052.464,25.771,25.771,0,0,1-2.78,2.819.34.34,0,0,1-.236.087m5.037-5.911a.385.385,0,0,1-.182-.047.326.326,0,0,1-.122-.455,31.686,31.686,0,0,0,1.84-3.352.354.354,0,0,1,.46-.165.32.32,0,0,1,.177.436,32.477,32.477,0,0,1-1.872,3.42.361.361,0,0,1-.3.163m3.314-6.946c-.3-.073-.4-.262-.333-.434.405-1.155.773-2.383,1.1-3.644a.348.348,0,0,1,.423-.245.335.335,0,0,1,.259.4c-.328,1.28-.7,2.524-1.114,3.7a.347.347,0,0,1-.331.226m1.9-7.406c-.246-.035-.375-.205-.343-.387.209-1.2.39-2.47.535-3.766a.326.326,0,0,1,.385-.295.336.336,0,0,1,.311.363c-.147,1.308-.328,2.59-.542,3.807a.347.347,0,0,1-.346.278m.85-7.6a.343.343,0,0,1-.351-.346c.067-1.235.1-2.513.107-3.8a.351.351,0,0,1,.7,0c-.005,1.3-.042,2.586-.107,3.828a.344.344,0,0,1-.351.316m.032-7.632a.343.343,0,0,1-.351-.318c-.052-1.254-.137-2.531-.244-3.8a.344.344,0,0,1,.323-.358.354.354,0,0,1,.378.306c.107,1.27.189,2.557.241,3.821a.339.339,0,0,1-.333.346Zm-.641-7.613a.343.343,0,0,1-.348-.292c-.157-1.261-.341-2.529-.547-3.764a.331.331,0,0,1,.288-.382.32.32,0,0,1,.4.276c.209,1.247.4,2.522.554,3.792a.336.336,0,0,1-.308.368l-.04,0m-1.263-7.535a.349.349,0,0,1-.343-.264c-.288-1.341-.6-2.619-.912-3.7a.332.332,0,0,1,.246-.408.353.353,0,0,1,.43.233c.313,1.094.632,2.388.922,3.738a.332.332,0,0,1-.273.391.349.349,0,0,1-.07.007" transform="translate(144.343 32.933)"/>
    </g>
  </g>
</svg>
