<svg xmlns="http://www.w3.org/2000/svg" width="60" height="60" viewBox="0 0 60 60">
  <g id="Grupo_1101652" data-name="Grupo 1101652" transform="translate(-180.051 -5152)">
    <rect id="Rectángulo_402785" data-name="Rectángulo 402785" width="60" height="60" transform="translate(180.051 5152)" fill="#5b2ccf"/>
    <g id="Grupo_1101651" data-name="Grupo 1101651" transform="translate(186.051 5153)">
      <path id="Trazado_877584" data-name="Trazado 877584" d="M47.983,14.266H46.1A.633.633,0,0,1,46.1,13h1.88a.633.633,0,1,1,0,1.266Z" transform="translate(-15.95 0)" fill="#fff"/>
      <path id="Trazado_877585" data-name="Trazado 877585" d="M43.15,44.654H5.165A3.169,3.169,0,0,1,2,41.488V16.165A3.169,3.169,0,0,1,5.165,13H19.448a.633.633,0,0,1,0,1.266H5.165a1.9,1.9,0,0,0-1.9,1.9V41.488a1.9,1.9,0,0,0,1.9,1.9H43.15a1.9,1.9,0,0,0,1.9-1.9V16.165a1.9,1.9,0,0,0-1.9-1.9H36.465a.633.633,0,0,1,0-1.266H43.15a3.169,3.169,0,0,1,3.165,3.165V41.488A3.169,3.169,0,0,1,43.15,44.654Z" fill="#fff"/>
      <path id="Trazado_877586" data-name="Trazado 877586" d="M38.035,14.266H36.193a.633.633,0,0,1,0-1.266h1.842a.633.633,0,1,1,0,1.266Z" transform="translate(-12.314 0)" fill="#fff"/>
      <path id="Trazado_877587" data-name="Trazado 877587" d="M42.819,43.057H9.9a1.9,1.9,0,0,1-1.9-1.9V20.9A1.9,1.9,0,0,1,9.9,19h32.92a1.9,1.9,0,0,1,1.9,1.9V41.158A1.9,1.9,0,0,1,42.819,43.057ZM9.9,20.266a.633.633,0,0,0-.633.633V41.158a.633.633,0,0,0,.633.633h32.92a.633.633,0,0,0,.633-.633V20.9a.633.633,0,0,0-.633-.633Z" transform="translate(-2.202 -2.202)" fill="#fff"/>
      <path id="Trazado_877588" data-name="Trazado 877588" d="M24.633,48.194a.633.633,0,0,1-.468-1.059L36.826,33.207a.633.633,0,0,1,.864-.068L50.352,43.268a.633.633,0,0,1-.791.989L37.363,34.5,25.1,47.987a.633.633,0,0,1-.468.207Z" transform="translate(-8.072 -7.338)" fill="#fff"/>
      <path id="Trazado_877589" data-name="Trazado 877589" d="M8.633,43.534A.633.633,0,0,1,8.2,42.443l7.6-7.268a.633.633,0,0,1,.872,0l7.565,7.122a.633.633,0,1,1-.868.922l-7.128-6.711L9.07,43.357a.633.633,0,0,1-.437.177Z" transform="translate(-2.201 -8.072)" fill="#fff"/>
      <path id="Trazado_877590" data-name="Trazado 877590" d="M28.108,31.745a3.158,3.158,0,1,1,3.158-3.158,3.158,3.158,0,0,1-3.158,3.158Zm0-5.051A1.892,1.892,0,1,0,30,28.586a1.892,1.892,0,0,0-1.892-1.892Z" transform="translate(-8.421 -4.56)" fill="#fff"/>
    </g>
  </g>
</svg>
