<svg id="Grupo_1101701" data-name="Grupo 1101701" xmlns="http://www.w3.org/2000/svg" xmlns:xlink="http://www.w3.org/1999/xlink" width="400" height="230.492" viewBox="0 0 400 230.492">
  <defs>
    <clipPath id="clip-path">
      <rect id="Rectángulo_403105" data-name="Rectángulo 403105" width="400" height="230.492" fill="none"/>
    </clipPath>
    <clipPath id="clip-path-2">
      <path id="Trazado_877631" data-name="Trazado 877631" d="M301.159,200.572l4.38,0v-1.6l-4.383-4.376Z" transform="translate(-301.154 -194.59)" fill="none"/>
    </clipPath>
    <clipPath id="clip-path-3">
      <path id="Trazado_877632" data-name="Trazado 877632" d="M301.154,194.587l4.383,4.376h1.6l0-4.38Z" transform="translate(-301.154 -194.583)" fill="none"/>
    </clipPath>
    <clipPath id="clip-path-4">
      <path id="Trazado_877633" data-name="Trazado 877633" d="M408.7,194.514l0,4.38h1.6l4.377-4.382Z" transform="translate(-408.703 -194.51)" fill="none"/>
    </clipPath>
    <clipPath id="clip-path-5">
      <path id="Trazado_877634" data-name="Trazado 877634" d="M411.49,198.892v1.6l4.38,0,0-5.982Z" transform="translate(-411.49 -194.51)" fill="none"/>
    </clipPath>
    <clipPath id="clip-path-6">
      <path id="Trazado_877635" data-name="Trazado 877635" d="M411.557,302.061v1.6l4.383,4.377,0-5.981Z" transform="translate(-411.557 -302.059)" fill="none"/>
    </clipPath>
    <clipPath id="clip-path-7">
      <path id="Trazado_877636" data-name="Trazado 877636" d="M408.777,304.846l0,4.38,5.982,0-4.383-4.377Z" transform="translate(-408.777 -304.845)" fill="none"/>
    </clipPath>
    <clipPath id="clip-path-8">
      <path id="Trazado_877637" data-name="Trazado 877637" d="M305.611,304.914l-4.377,4.383,5.982,0,0-4.38Z" transform="translate(-301.234 -304.913)" fill="none"/>
    </clipPath>
    <clipPath id="clip-path-9">
      <path id="Trazado_877638" data-name="Trazado 877638" d="M301.227,302.135l0,5.982,4.377-4.383v-1.6Z" transform="translate(-301.227 -302.132)" fill="none"/>
    </clipPath>
    <clipPath id="clip-path-11">
      <path id="Trazado_877639" data-name="Trazado 877639" d="M164.412,200.572l4.38,0v-1.6l-4.382-4.376Z" transform="translate(-164.408 -194.59)" fill="none"/>
    </clipPath>
    <clipPath id="clip-path-12">
      <path id="Trazado_877640" data-name="Trazado 877640" d="M164.408,194.587l4.382,4.376h1.6l0-4.38Z" transform="translate(-164.408 -194.583)" fill="none"/>
    </clipPath>
    <clipPath id="clip-path-13">
      <path id="Trazado_877641" data-name="Trazado 877641" d="M271.956,194.514l0,4.38h1.6l4.377-4.382Z" transform="translate(-271.956 -194.51)" fill="none"/>
    </clipPath>
    <clipPath id="clip-path-14">
      <path id="Trazado_877642" data-name="Trazado 877642" d="M274.743,198.892v1.6l4.38,0,0-5.982Z" transform="translate(-274.743 -194.51)" fill="none"/>
    </clipPath>
    <clipPath id="clip-path-15">
      <path id="Trazado_877643" data-name="Trazado 877643" d="M274.81,302.061v1.6l4.382,4.377,0-5.981Z" transform="translate(-274.81 -302.059)" fill="none"/>
    </clipPath>
    <clipPath id="clip-path-16">
      <path id="Trazado_877644" data-name="Trazado 877644" d="M272.03,304.846l0,4.38,5.981,0-4.382-4.377Z" transform="translate(-272.03 -304.845)" fill="none"/>
    </clipPath>
    <clipPath id="clip-path-17">
      <path id="Trazado_877645" data-name="Trazado 877645" d="M168.864,304.914l-4.376,4.383,5.981,0,0-4.38Z" transform="translate(-164.488 -304.913)" fill="none"/>
    </clipPath>
    <clipPath id="clip-path-18">
      <path id="Trazado_877646" data-name="Trazado 877646" d="M164.48,302.135l0,5.982,4.376-4.383v-1.6Z" transform="translate(-164.48 -302.132)" fill="none"/>
    </clipPath>
  </defs>
  <g id="Grupo_1101664" data-name="Grupo 1101664">
    <g id="Grupo_1101663" data-name="Grupo 1101663" clip-path="url(#clip-path)">
      <path id="Trazado_877622" data-name="Trazado 877622" d="M354.918,193.766c-1.625.9-3.364,1.767-5.2,2.611-8.651,4.005-19.461,7.487-31.839,10.482-.766.187-1.544.373-2.327.554l-.2.047c-1.469.347-2.966.684-4.475,1.011-13.621,2.974-28.855,5.409-45,7.352l-.916.109c-.075.01-.144.016-.219.026-21.558,2.554-44.711,4.238-67.778,5.12q-5.443.21-10.868.357c-.611.016-1.221.036-1.832.047-.536.016-1.066.031-1.6.041q-3.482.086-6.946.145c-.87.021-1.739.031-2.609.047-.657.01-1.313.021-1.976.026-5.685.078-11.329.1-16.9.088-47.677-.15-90.3-3.663-111.735-9.7-61.95-17.441-48.294-60.39-9.1-69.116S18.384,83.56,80.878,50.1C118.84,29.779,158.605,73.985,191.5,38.636,240.566-14.1,283.967-5.487,311.318,21.747c30.823,30.689,6.094,68.109,39.1,66.2,49.461-2.858,78.987,64.35,4.5,105.818" transform="translate(0 -0.051)" fill="#ebeeff"/>
      <path id="Trazado_877623" data-name="Trazado 877623" d="M388.931,377.909c0,4.977-75.883,9.013-169.49,9.013s-169.49-4.035-169.49-9.013,75.884-9.013,169.49-9.013,169.49,4.035,169.49,9.013" transform="translate(-21.182 -156.429)" fill="#d1d8ff"/>
      <path id="Trazado_877624" data-name="Trazado 877624" d="M137.09,274.007l-12.73,8.831c-25.281,2.376-42.736-6.368-53.91-15.787l4.923-10.932-10.762,5.416a62.107,62.107,0,0,1-10.4-14.351c46.545-24.409,81.668,26.886,82.881,26.823" transform="translate(-22.987 -102.024)" fill="#469e9d"/>
      <path id="Trazado_877625" data-name="Trazado 877625" d="M72.5,257.279c.7-.214,20.658,2.814,46.444,20.348" transform="translate(-30.744 -109.094)" fill="none" stroke="#fff" stroke-linecap="round" stroke-miterlimit="10" stroke-width="3"/>
      <path id="Trazado_877626" data-name="Trazado 877626" d="M136.355,219.438l-17.129,2.041c-52.658-21.9-50.394-71.661-50.394-71.661a64.123,64.123,0,0,1,18.218,2.6c-2.387,6.814,1.248,9.646,4.659,9.646,3.081,0,4.647-2.576,3.573-6.468,34.6,16.623,40.062,63.375,41.074,63.846" transform="translate(-29.182 -63.53)" fill="#55c0bf"/>
      <path id="Trazado_877627" data-name="Trazado 877627" d="M96.508,184.9s6.55,13.84,28.484,32.1" transform="translate(-40.924 -78.408)" fill="none" stroke="#fff" stroke-linecap="round" stroke-miterlimit="10" stroke-width="3"/>
      <circle id="Elipse_11615" data-name="Elipse 11615" cx="4.532" cy="4.532" r="4.532" transform="translate(25.646 191.729)" fill="none" stroke="#fff" stroke-linecap="round" stroke-miterlimit="10" stroke-width="3"/>
      <circle id="Elipse_11616" data-name="Elipse 11616" cx="4.532" cy="4.532" r="4.532" transform="matrix(0.16, -0.987, 0.987, 0.16, 361.292, 126.33)" fill="none" stroke="#fff" stroke-linecap="round" stroke-miterlimit="10" stroke-width="3"/>
      <line id="Línea_726" data-name="Línea 726" y2="6.576" transform="translate(349.378 107.921)" fill="none" stroke="#fff" stroke-linecap="round" stroke-miterlimit="10" stroke-width="3"/>
      <line id="Línea_727" data-name="Línea 727" x1="6.576" transform="translate(346.09 111.209)" fill="none" stroke="#fff" stroke-linecap="round" stroke-miterlimit="10" stroke-width="3"/>
      <line id="Línea_728" data-name="Línea 728" y2="7.056" transform="translate(51.17 181.956)" fill="none" stroke="#fff" stroke-linecap="round" stroke-miterlimit="10" stroke-width="3"/>
      <line id="Línea_729" data-name="Línea 729" x1="7.057" transform="translate(47.642 185.484)" fill="none" stroke="#fff" stroke-linecap="round" stroke-miterlimit="10" stroke-width="3"/>
      <path id="Trazado_877628" data-name="Trazado 877628" d="M294.928,375.777H245.017a2.567,2.567,0,0,1,0-5.133h49.911a2.567,2.567,0,1,1,0,5.133" transform="translate(-102.811 -157.17)" fill="#494f70"/>
      <rect id="Rectángulo_403076" data-name="Rectángulo 403076" width="36.06" height="21.608" transform="translate(149.132 195.273)" fill="#373b54"/>
      <path id="Trazado_877629" data-name="Trazado 877629" d="M309.219,263.122H145.651a5.415,5.415,0,0,1-5.415-5.415V140.394a5.415,5.415,0,0,1,5.415-5.415H309.219a5.415,5.415,0,0,1,5.415,5.415V257.707a5.415,5.415,0,0,1-5.415,5.415" transform="translate(-59.467 -57.237)" fill="#373b54"/>
      <path id="Trazado_877630" data-name="Trazado 877630" d="M310.882,249.531H152.926a2.03,2.03,0,0,1-2.03-2.03V147.25a2.03,2.03,0,0,1,2.03-2.03H310.882a2.03,2.03,0,0,1,2.03,2.03V247.5a2.03,2.03,0,0,1-2.03,2.03" transform="translate(-63.987 -61.58)" fill="#494f70"/>
      <rect id="Rectángulo_403077" data-name="Rectángulo 403077" width="1.148" height="3.629" transform="translate(175.043 168.249)" fill="#fff"/>
      <rect id="Rectángulo_403078" data-name="Rectángulo 403078" width="1.148" height="3.629" transform="translate(175.038 160.255)" fill="#fff"/>
      <rect id="Rectángulo_403079" data-name="Rectángulo 403079" width="1.148" height="3.629" transform="translate(175.032 152.26)" fill="#fff"/>
      <rect id="Rectángulo_403080" data-name="Rectángulo 403080" width="1.148" height="3.629" transform="translate(175.027 144.266)" fill="#fff"/>
      <rect id="Rectángulo_403081" data-name="Rectángulo 403081" width="1.147" height="3.629" transform="translate(175.022 136.271)" fill="#fff"/>
      <rect id="Rectángulo_403082" data-name="Rectángulo 403082" width="1.147" height="3.629" transform="translate(175.016 128.277)" fill="#fff"/>
      <rect id="Rectángulo_403083" data-name="Rectángulo 403083" width="1.148" height="3.629" transform="translate(175.011 120.283)" fill="#fff"/>
      <rect id="Rectángulo_403084" data-name="Rectángulo 403084" width="3.629" height="1.148" transform="translate(181.572 113.621)" fill="#fff"/>
      <rect id="Rectángulo_403085" data-name="Rectángulo 403085" width="3.629" height="1.148" transform="translate(189.566 113.615)" fill="#fff"/>
      <rect id="Rectángulo_403086" data-name="Rectángulo 403086" width="3.629" height="1.148" transform="translate(197.561 113.61)" fill="#fff"/>
      <rect id="Rectángulo_403087" data-name="Rectángulo 403087" width="3.629" height="1.147" transform="translate(205.555 113.605)" fill="#fff"/>
      <rect id="Rectángulo_403088" data-name="Rectángulo 403088" width="3.629" height="1.147" transform="translate(213.55 113.599)" fill="#fff"/>
      <rect id="Rectángulo_403089" data-name="Rectángulo 403089" width="3.629" height="1.147" transform="translate(221.544 113.594)" fill="#fff"/>
      <rect id="Rectángulo_403090" data-name="Rectángulo 403090" width="3.629" height="1.148" transform="translate(229.538 113.588)" fill="#fff"/>
      <rect id="Rectángulo_403091" data-name="Rectángulo 403091" width="1.148" height="3.629" transform="translate(238.682 120.15)" fill="#fff"/>
      <rect id="Rectángulo_403092" data-name="Rectángulo 403092" width="1.148" height="3.629" transform="translate(238.687 128.144)" fill="#fff"/>
      <rect id="Rectángulo_403093" data-name="Rectángulo 403093" width="1.148" height="3.629" transform="translate(238.693 136.138)" fill="#fff"/>
      <rect id="Rectángulo_403094" data-name="Rectángulo 403094" width="1.148" height="3.629" transform="translate(238.698 144.133)" fill="#fff"/>
      <rect id="Rectángulo_403095" data-name="Rectángulo 403095" width="1.148" height="3.629" transform="translate(238.703 152.127)" fill="#fff"/>
      <rect id="Rectángulo_403096" data-name="Rectángulo 403096" width="1.148" height="3.629" transform="translate(238.709 160.121)" fill="#fff"/>
      <rect id="Rectángulo_403097" data-name="Rectángulo 403097" width="1.148" height="3.629" transform="translate(238.714 168.116)" fill="#fff"/>
      <rect id="Rectángulo_403098" data-name="Rectángulo 403098" width="3.629" height="1.147" transform="translate(229.671 177.26)" fill="#fff"/>
      <rect id="Rectángulo_403099" data-name="Rectángulo 403099" width="3.629" height="1.148" transform="translate(221.677 177.265)" fill="#fff"/>
      <rect id="Rectángulo_403100" data-name="Rectángulo 403100" width="3.629" height="1.148" transform="translate(213.683 177.27)" fill="#fff"/>
      <rect id="Rectángulo_403101" data-name="Rectángulo 403101" width="3.629" height="1.148" transform="translate(205.688 177.276)" fill="#fff"/>
      <rect id="Rectángulo_403102" data-name="Rectángulo 403102" width="3.629" height="1.148" transform="translate(197.694 177.281)" fill="#fff"/>
      <rect id="Rectángulo_403103" data-name="Rectángulo 403103" width="3.629" height="1.148" transform="translate(189.699 177.287)" fill="#fff"/>
      <rect id="Rectángulo_403104" data-name="Rectángulo 403104" width="3.629" height="1.148" transform="translate(181.705 177.292)" fill="#fff"/>
    </g>
  </g>
  <g id="Grupo_1101666" data-name="Grupo 1101666" transform="translate(173.451 112.075)">
    <g id="Grupo_1101665" data-name="Grupo 1101665" clip-path="url(#clip-path-2)">
      <rect id="Rectángulo_403106" data-name="Rectángulo 403106" width="1.147" height="3.443" transform="translate(1.555 0.509)" fill="#fff"/>
    </g>
  </g>
  <g id="Grupo_1101668" data-name="Grupo 1101668" transform="translate(173.451 112.071)">
    <g id="Grupo_1101667" data-name="Grupo 1101667" clip-path="url(#clip-path-3)">
      <rect id="Rectángulo_403107" data-name="Rectángulo 403107" width="3.443" height="1.147" transform="translate(0.427 1.556)" fill="#fff"/>
    </g>
  </g>
  <g id="Grupo_1101670" data-name="Grupo 1101670" transform="translate(235.394 112.029)">
    <g id="Grupo_1101669" data-name="Grupo 1101669" clip-path="url(#clip-path-4)">
      <rect id="Rectángulo_403108" data-name="Rectángulo 403108" width="3.443" height="1.147" transform="translate(2.029 1.555)" fill="#fff"/>
    </g>
  </g>
  <g id="Grupo_1101672" data-name="Grupo 1101672" transform="translate(236.999 112.029)">
    <g id="Grupo_1101671" data-name="Grupo 1101671" clip-path="url(#clip-path-5)">
      <rect id="Rectángulo_403109" data-name="Rectángulo 403109" width="1.147" height="3.443" transform="translate(1.678 0.427)" fill="#fff"/>
    </g>
  </g>
  <g id="Grupo_1101674" data-name="Grupo 1101674" transform="translate(237.038 173.972)">
    <g id="Grupo_1101673" data-name="Grupo 1101673" clip-path="url(#clip-path-6)">
      <rect id="Rectángulo_403110" data-name="Rectángulo 403110" width="1.148" height="3.443" transform="translate(1.682 2.029)" fill="#fff"/>
    </g>
  </g>
  <g id="Grupo_1101676" data-name="Grupo 1101676" transform="translate(235.436 175.576)">
    <g id="Grupo_1101675" data-name="Grupo 1101675" clip-path="url(#clip-path-7)">
      <rect id="Rectángulo_403111" data-name="Rectángulo 403111" width="3.443" height="1.148" transform="translate(2.115 1.678)" fill="#fff"/>
    </g>
  </g>
  <g id="Grupo_1101678" data-name="Grupo 1101678" transform="translate(173.497 175.616)">
    <g id="Grupo_1101677" data-name="Grupo 1101677" clip-path="url(#clip-path-8)">
      <rect id="Rectángulo_403112" data-name="Rectángulo 403112" width="3.443" height="1.148" transform="translate(0.51 1.682)" fill="#fff"/>
    </g>
  </g>
  <g id="Grupo_1101680" data-name="Grupo 1101680" transform="translate(173.493 174.014)">
    <g id="Grupo_1101679" data-name="Grupo 1101679" clip-path="url(#clip-path-9)">
      <rect id="Rectángulo_403113" data-name="Rectángulo 403113" width="1.148" height="3.443" transform="translate(1.555 2.115)" fill="#fff"/>
    </g>
  </g>
  <g id="Grupo_1101682" data-name="Grupo 1101682">
    <g id="Grupo_1101681" data-name="Grupo 1101681" clip-path="url(#clip-path)">
      <rect id="Rectángulo_403114" data-name="Rectángulo 403114" width="1.148" height="3.629" transform="translate(96.283 168.249)" fill="#fff"/>
      <rect id="Rectángulo_403115" data-name="Rectángulo 403115" width="1.148" height="3.629" transform="translate(96.278 160.255)" fill="#fff"/>
      <rect id="Rectángulo_403116" data-name="Rectángulo 403116" width="1.148" height="3.629" transform="translate(96.272 152.26)" fill="#fff"/>
      <rect id="Rectángulo_403117" data-name="Rectángulo 403117" width="1.148" height="3.629" transform="translate(96.267 144.266)" fill="#fff"/>
      <rect id="Rectángulo_403118" data-name="Rectángulo 403118" width="1.147" height="3.629" transform="translate(96.262 136.271)" fill="#fff"/>
      <rect id="Rectángulo_403119" data-name="Rectángulo 403119" width="1.148" height="3.629" transform="translate(96.256 128.277)" fill="#fff"/>
      <rect id="Rectángulo_403120" data-name="Rectángulo 403120" width="1.148" height="3.629" transform="translate(96.251 120.283)" fill="#fff"/>
      <rect id="Rectángulo_403121" data-name="Rectángulo 403121" width="3.629" height="1.148" transform="translate(102.812 113.621)" fill="#fff"/>
      <rect id="Rectángulo_403122" data-name="Rectángulo 403122" width="3.629" height="1.148" transform="translate(110.806 113.615)" fill="#fff"/>
      <rect id="Rectángulo_403123" data-name="Rectángulo 403123" width="3.629" height="1.148" transform="translate(118.801 113.61)" fill="#fff"/>
      <rect id="Rectángulo_403124" data-name="Rectángulo 403124" width="3.629" height="1.147" transform="translate(126.795 113.605)" fill="#fff"/>
      <rect id="Rectángulo_403125" data-name="Rectángulo 403125" width="3.629" height="1.147" transform="translate(134.789 113.599)" fill="#fff"/>
      <rect id="Rectángulo_403126" data-name="Rectángulo 403126" width="3.629" height="1.147" transform="translate(142.784 113.594)" fill="#fff"/>
      <rect id="Rectángulo_403127" data-name="Rectángulo 403127" width="3.629" height="1.148" transform="translate(150.778 113.588)" fill="#fff"/>
      <rect id="Rectángulo_403128" data-name="Rectángulo 403128" width="1.148" height="3.629" transform="translate(159.922 120.15)" fill="#fff"/>
      <rect id="Rectángulo_403129" data-name="Rectángulo 403129" width="1.148" height="3.629" transform="translate(159.927 128.144)" fill="#fff"/>
      <rect id="Rectángulo_403130" data-name="Rectángulo 403130" width="1.148" height="3.629" transform="translate(159.933 136.138)" fill="#fff"/>
      <rect id="Rectángulo_403131" data-name="Rectángulo 403131" width="1.148" height="3.629" transform="translate(159.938 144.133)" fill="#fff"/>
      <rect id="Rectángulo_403132" data-name="Rectángulo 403132" width="1.148" height="3.629" transform="translate(159.943 152.127)" fill="#fff"/>
      <rect id="Rectángulo_403133" data-name="Rectángulo 403133" width="1.148" height="3.629" transform="translate(159.949 160.121)" fill="#fff"/>
      <rect id="Rectángulo_403134" data-name="Rectángulo 403134" width="1.148" height="3.629" transform="translate(159.954 168.116)" fill="#fff"/>
      <rect id="Rectángulo_403135" data-name="Rectángulo 403135" width="3.629" height="1.147" transform="translate(150.911 177.26)" fill="#fff"/>
      <rect id="Rectángulo_403136" data-name="Rectángulo 403136" width="3.629" height="1.148" transform="translate(142.917 177.265)" fill="#fff"/>
      <rect id="Rectángulo_403137" data-name="Rectángulo 403137" width="3.629" height="1.148" transform="translate(134.923 177.27)" fill="#fff"/>
      <rect id="Rectángulo_403138" data-name="Rectángulo 403138" width="3.629" height="1.148" transform="translate(126.928 177.276)" fill="#fff"/>
      <rect id="Rectángulo_403139" data-name="Rectángulo 403139" width="3.629" height="1.148" transform="translate(118.934 177.281)" fill="#fff"/>
      <rect id="Rectángulo_403140" data-name="Rectángulo 403140" width="3.629" height="1.148" transform="translate(110.939 177.287)" fill="#fff"/>
      <rect id="Rectángulo_403141" data-name="Rectángulo 403141" width="3.629" height="1.148" transform="translate(102.945 177.292)" fill="#fff"/>
    </g>
  </g>
  <g id="Grupo_1101684" data-name="Grupo 1101684" transform="translate(94.691 112.075)">
    <g id="Grupo_1101683" data-name="Grupo 1101683" clip-path="url(#clip-path-11)">
      <rect id="Rectángulo_403143" data-name="Rectángulo 403143" width="1.147" height="3.443" transform="translate(1.554 0.509)" fill="#fff"/>
    </g>
  </g>
  <g id="Grupo_1101686" data-name="Grupo 1101686" transform="translate(94.691 112.071)">
    <g id="Grupo_1101685" data-name="Grupo 1101685" clip-path="url(#clip-path-12)">
      <rect id="Rectángulo_403144" data-name="Rectángulo 403144" width="3.443" height="1.147" transform="translate(0.427 1.556)" fill="#fff"/>
    </g>
  </g>
  <g id="Grupo_1101688" data-name="Grupo 1101688" transform="translate(156.634 112.029)">
    <g id="Grupo_1101687" data-name="Grupo 1101687" clip-path="url(#clip-path-13)">
      <rect id="Rectángulo_403145" data-name="Rectángulo 403145" width="3.443" height="1.147" transform="translate(2.029 1.555)" fill="#fff"/>
    </g>
  </g>
  <g id="Grupo_1101690" data-name="Grupo 1101690" transform="translate(158.239 112.029)">
    <g id="Grupo_1101689" data-name="Grupo 1101689" clip-path="url(#clip-path-14)">
      <rect id="Rectángulo_403146" data-name="Rectángulo 403146" width="1.147" height="3.443" transform="translate(1.677 0.427)" fill="#fff"/>
    </g>
  </g>
  <g id="Grupo_1101692" data-name="Grupo 1101692" transform="translate(158.278 173.972)">
    <g id="Grupo_1101691" data-name="Grupo 1101691" clip-path="url(#clip-path-15)">
      <rect id="Rectángulo_403147" data-name="Rectángulo 403147" width="1.148" height="3.443" transform="translate(1.682 2.029)" fill="#fff"/>
    </g>
  </g>
  <g id="Grupo_1101694" data-name="Grupo 1101694" transform="translate(156.677 175.576)">
    <g id="Grupo_1101693" data-name="Grupo 1101693" clip-path="url(#clip-path-16)">
      <rect id="Rectángulo_403148" data-name="Rectángulo 403148" width="3.443" height="1.148" transform="translate(2.115 1.678)" fill="#fff"/>
    </g>
  </g>
  <g id="Grupo_1101696" data-name="Grupo 1101696" transform="translate(94.737 175.616)">
    <g id="Grupo_1101695" data-name="Grupo 1101695" clip-path="url(#clip-path-17)">
      <rect id="Rectángulo_403149" data-name="Rectángulo 403149" width="3.443" height="1.148" transform="translate(0.509 1.682)" fill="#fff"/>
    </g>
  </g>
  <g id="Grupo_1101698" data-name="Grupo 1101698" transform="translate(94.733 174.014)">
    <g id="Grupo_1101697" data-name="Grupo 1101697" clip-path="url(#clip-path-18)">
      <rect id="Rectángulo_403150" data-name="Rectángulo 403150" width="1.148" height="3.443" transform="translate(1.556 2.115)" fill="#fff"/>
    </g>
  </g>
  <g id="Grupo_1101700" data-name="Grupo 1101700">
    <g id="Grupo_1101699" data-name="Grupo 1101699" clip-path="url(#clip-path)">
      <path id="Trazado_877647" data-name="Trazado 877647" d="M321.54,277.4V259.128s5.508-6.583,17.848,2.073,18.562,2.373,25.349,0l1.768-.721.292,17.032Z" transform="translate(-136.348 -108.866)" fill="#373b54"/>
      <path id="Trazado_877648" data-name="Trazado 877648" d="M363.264,233.506a7.145,7.145,0,1,0,7.145-7.145,7.145,7.145,0,0,0-7.145,7.145" transform="translate(-154.041 -95.988)" fill="#373b54"/>
      <rect id="Rectángulo_403151" data-name="Rectángulo 403151" width="72.014" height="72.014" transform="matrix(0.723, -0.691, 0.691, 0.723, 90.398, 112.425)" fill="#fff"/>
      <rect id="Rectángulo_403152" data-name="Rectángulo 403152" width="52.004" height="52.004" transform="translate(104.545 112.746) rotate(-43.701)" fill="#f3c700"/>
      <path id="Trazado_877649" data-name="Trazado 877649" d="M229.258,211.44l-11.812,11.288-35.929-37.6,15.1-14.429c4.287.938,8.455,3.035,10.463,7.373,4.99,10.778-4.237,20.407,6.869,22.916,7.3,1.647,12.835,5.959,15.311,10.448" transform="translate(-76.972 -72.386)" fill="#d64d8b"/>
      <path id="Trazado_877650" data-name="Trazado 877650" d="M259.585,193.716a7.755,7.755,0,1,0,7.929-7.577,7.754,7.754,0,0,0-7.929,7.577" transform="translate(-110.075 -78.931)" fill="#fff"/>
      <path id="Trazado_877651" data-name="Trazado 877651" d="M537.2,152.958s-3.881,1.21-6.88-4.613c-3.743-7.267-20.218,10.961-4.744,11.791,6.611.354,14.858,5.613,14.858,5.613s8.477-6.667,4.382-11.582c-1.8-2.164-4.8-.685-4.8-.685s3.726-3.034,2.29-3.792-3.8,3.511-3.8,3.511-1.1-4.317-2.406-2.968c-1.067,1.105,1.1,2.724,1.1,2.724" transform="translate(-220.106 -62.181)" fill="#373b54"/>
      <path id="Trazado_877652" data-name="Trazado 877652" d="M509.4,186.77s-21.417,1.9-29.558-20.222a3.821,3.821,0,0,0-3.059-2.456c-3.516-.5-4.916,2.342-11.154,4-4.918,1.3,1.583,8.569,3.512,11.223,12.874,17.715,17.146,15.869,38,17.01Z" transform="translate(-196.686 -69.558)" fill="#d64d8b"/>
      <path id="Trazado_877653" data-name="Trazado 877653" d="M522.376,263.013,505.4,325.372s10.5,1.852,29.636,1.544L533.8,287.4Z" transform="translate(-214.312 -111.53)" fill="#494f70"/>
      <path id="Trazado_877654" data-name="Trazado 877654" d="M542.925,261.685l-1.4,61.539s10.127,9.268,28.238,3.069l-8.449-44.934Z" transform="translate(-229.632 -110.967)" fill="#494f70"/>
      <path id="Trazado_877655" data-name="Trazado 877655" d="M530.848,376.114h-38c.244-1.57.742-4.75,1.795-6.092,3.305-4.214,6.55-3.119,6.55-3.119l28.518,4.013s1.212,5.115,1.138,5.2" transform="translate(-208.991 -155.53)" fill="#373b54"/>
      <path id="Trazado_877656" data-name="Trazado 877656" d="M564.052,376H527.145a.457.457,0,0,1-.45-.556,15.469,15.469,0,0,1,2.331-5.272,10.573,10.573,0,0,1,2.7-2.341,8.55,8.55,0,0,1,5.76-1.1l25.656,4.02a.456.456,0,0,1,.375.347c.2.845.764,3.262.983,4.354a.457.457,0,0,1-.45.546" transform="translate(-223.339 -155.468)" fill="#373b54"/>
      <path id="Trazado_877657" data-name="Trazado 877657" d="M540.844,322.745c-.562.375,1.686,30.725,1.686,30.725" transform="translate(-229.305 -136.859)" fill="#373b54"/>
      <path id="Trazado_877658" data-name="Trazado 877658" d="M540.844,322.745c-.562.375,1.686,30.725,1.686,30.725" transform="translate(-229.305 -136.859)" fill="none" stroke="#373b54" stroke-miterlimit="10" stroke-width="1"/>
      <rect id="Rectángulo_403153" data-name="Rectángulo 403153" width="7.689" height="15.282" transform="matrix(0.983, -0.184, 0.184, 0.983, 308.021, 106.889)" fill="#fbaf7b"/>
      <path id="Trazado_877659" data-name="Trazado 877659" d="M542.448,183.126l1,5.357a23.563,23.563,0,0,1-6.718,5.892l-1.723-9.186c.14-.256.282-.506.438-.75Z" transform="translate(-226.87 -77.654)" fill="#fb8862"/>
      <path id="Trazado_877660" data-name="Trazado 877660" d="M528.575,159.712s-6.9,9.8-3.316,19.707a2.066,2.066,0,0,0,1.518,1.323c2.535.529,8.753,1.466,10.582-1.574,2.317-3.849,6.491-13.455,3.019-16.335s-11.8-3.122-11.8-3.122" transform="translate(-222.297 -67.725)" fill="#fbaf7b"/>
      <path id="Trazado_877661" data-name="Trazado 877661" d="M547.018,180.333s5.185-2.435,7.16.843-5.734,6.56-6.766,3.392-.395-4.234-.395-4.234" transform="translate(-231.879 -76.101)" fill="#fbaf7b"/>
      <path id="Trazado_877662" data-name="Trazado 877662" d="M526.377,165.162s.94-3.084,2.416-1.734,2.373,1.67,7.7.681c6.122-1.136,3.365,7.859,3.365,7.859s1.972-2.222,3.672-1.565c0,0,1.363-9.813-2.3-11.158s-12.29-2.543-13.39-.658-1.465,6.575-1.465,6.575" transform="translate(-223.209 -66.835)" fill="#373b54"/>
      <path id="Trazado_877663" data-name="Trazado 877663" d="M528.731,175.464c-.179.554-.536.935-.8.85s-.329-.6-.15-1.156.536-.935.8-.85.329.6.151,1.156" transform="translate(-223.762 -73.91)" fill="#373b54"/>
      <path id="Trazado_877664" data-name="Trazado 877664" d="M540.389,177.557c-.179.554-.536.935-.8.85s-.329-.6-.15-1.156.536-.935.8-.85.329.6.151,1.156" transform="translate(-228.706 -74.797)" fill="#373b54"/>
      <path id="Trazado_877665" data-name="Trazado 877665" d="M530.11,185.45c.158.01,5.338.553,5.338.553s-3.524,6.434-5.18-.543" transform="translate(-224.791 -78.64)" fill="#fff"/>
      <path id="Trazado_877666" data-name="Trazado 877666" d="M533.576,205.07s1.151,4.2,7.534-1.22l4.752,1.08a5.609,5.609,0,0,1,3.263,2.132c4.909,6.629,21.937,30.888,12.442,36.385-11.024,6.383-35.008-7.737-35.008-7.737l3.329-25.055a7.084,7.084,0,0,1,2.306-4.352Z" transform="translate(-223.286 -86.442)" fill="#d64d8b"/>
      <path id="Trazado_877667" data-name="Trazado 877667" d="M549.953,185.335s1.664.362,1.859-.764a.815.815,0,0,0-.723-1.074s2.808-1.673,3.118,0-2.932,3.1-4.254,1.838" transform="translate(-233.206 -77.496)" fill="#fb8862"/>
      <path id="Trazado_877668" data-name="Trazado 877668" d="M571.735,398.328v.006c-.012-.006-.017-.006-.017-.017s.017.006.017.012" transform="translate(-242.435 -168.905)" fill="#373b54"/>
      <rect id="Rectángulo_403154" data-name="Rectángulo 403154" width="74.229" height="74.229" transform="matrix(0.256, -0.967, 0.967, 0.256, 277.232, 191.5)" fill="#fff"/>
      <rect id="Rectángulo_403155" data-name="Rectángulo 403155" width="53.602" height="53.603" transform="matrix(0.256, -0.967, 0.967, 0.256, 289.845, 184.174)" fill="#ebeeff"/>
      <path id="Trazado_877669" data-name="Trazado 877669" d="M559.372,301.069l-4.318,16.278L503.244,303.6l5.519-20.807c4.274-1.481,9.067-1.878,13.165.858,10.183,6.8,7.247,20.223,18.362,16.46,7.305-2.477,14.491-1.662,19.082.956" transform="translate(-213.399 -119.428)" fill="#55c0bf"/>
      <path id="Trazado_877670" data-name="Trazado 877670" d="M578.519,268.7a3.723,3.723,0,1,0,4.553-2.644,3.723,3.723,0,0,0-4.553,2.644" transform="translate(-245.266 -112.767)" fill="#f3c700"/>
      <path id="Trazado_877671" data-name="Trazado 877671" d="M568.174,264.457s-4.946,11.07-3.737,12.818,3.847-1.879,3.847-1.879.013-4.755-2.066,1.171c-1.284,3.66,7.078,12.219,11.372,4.659,3.9-6.865,2.813-10.318,2.813-10.318Z" transform="translate(-239.267 -112.142)" fill="#fbaf7b"/>
      <path id="Trazado_877672" data-name="Trazado 877672" d="M551.828,213.312s12.082,9.17,7.9,28.961a4.577,4.577,0,0,0,.479,3.894s8.272,2.472,13.605,6.106c1.576,1.074,2.812-.088,2.857-1.837.237-9.1-3.293-33.469-18.2-43.29Z" transform="translate(-234.001 -87.84)" fill="#d64d8b"/>
      <path id="Trazado_877673" data-name="Trazado 877673" d="M533.448,256.714a4.671,4.671,0,1,0,4.67-4.671,4.671,4.671,0,0,0-4.67,4.671" transform="translate(-226.207 -106.878)" fill="#f3c700"/>
      <path id="Trazado_877674" data-name="Trazado 877674" d="M527.5,173.083a3.55,3.55,0,1,1-3.551-3.55A3.551,3.551,0,0,1,527.5,173.083Z" transform="translate(-220.672 -71.89)" fill="none" stroke="#373b54" stroke-linecap="round" stroke-miterlimit="10" stroke-width="2"/>
      <path id="Trazado_877675" data-name="Trazado 877675" d="M543.3,175.481a3.626,3.626,0,1,1-3.627-3.627A3.627,3.627,0,0,1,543.3,175.481Z" transform="translate(-227.307 -72.874)" fill="none" stroke="#373b54" stroke-linecap="round" stroke-miterlimit="10" stroke-width="2"/>
      <path id="Trazado_877676" data-name="Trazado 877676" d="M476.082,153.1l.678-8.8-2.389-5.025a1.785,1.785,0,0,0-2.939-.428c-1.021,1.136-2,2.7-1.646,4.265.684,3.011,1.879,7.084,1.879,7.084l-6.019,6.963a18.721,18.721,0,0,0,10.435-4.054" transform="translate(-197.456 -58.626)" fill="#fbaf7b"/>
      <line id="Línea_730" data-name="Línea 730" x2="2.043" y2="0.449" transform="translate(306.824 101.193)" fill="none" stroke="#373b54" stroke-linecap="round" stroke-miterlimit="10" stroke-width="2"/>
      <rect id="Rectángulo_403156" data-name="Rectángulo 403156" width="59.072" height="59.072" transform="matrix(0.723, -0.691, 0.691, 0.723, 102.623, 70.641)" fill="#fff"/>
      <rect id="Rectángulo_403157" data-name="Rectángulo 403157" width="42.657" height="42.657" transform="translate(114.228 70.903) rotate(-43.701)" fill="#469e9d"/>
      <path id="Trazado_877677" data-name="Trazado 877677" d="M237.49,135.973l-9.689,9.259-29.472-30.839,12.385-11.835c3.517.769,6.936,2.489,8.583,6.048,4.093,8.841-3.475,16.739,5.634,18.8,5.988,1.351,10.529,4.888,12.559,8.57" transform="translate(-84.101 -43.489)" fill="#55c0bf"/>
      <path id="Trazado_877678" data-name="Trazado 877678" d="M273.82,119a3.953,3.953,0,1,0,5.588.127A3.953,3.953,0,0,0,273.82,119" transform="translate(-115.595 -49.999)" fill="#f3c700"/>
      <rect id="Rectángulo_403158" data-name="Rectángulo 403158" width="74.229" height="74.229" transform="matrix(0.654, -0.757, 0.757, 0.654, 200.559, 63.264)" fill="#fff"/>
      <rect id="Rectángulo_403159" data-name="Rectángulo 403159" width="53.603" height="53.602" transform="translate(215.107 62.205) rotate(-49.163)" fill="#469e9d"/>
      <path id="Trazado_877679" data-name="Trazado 877679" d="M425.046,118.323l-11.012,12.741L373.48,96.013l14.076-16.286c4.491.541,8.973,2.284,11.459,6.538,6.177,10.569,9.454,11.376,21.1,12.861,7.652.974,9.195,10.458,4.935,19.2" transform="translate(-158.373 -33.808)" fill="#55c0bf"/>
      <path id="Trazado_877680" data-name="Trazado 877680" d="M436.254,80.669a3.723,3.723,0,1,0,3.442-3.983,3.723,3.723,0,0,0-3.442,3.983" transform="translate(-184.988 -32.514)" fill="#f3c700"/>
      <path id="Trazado_877681" data-name="Trazado 877681" d="M255.069,14.621a13.054,13.054,0,0,0-3.453.465,20.371,20.371,0,0,0-40,4.021,10.941,10.941,0,1,0-2.3,21.637h45.357v-.01c.134,0,.267.01.4.01a13.062,13.062,0,1,0,0-26.124" transform="translate(-84.118)" fill="#ebeeff"/>
      <rect id="Rectángulo_403160" data-name="Rectángulo 403160" width="11.228" height="14.437" transform="translate(152.87 26.307)" fill="#d64d8b"/>
      <path id="Trazado_877682" data-name="Trazado 877682" d="M268.081,33.066l4.813,4.168,4.813,4.168H258.456l4.813-4.168Z" transform="translate(-109.597 -14.022)" fill="#d64d8b"/>
    </g>
  </g>
</svg>
