<svg xmlns="http://www.w3.org/2000/svg" width="100" height="100" viewBox="0 0 100 100">
  <g id="Grupo_1101726" data-name="Grupo 1101726" transform="translate(-200.051 -9146)">
    <rect id="Rectángulo_403171" data-name="Rectángulo 403171" width="100" height="100" transform="translate(200.051 9146)" fill="#fbd8d1"/>
    <g id="Page-1" transform="translate(220.051 9166)">
      <g id="_082---Image-Editing" data-name="082---Image-Editing">
        <path id="Shape" d="M44,57a2,2,0,0,1-2,2H18a2,2,0,0,1,0-4H42A2,2,0,0,1,44,57Z" fill="#9e9e9e"/>
        <path id="Shape-2" data-name="Shape" d="M43.41,55.59A2,2,0,0,0,42,55H39a2,2,0,0,1,0,4h3a1.994,1.994,0,0,0,1.41-3.41Z" fill="#707070"/>
        <path id="Shape-3" data-name="Shape" d="M59,10V44H1V10A2,2,0,0,1,3,8H57A2,2,0,0,1,59,10Z" fill="#00bcd4"/>
        <path id="Shape-4" data-name="Shape" d="M57,8H54a2,2,0,0,1,2,2V44h3V10A2,2,0,0,0,57,8Z" fill="#00838f"/>
        <path id="Shape-5" data-name="Shape" d="M59,44v3a2,2,0,0,1-2,2H3a2,2,0,0,1-2-2V44Z" fill="#9e9e9e"/>
        <path id="Shape-6" data-name="Shape" d="M56,44v3a2,2,0,0,1-2,2h3a2,2,0,0,0,2-2V44Z" fill="#707070"/>
        <path id="Shape-7" data-name="Shape" d="M41,55H19c3-2,3-6,3-6H38S38,53,41,55Z" fill="#707070"/>
        <path id="Shape-8" data-name="Shape" d="M51,31.33V38a2,2,0,0,1-2,2H11a2,2,0,0,1-2-2V35.33L22,18l6.65,8.47,3.17,4-2.65,3.94A1,1,0,0,0,30.26,36l5.68-1.51,11.34-8.08Z" fill="#ff9801"/>
        <path id="Shape-9" data-name="Shape" d="M25.65,26.47l3.17,4-2.65,3.94A1,1,0,0,0,27.26,36l1.87-.5a1,1,0,0,1,0-1l2.65-3.94-3.17-4L22,18l-1.47,2Z" fill="#f57c00"/>
        <path id="Shape-10" data-name="Shape" d="M47.28,26.37l-2,1.39L48,31.33V38a2,2,0,0,1-2,2h3a2,2,0,0,0,2-2V31.33Z" fill="#f57c00"/>
        <path id="Shape-11" data-name="Shape" d="M51,3V16.39a1.33,1.33,0,0,0-.35.19l-7,5L38,14,28.65,26.47,22,18,9,35.33V3a2,2,0,0,1,2-2H49A2,2,0,0,1,51,3Z" fill="#ffeb3a"/>
        <g id="Grupo_1101725" data-name="Grupo 1101725">
          <path id="Shape-12" data-name="Shape" d="M49,1H46a2,2,0,0,1,2,2V16.39a1.33,1.33,0,0,0-.35.19l-5,3.59,1.05,1.39,7-5a1.33,1.33,0,0,1,.35-.19V3A2,2,0,0,0,49,1Z" fill="#fdd834"/>
          <path id="Shape-13" data-name="Shape" d="M19,18,9,31.33v4L20.53,19.95Z" fill="#fdd834"/>
          <path id="Shape-14" data-name="Shape" d="M35,14,27.11,24.52l1.54,1.95L36.5,16Z" fill="#fdd834"/>
          <path id="Shape-15" data-name="Shape" d="M51,23.7v7.63l-3.72-5Z" fill="#fdd834"/>
        </g>
        <path id="Shape-16" data-name="Shape" d="M43.67,21.56l-11.21,8-.64.94-3.17-4.03L38,14Z" fill="#f57c00"/>
        <circle id="Oval" cx="4" cy="4" r="4" transform="translate(14 6)" fill="#f5f5f5"/>
        <path id="Shape-17" data-name="Shape" d="M48.97,25.16,35.94,34.45l-3.48-4.89,13.02-9.29Z" fill="#f44335"/>
        <path id="Shape-18" data-name="Shape" d="M35.94,34.45,30.26,36a1,1,0,0,1-1.09-1.52l2.65-3.94.64-.94Z" fill="#ffe0b2"/>
        <path id="Shape-19" data-name="Shape" d="M52.22,22.83l-3.25,2.33-3.49-4.89,3.26-2.32Z" fill="#9e9e9e"/>
        <path id="Shape-20" data-name="Shape" d="M54.14,21.47l-1.92,1.36L48.74,18l1.91-1.37a2,2,0,0,1,2.79.47l1.16,1.63A2,2,0,0,1,54.14,21.47Z" fill="#ef314c"/>
        <path id="Shape-21" data-name="Shape" d="M57,7H52V3a3,3,0,0,0-3-3H11A3,3,0,0,0,8,3V7H3a3,3,0,0,0-3,3V47a3,3,0,0,0,3,3H21a6.44,6.44,0,0,1-2.29,4.09H18a2.91,2.91,0,0,0,0,5.82H42a2.91,2.91,0,0,0,0-5.82h-.7A6.44,6.44,0,0,1,39,50H57a3,3,0,0,0,3-3V10A3,3,0,0,0,57,7ZM51.23,17.4a1,1,0,0,1,1.4.23l1.16,1.63a.944.944,0,0,1-.2,1.39l-1.09.79L50.68,19l-.55-.77Zm-2,6.36L46.88,20.5l1.62-1.16,2.33,3.26Zm.8,1.89v2.68l-1.31-1.75ZM32.48,31.32l1.81,2.53L30,35Zm-.69-2.48-1.88-2.39L38,15.67l4.26,5.67L31.88,28.75l-.09.09Zm2.06,1,11.4-8.13,2.32,3.25-11.4,8.13ZM10,3a1,1,0,0,1,1-1H49a1,1,0,0,1,1,1V15.82l-6.11,4.36L38.8,13.4a1,1,0,0,0-1.6,0L28.63,24.82l-5.84-7.44a1,1,0,0,0-1.58.02L10,32.33Zm0,32.66,12-16,8.57,10.91L28.32,33.9a2,2,0,0,0,2.18,3l5.68-1.52a.91.91,0,0,0,.32-.15l10.54-7.52L50,31.66V38a1,1,0,0,1-1,1H11a1,1,0,0,1-1-1ZM42,55.91a1.09,1.09,0,0,1,0,2.18H18a1.09,1.09,0,0,1,0-2.18ZM21.22,54.09A9,9,0,0,0,22.82,50H37.18a9,9,0,0,0,1.6,4.09ZM58,43H10a1,1,0,0,0,0,2H58v2a1,1,0,0,1-1,1H3a1,1,0,0,1-1-1V45H6a1,1,0,0,0,0-2H2V10A1,1,0,0,1,3,9H8V38a3,3,0,0,0,3,3H49a3,3,0,0,0,3-3V24.22l2.72-1.94a2.94,2.94,0,0,0,1.21-2,3,3,0,0,0-.51-2.23l-1.17-1.63A3,3,0,0,0,52,15.23V9h5a1,1,0,0,1,1,1Z"/>
        <path id="Shape-22" data-name="Shape" d="M23,10a5,5,0,1,0-5,5A5,5,0,0,0,23,10Zm-5,3a3,3,0,1,1,2.121-.879A3,3,0,0,1,18,13Z"/>
      </g>
    </g>
  </g>
</svg>
