<svg xmlns="http://www.w3.org/2000/svg" xmlns:xlink="http://www.w3.org/1999/xlink" width="295" height="378.42" viewBox="0 0 295 378.42">
  <defs>
    <clipPath id="clip-path">
      <rect id="Rectángulo_403176" data-name="Rectángulo 403176" width="280.949" height="202.295" fill="none"/>
    </clipPath>
  </defs>
  <g id="Grupo_1100318" data-name="Grupo 1100318" transform="translate(14197 8946.454)">
    <rect id="Rectángulo_401793" data-name="Rectángulo 401793" width="295" height="75.777" transform="translate(-14197 -8643.812)" fill="#14d6f0"/>
    <rect id="Rectángulo_402091" data-name="Rectángulo 402091" width="249" height="287.223" transform="translate(-14174 -8931.034)" fill="#a0eef9"/>
    <g id="Grupo_1099708" data-name="Grupo 1099708" transform="translate(6347.211 -385.873)">
      <path id="Trazado_874185" data-name="Trazado 874185" d="M59.931,65.431a1.944,1.944,0,1,1,1.945,1.945,1.945,1.945,0,0,1-1.945-1.945" transform="translate(-20327.066 -8487.973)" fill="#5b2ccf"/>
      <path id="Trazado_874186" data-name="Trazado 874186" d="M46.622,65.431a1.944,1.944,0,1,1,1.945,1.945,1.945,1.945,0,0,1-1.945-1.945" transform="translate(-20344.217 -8487.973)" fill="#5b2ccf"/>
      <path id="Trazado_874187" data-name="Trazado 874187" d="M33.313,65.431a1.944,1.944,0,1,1,1.943,1.945,1.945,1.945,0,0,1-1.943-1.945" transform="translate(-20361.367 -8487.973)" fill="#5b2ccf"/>
      <path id="Trazado_874188" data-name="Trazado 874188" d="M20,65.431a1.944,1.944,0,1,1,1.945,1.945A1.945,1.945,0,0,1,20,65.431" transform="translate(-20378.52 -8487.973)" fill="#5b2ccf"/>
      <path id="Trazado_874189" data-name="Trazado 874189" d="M6.694,65.431a1.944,1.944,0,1,1,1.945,1.945,1.945,1.945,0,0,1-1.945-1.945" transform="translate(-20395.67 -8487.973)" fill="#5b2ccf"/>
      <path id="Trazado_874190" data-name="Trazado 874190" d="M59.931,53.538a1.944,1.944,0,1,1,1.945,1.945,1.945,1.945,0,0,1-1.945-1.945" transform="translate(-20327.066 -8503.299)" fill="#5b2ccf"/>
      <path id="Trazado_874191" data-name="Trazado 874191" d="M46.622,53.538a1.944,1.944,0,1,1,1.945,1.945,1.945,1.945,0,0,1-1.945-1.945" transform="translate(-20344.217 -8503.299)" fill="#5b2ccf"/>
      <path id="Trazado_874192" data-name="Trazado 874192" d="M33.313,53.538a1.944,1.944,0,1,1,1.943,1.945,1.945,1.945,0,0,1-1.943-1.945" transform="translate(-20361.367 -8503.299)" fill="#5b2ccf"/>
      <path id="Trazado_874193" data-name="Trazado 874193" d="M20,53.538a1.944,1.944,0,1,1,1.945,1.945A1.945,1.945,0,0,1,20,53.538" transform="translate(-20378.52 -8503.299)" fill="#5b2ccf"/>
      <path id="Trazado_874194" data-name="Trazado 874194" d="M6.694,53.538a1.944,1.944,0,1,1,1.945,1.945,1.945,1.945,0,0,1-1.945-1.945" transform="translate(-20395.67 -8503.299)" fill="#5b2ccf"/>
      <path id="Trazado_874195" data-name="Trazado 874195" d="M59.931,41.644a1.944,1.944,0,1,1,1.945,1.945,1.943,1.943,0,0,1-1.945-1.945" transform="translate(-20327.066 -8518.623)" fill="#5b2ccf"/>
      <path id="Trazado_874196" data-name="Trazado 874196" d="M46.622,41.644a1.944,1.944,0,1,1,1.945,1.945,1.943,1.943,0,0,1-1.945-1.945" transform="translate(-20344.217 -8518.623)" fill="#5b2ccf"/>
      <path id="Trazado_874197" data-name="Trazado 874197" d="M33.313,41.644a1.944,1.944,0,1,1,1.943,1.945,1.943,1.943,0,0,1-1.943-1.945" transform="translate(-20361.367 -8518.623)" fill="#5b2ccf"/>
      <path id="Trazado_874198" data-name="Trazado 874198" d="M20,41.644a1.944,1.944,0,1,1,1.945,1.945A1.943,1.943,0,0,1,20,41.644" transform="translate(-20378.52 -8518.623)" fill="#5b2ccf"/>
      <path id="Trazado_874199" data-name="Trazado 874199" d="M6.694,41.644a1.944,1.944,0,1,1,1.945,1.945,1.943,1.943,0,0,1-1.945-1.945" transform="translate(-20395.67 -8518.623)" fill="#5b2ccf"/>
      <path id="Trazado_874200" data-name="Trazado 874200" d="M59.931,29.751A1.944,1.944,0,1,1,61.876,31.7a1.945,1.945,0,0,1-1.945-1.945" transform="translate(-20327.066 -8533.952)" fill="#5b2ccf"/>
      <path id="Trazado_874201" data-name="Trazado 874201" d="M46.622,29.751A1.944,1.944,0,1,1,48.567,31.7a1.945,1.945,0,0,1-1.945-1.945" transform="translate(-20344.217 -8533.952)" fill="#5b2ccf"/>
      <path id="Trazado_874202" data-name="Trazado 874202" d="M33.313,29.751A1.944,1.944,0,1,1,35.256,31.7a1.945,1.945,0,0,1-1.943-1.945" transform="translate(-20361.367 -8533.952)" fill="#5b2ccf"/>
      <path id="Trazado_874203" data-name="Trazado 874203" d="M20,29.751A1.944,1.944,0,1,1,21.948,31.7,1.945,1.945,0,0,1,20,29.751" transform="translate(-20378.52 -8533.952)" fill="#5b2ccf"/>
      <path id="Trazado_874204" data-name="Trazado 874204" d="M6.694,29.751A1.944,1.944,0,1,1,8.639,31.7a1.945,1.945,0,0,1-1.945-1.945" transform="translate(-20395.67 -8533.952)" fill="#5b2ccf"/>
      <path id="Trazado_874205" data-name="Trazado 874205" d="M59.931,17.858A1.944,1.944,0,1,1,61.876,19.8a1.945,1.945,0,0,1-1.945-1.945" transform="translate(-20327.066 -8549.278)" fill="#5b2ccf"/>
      <path id="Trazado_874206" data-name="Trazado 874206" d="M46.622,17.858A1.944,1.944,0,1,1,48.567,19.8a1.945,1.945,0,0,1-1.945-1.945" transform="translate(-20344.217 -8549.278)" fill="#5b2ccf"/>
      <path id="Trazado_874207" data-name="Trazado 874207" d="M33.313,17.858A1.944,1.944,0,1,1,35.256,19.8a1.945,1.945,0,0,1-1.943-1.945" transform="translate(-20361.367 -8549.278)" fill="#5b2ccf"/>
      <path id="Trazado_874208" data-name="Trazado 874208" d="M20,17.858A1.944,1.944,0,1,1,21.948,19.8,1.945,1.945,0,0,1,20,17.858" transform="translate(-20378.52 -8549.278)" fill="#5b2ccf"/>
      <path id="Trazado_874209" data-name="Trazado 874209" d="M6.694,17.858A1.944,1.944,0,1,1,8.639,19.8a1.945,1.945,0,0,1-1.945-1.945" transform="translate(-20395.67 -8549.278)" fill="#5b2ccf"/>
      <path id="Trazado_874210" data-name="Trazado 874210" d="M59.931,5.964a1.944,1.944,0,1,1,1.945,1.945,1.943,1.943,0,0,1-1.945-1.945" transform="translate(-20327.066 -8564.603)" fill="#5b2ccf"/>
      <path id="Trazado_874211" data-name="Trazado 874211" d="M46.622,5.964a1.944,1.944,0,1,1,1.945,1.945,1.943,1.943,0,0,1-1.945-1.945" transform="translate(-20344.217 -8564.603)" fill="#5b2ccf"/>
      <path id="Trazado_874212" data-name="Trazado 874212" d="M33.313,5.964a1.944,1.944,0,1,1,1.943,1.945,1.943,1.943,0,0,1-1.943-1.945" transform="translate(-20361.367 -8564.603)" fill="#5b2ccf"/>
      <path id="Trazado_874213" data-name="Trazado 874213" d="M20,5.964a1.944,1.944,0,1,1,1.945,1.945A1.943,1.943,0,0,1,20,5.964" transform="translate(-20378.52 -8564.603)" fill="#5b2ccf"/>
      <path id="Trazado_874214" data-name="Trazado 874214" d="M6.694,5.964A1.944,1.944,0,1,1,8.639,7.909,1.943,1.943,0,0,1,6.694,5.964" transform="translate(-20395.67 -8564.603)" fill="#5b2ccf"/>
    </g>
    <g id="Grupo_1101728" data-name="Grupo 1101728" transform="translate(-14197 -8782.106)">
      <g id="Grupo_1101727" data-name="Grupo 1101727" transform="translate(0 -44)" clip-path="url(#clip-path)">
        <path id="Trazado_877683" data-name="Trazado 877683" d="M24.773,70.691H11.92a7.759,7.759,0,0,1-7.735-7.737V53.428a7.759,7.759,0,0,1,7.735-7.737H24.773a7.758,7.758,0,0,1,7.735,7.737v9.526a7.758,7.758,0,0,1-7.735,7.737" transform="translate(5.754 62.821)" fill="#1a1a1a"/>
        <path id="Trazado_877684" data-name="Trazado 877684" d="M126.855,86.347H24.314A10.84,10.84,0,0,1,13.506,75.538V11A10.84,10.84,0,0,1,24.314.188H126.855A10.84,10.84,0,0,1,137.663,11V75.538a10.84,10.84,0,0,1-10.808,10.808" transform="translate(18.569 0.259)" fill="#fff"/>
        <path id="Trazado_877685" data-name="Trazado 877685" d="M165.781,115.644H86.711A10.84,10.84,0,0,1,75.9,104.836V45.414A10.84,10.84,0,0,1,86.711,34.606h79.07a10.84,10.84,0,0,1,10.808,10.808v59.422a10.84,10.84,0,0,1-10.808,10.808" transform="translate(104.358 47.58)" fill="#3552ff"/>
        <path id="Trazado_877686" data-name="Trazado 877686" d="M154.383,68.572s-.9-.392-8.476-4.322-11.4-5.051-14.2-5.334a21.73,21.73,0,0,0-9.039,1.461c-2.3.955-9.825,3.762-13.135,4.211s-7.241-.955-8.87-1.629-13.705-8.041-13.705-8.041-2.667,29.368-3.683,38.86h60.557a10.7,10.7,0,0,0,10.666-10.666V68.88c-.069-.192-.112-.309-.112-.309" transform="translate(114.49 75.504)" fill="#1a1a1a"/>
        <path id="Trazado_877687" data-name="Trazado 877687" d="M87.624,63.635s-9.5,1.857-16.163,4.909-12.649,6.588-12.649,6.588S65.112,59.279,66.319,56a50.228,50.228,0,0,1,3.61-7.215s-3.092-3.987-3.147-5.944c0,0-6.331-.8-10.609-3.84,0,0-3.094-1.3-3.657-2.548,0,0-6.327-4.7-5.887-8.87,0,0-4.436,7.032-9.7,21.106S28.579,68.458,31,83.909s15.722,19.6,18.5,20.26,7.728,2.05,12.748,1.1a50.8,50.8,0,0,0,9.682-3l-1.456,11.276-5.436,50.086h72.066l-2.8-28.185s2.907,7.319,7.576,10.1a16.189,16.189,0,0,0,16.049.235,17.129,17.129,0,0,0,8.526-12.76c.515-4.27.337-10.1-1.423-17.916s-7.324-31.664-7.324-31.664l-16.532-7.906S135.39,66.812,126.5,64.786l-8.9-2.023Z" transform="translate(41.47 37.919)" fill="#3552ff"/>
        <path id="Trazado_877688" data-name="Trazado 877688" d="M103.283,68.371s.577-5.408-1.978-9.39-4.505-6.132-5.158-7.3-.366-6.305-.819-8.265-1.069-4.952-4.55-4.372-4.439,5.139-3.89,8.105,2.667,9.925,2.548,10.884-5.666,4.443-8.623,5.548S72.2,66.694,70.732,68.965s-.964,5.251,1.876,5.529c0,0-3.657,1.912-2.912,4.61a3.015,3.015,0,0,0,3.261,2.358s-.622,3.966,3.42,4.47,11.741-2.278,14.4-3.71,7.329-3.869,9.35-6.818,3.242-6.4,3.156-7.032" transform="translate(95.688 53.587)" fill="#fff"/>
        <path id="Trazado_877689" data-name="Trazado 877689" d="M58.821,38.5s-6.1-1.161-6.272,4.168,5.272,5.291,6.885,4.194c0,0-.1,12.475,12.269,12.281s12.71-10.511,12.71-10.511V47.095s5.6,1.741,6.588-1.94.361-5.146-1.066-5.94-5.068-.551-5.068-.551V37.389a33.156,33.156,0,0,0-10.955-7.281c-6.719-2.693-10.127-3.08-10.127-3.08s-2.7,6.868-4.574,8.343Z" transform="translate(72.244 37.16)" fill="#fff"/>
        <path id="Trazado_877690" data-name="Trazado 877690" d="M60.668,38.517V42l-6.31,6.6,4.424,24.362,10.761-15.5,10.791,15.5,4.315-24.87L78.432,41.83l.043-3Z" transform="translate(74.736 52.958)" fill="#fff"/>
        <path id="Trazado_877691" data-name="Trazado 877691" d="M116.05,50.916a8.892,8.892,0,1,1-8.892-8.892,8.891,8.891,0,0,1,8.892,8.892" transform="translate(135.106 57.779)" fill="#fff"/>
        <path id="Trazado_877692" data-name="Trazado 877692" d="M132.738,106.737H19.515A10.84,10.84,0,0,1,8.707,95.929V75.944A10.84,10.84,0,0,1,19.515,65.136H132.738a10.84,10.84,0,0,1,10.808,10.808V95.929a10.84,10.84,0,0,1-10.808,10.808" transform="translate(11.971 89.556)" fill="#fff"/>
        <path id="Trazado_877693" data-name="Trazado 877693" d="M28.177,78.041a7.161,7.161,0,1,1-7.163-7.163,7.163,7.163,0,0,1,7.163,7.163" transform="translate(19.048 97.45)" fill="#1a1a1a"/>
        <path id="Trazado_877694" data-name="Trazado 877694" d="M125.348.187H25.821A12.351,12.351,0,0,0,13.507,12.5v8.3H137.664V12.5A12.353,12.353,0,0,0,125.348.187" transform="translate(18.571 0.258)" fill="#1a1a1a"/>
        <path id="Trazado_877695" data-name="Trazado 877695" d="M55.065,43.277a66.566,66.566,0,0,1-.952-7.5c.069-1.674,1.29-6.305,2.636-6.977a8.6,8.6,0,0,1,1.81-.76A12.242,12.242,0,0,1,68.79,23.052c7.158-.04,12.387,2.79,14.518,6.581S85,39.213,84.991,40.921a9.764,9.764,0,0,1-.4,2.862l-1.876.112-.145-1.043s-6.023-5.9-12.708-8.013a75.4,75.4,0,0,0-8.229-2.346s-2.128,6.236-4.574,8.341l-.1,3.061Z" transform="translate(74.395 31.695)" fill="#1a1a1a"/>
        <path id="Trazado_877696" data-name="Trazado 877696" d="M57.428,45.69s4.265,2.225,6.13,5.108,2.339,9.64-1.392,9.9-5.4-4.068-5.873-5.322-.634-2.788-3.534-3.769-9.367-1.9-10.542-3.831-3.121-3.08-3.03-9.345c0,0-2.014-6.491.974-9.243s6.4-2.665,12.5-2.5,10.492-2.874,13.287-4.059,7.165-3.5,9.59-2.206.674,4.669.674,4.669a5.039,5.039,0,0,1,2.819,2.52c.66,1.769-1.824,5.175-1.824,5.175s1.434.382,1.812,2.783-3.111,4.607-6.187,5.443a108.249,108.249,0,0,1-12.257,1.924c-1.6.126-4.156,1.2-3.151,2.745" transform="translate(52.964 27.564)" fill="#fff"/>
        <path id="Trazado_877697" data-name="Trazado 877697" d="M17.459,48.158a1.478,1.478,0,0,0-2.786,0L8.788,58.237c-.765,1.311-.15,2.382,1.37,2.382H21.981c1.518,0,2.135-1.071,1.368-2.382Z" transform="translate(11.631 64.861)" fill="#3552ff"/>
        <path id="Trazado_877698" data-name="Trazado 877698" d="M66.871,7.142A4.376,4.376,0,1,1,62.5,2.767a4.374,4.374,0,0,1,4.375,4.375" transform="translate(79.908 3.805)" fill="#3552ff"/>
        <path id="Trazado_877699" data-name="Trazado 877699" d="M78.6,10.389a4.515,4.515,0,1,1-4.515-4.515A4.514,4.514,0,0,1,78.6,10.389" transform="translate(95.647 8.077)" fill="#3552ff"/>
        <path id="Trazado_877700" data-name="Trazado 877700" d="M121.561,26.88a4.515,4.515,0,1,1-4.515-4.515,4.514,4.514,0,0,1,4.515,4.515" transform="translate(154.719 30.75)" fill="#3552ff"/>
        <path id="Trazado_877701" data-name="Trazado 877701" d="M60.632,7.142a4.376,4.376,0,1,1-4.375-4.375,4.374,4.374,0,0,1,4.375,4.375" transform="translate(71.331 3.805)" fill="#ccc"/>
        <path id="Trazado_877702" data-name="Trazado 877702" d="M54.409,7.142a4.376,4.376,0,1,1-4.375-4.375,4.374,4.374,0,0,1,4.375,4.375" transform="translate(62.775 3.805)" fill="#fff"/>
        <path id="Trazado_877703" data-name="Trazado 877703" d="M40.238,26.373s-2.745.5-3.128,2.864,3.847,7.547,4.933,8.094h.762s-2.13-4.8-1.432-7.41Z" transform="translate(50.989 36.261)" fill="#1a1a1a"/>
        <path id="Trazado_877704" data-name="Trazado 877704" d="M42.235,32.867a15.274,15.274,0,0,1,4.709.836,17.829,17.829,0,0,1,2.738,1.356,12.716,12.716,0,0,1-7.448-2.192" transform="translate(58.068 45.189)" fill="#1a1a1a"/>
        <path id="Trazado_877705" data-name="Trazado 877705" d="M48.486,29.8s-2.289.734-2.078,2.014a58.856,58.856,0,0,1,4.759,3.51c.758.8,1.306,1.344,1.306,1.344s.066-3.676-3.987-6.868" transform="translate(63.787 40.967)" fill="#1a1a1a"/>
        <path id="Trazado_877706" data-name="Trazado 877706" d="M100.171,18.641a4.6,4.6,0,1,1-4.6-4.6,4.6,4.6,0,0,1,4.6,4.6" transform="translate(125.075 19.306)" fill="#1a1a1a"/>
        <path id="Trazado_877707" data-name="Trazado 877707" d="M78.657,43.78l1.876-.112a9.8,9.8,0,0,0,.4-2.859c0-1.71.442-7.5-1.686-11.29-1.793-3.189-5.788-5.693-11.274-6.384,3.7,1.6,7.633,4.106,6.825,7.336-1.18,4.717-17.74,1.572-17.74,1.572l.423.6.093-.261A75.4,75.4,0,0,1,65.8,34.724c6.688,2.114,12.708,8.013,12.708,8.013Z" transform="translate(78.451 31.809)" fill="#fff"/>
        <path id="Trazado_877708" data-name="Trazado 877708" d="M152.62,69.5a.41.41,0,0,1-.2-.05l-15.47-7.9a20.323,20.323,0,0,0-13.793-1.014l-11.6,3.933a19.468,19.468,0,0,1-14.273-1.5L84.853,55.553a.444.444,0,1,1,.456-.762L97.739,62.2a18.5,18.5,0,0,0,13.534,1.425l11.6-3.933a21.362,21.362,0,0,1,14.482,1.064l15.47,7.9a.445.445,0,0,1-.2.841" transform="translate(116.364 75.245)"/>
        <path id="Trazado_877709" data-name="Trazado 877709" d="M106.254,61.565a9.336,9.336,0,1,1,9.331-9.336,9.349,9.349,0,0,1-9.331,9.336m0-17.783A8.447,8.447,0,1,0,114.7,52.23a8.461,8.461,0,0,0-8.443-8.447" transform="translate(133.246 58.975)"/>
        <path id="Trazado_877710" data-name="Trazado 877710" d="M80.731,71.741a.441.441,0,0,1-.363-.19L69.94,56.58,59.545,71.551a.426.426,0,0,1-.456.18.444.444,0,0,1-.347-.351L54.078,47.021a.442.442,0,0,1,.119-.4l6.552-6.6a.441.441,0,0,1,.373-.128.449.449,0,0,1,.328.218l8.488,14.791,8.55-14.957a.439.439,0,0,1,.328-.221.428.428,0,0,1,.375.128l6.172,6.26a.442.442,0,0,1,.121.387L81.171,71.373a.439.439,0,0,1-.439.368M54.992,47.082l4.424,23.093,10-14.394L60.97,41.067Zm15.472,8.7L80.479,70.157l4.09-23.578-5.6-5.681Z" transform="translate(74.339 54.618)"/>
        <path id="Trazado_877711" data-name="Trazado 877711" d="M63.164,40.271a9.331,9.331,0,0,1-1.943-.2.444.444,0,1,1,.2-.864c.028.007,2.89.653,4.679-.589a3.465,3.465,0,0,0,1.4-2.536.436.436,0,0,1,.5-.385.445.445,0,0,1,.385.5,4.313,4.313,0,0,1-1.779,3.156,6.076,6.076,0,0,1-3.446.924" transform="translate(83.703 49.071)"/>
        <path id="Trazado_877712" data-name="Trazado 877712" d="M59.068,106.753A36.161,36.161,0,0,1,48.975,105.2C37.832,102.041,31.087,92.487,29.98,78.3c-.788-10.108,2.952-20.018,6.716-28.375,1.434-3.189,2.479-5.809,3.491-8.343a94.821,94.821,0,0,1,6.8-14.38.448.448,0,0,1,.608-.157.443.443,0,0,1,.159.608,93.852,93.852,0,0,0-6.742,14.259C40,44.45,38.948,47.079,37.5,50.285c-3.717,8.257-7.412,18.035-6.638,27.941,1.076,13.793,7.593,23.07,18.353,26.117,5.949,1.689,12.836,2.719,22.88-1.09a.445.445,0,1,1,.316.831,37.183,37.183,0,0,1-13.347,2.669" transform="translate(41.074 37.097)"/>
        <path id="Trazado_877713" data-name="Trazado 877713" d="M41.894,69.813a.457.457,0,0,1-.439-.508A57.394,57.394,0,0,1,45.96,54.749c.185-.418.332-.753.427-.988l3.729-9.293A71.484,71.484,0,0,1,53.6,37.341l.42-.784a.444.444,0,0,1,.784.416l-.42.786A70.438,70.438,0,0,0,50.942,44.8l-3.731,9.293c-.1.242-.247.587-.437,1.016a55.653,55.653,0,0,0-4.441,14.325.446.446,0,0,1-.439.38" transform="translate(56.989 49.937)"/>
        <path id="Trazado_877714" data-name="Trazado 877714" d="M1.978,19.784A1.936,1.936,0,1,0,.042,17.849a1.936,1.936,0,0,0,1.936,1.936" transform="translate(0.058 21.88)" fill="#1a1a1a"/>
        <path id="Trazado_877715" data-name="Trazado 877715" d="M8.37,19.943a2.036,2.036,0,1,0-2.035-2.035A2.036,2.036,0,0,0,8.37,19.943" transform="translate(8.71 21.82)" fill="#1a1a1a"/>
        <path id="Trazado_877716" data-name="Trazado 877716" d="M14.619,19.705a1.886,1.886,0,1,0-1.886-1.886,1.886,1.886,0,0,0,1.886,1.886" transform="translate(17.506 21.908)" fill="#1a1a1a"/>
        <path id="Trazado_877717" data-name="Trazado 877717" d="M2.035,26.278A2.036,2.036,0,1,0,0,24.243a2.036,2.036,0,0,0,2.035,2.035" transform="translate(0 30.53)" fill="#1a1a1a"/>
        <path id="Trazado_877718" data-name="Trazado 877718" d="M8.428,26.435A2.136,2.136,0,1,0,6.293,24.3a2.135,2.135,0,0,0,2.135,2.135" transform="translate(8.652 30.473)" fill="#1a1a1a"/>
        <path id="Trazado_877719" data-name="Trazado 877719" d="M14.676,26.2a1.985,1.985,0,1,0-1.985-1.985A1.985,1.985,0,0,0,14.676,26.2" transform="translate(17.449 30.561)" fill="#1a1a1a"/>
        <path id="Trazado_877720" data-name="Trazado 877720" d="M1.949,32.375A1.886,1.886,0,1,0,.063,30.49a1.884,1.884,0,0,0,1.886,1.886" transform="translate(0.087 39.328)" fill="#1a1a1a"/>
        <path id="Trazado_877721" data-name="Trazado 877721" d="M8.341,32.533a1.985,1.985,0,1,0-1.985-1.985,1.985,1.985,0,0,0,1.985,1.985" transform="translate(8.739 39.27)" fill="#1a1a1a"/>
        <path id="Trazado_877722" data-name="Trazado 877722" d="M14.6,32.323a1.852,1.852,0,1,0-1.852-1.852A1.852,1.852,0,0,0,14.6,32.323" transform="translate(17.526 39.347)" fill="#1a1a1a"/>
        <path id="Trazado_877723" data-name="Trazado 877723" d="M242.877,85.7H14.458a.444.444,0,1,1,0-.888H242.877a.444.444,0,0,1,0,.888" transform="translate(19.268 116.601)"/>
        <path id="Trazado_877724" data-name="Trazado 877724" d="M58.407,31.886c.356-.057.594.1.7,1.375.112,1.425-.256,1.677-.577,1.662s-.639-.451-.625-1.47.04-1.494.506-1.567" transform="translate(79.607 43.827)"/>
        <path id="Trazado_877725" data-name="Trazado 877725" d="M57.4,41.686c-.107,0-.211,0-.318-.009a5.076,5.076,0,1,1,.636-10.131,5.128,5.128,0,0,1,1.563.349.445.445,0,0,1-.328.826,4.188,4.188,0,1,0-1.814,8.07,4.321,4.321,0,0,0,2.19-.463.444.444,0,0,1,.408.788,5.07,5.07,0,0,1-2.337.57" transform="translate(71.945 43.355)"/>
        <path id="Trazado_877726" data-name="Trazado 877726" d="M54.482,38.238a.444.444,0,0,1-.271-.8l2.66-2.054-2.98-2.2a.446.446,0,0,1-.093-.622.442.442,0,0,1,.622-.093l3.453,2.553a.448.448,0,0,1,.007.71l-3.128,2.413a.445.445,0,0,1-.271.093" transform="translate(73.847 44.521)"/>
        <path id="Trazado_877727" data-name="Trazado 877727" d="M68.548,41.685a5.07,5.07,0,0,1-2.337-.57.446.446,0,0,1-.19-.6.452.452,0,0,1,.6-.19,4.187,4.187,0,1,0,.29-7.571.445.445,0,0,1-.347-.819,5.08,5.08,0,0,1,7.049,4.356,5.08,5.08,0,0,1-4.747,5.384c-.107.007-.211.009-.318.009" transform="translate(90.705 43.356)"/>
        <path id="Trazado_877728" data-name="Trazado 877728" d="M69.552,38.236a.445.445,0,0,1-.271-.093l-3.125-2.413a.445.445,0,0,1,.007-.71l3.451-2.553a.445.445,0,0,1,.53.715l-2.98,2.2,2.66,2.054a.444.444,0,0,1-.271.8" transform="translate(90.719 44.522)"/>
        <path id="Trazado_877729" data-name="Trazado 877729" d="M89.49,116.638c-5.6,0-11.644-2.781-15.629-12.551a.441.441,0,0,1,.242-.579.448.448,0,0,1,.579.242c4.116,10.086,10.889,13.85,20.137,11.2,15.56-4.465,11.281-24.21,9.872-30.7-2.054-9.478-7.621-32.959-7.676-33.2a.444.444,0,0,1,.33-.534.45.45,0,0,1,.534.33c.055.235,5.621,23.725,7.68,33.213,1.451,6.688,5.866,27.043-10.5,31.738a20.251,20.251,0,0,1-5.574.836" transform="translate(101.503 69.447)"/>
        <path id="Trazado_877730" data-name="Trazado 877730" d="M69.371,54.964H67.593a12.189,12.189,0,0,1-7.975-2.646c-1.957-1.677-3.251-4.37-3.957-8.231-.468-2.546-.57-10.621-.53-13.261a.444.444,0,0,1,.888.014,115.435,115.435,0,0,0,.515,13.088c.667,3.655,1.864,6.177,3.66,7.716a11.332,11.332,0,0,0,7.4,2.432h1.779a11.328,11.328,0,0,0,7.4-2.432c1.8-1.539,2.992-4.061,3.662-7.716a85.25,85.25,0,0,0,.446-11.157.441.441,0,0,1,.437-.451.414.414,0,0,1,.451.437,86.184,86.184,0,0,1-.461,11.331c-.708,3.862-2,6.555-3.957,8.231a12.2,12.2,0,0,1-7.977,2.646" transform="translate(75.789 41.782)"/>
        <path id="Trazado_877731" data-name="Trazado 877731" d="M57.272,41.517a.444.444,0,0,1-.444-.449l.014-1.439a.444.444,0,0,1,.888.01l-.014,1.439a.442.442,0,0,1-.444.439" transform="translate(78.132 53.883)"/>
        <path id="Trazado_877732" data-name="Trazado 877732" d="M64.752,41.35a.447.447,0,0,1-.444-.461l.045-1.271a.414.414,0,0,1,.461-.427.444.444,0,0,1,.427.461L65.2,40.923a.442.442,0,0,1-.444.427" transform="translate(88.416 53.882)"/>
        <path id="Trazado_877733" data-name="Trazado 877733" d="M83.493,44.342a.457.457,0,0,1-.439-.513,25.209,25.209,0,0,0-1-13.181c-2.194-6.239-11.357-7.6-17.168-6.59a11.4,11.4,0,0,0-6.863,4.358.455.455,0,0,1-.275.188,4.6,4.6,0,0,0-2.118,1.033.444.444,0,1,1-.587-.667,5.433,5.433,0,0,1,2.349-1.2,12.15,12.15,0,0,1,7.343-4.588c6.111-1.073,15.791.439,18.158,7.17a26.045,26.045,0,0,1,1.038,13.613.446.446,0,0,1-.439.375" transform="translate(75.472 31.444)"/>
        <path id="Trazado_877734" data-name="Trazado 877734" d="M55.4,36.884a.443.443,0,0,1-.427-.325,31.73,31.73,0,0,1-1.052-7.83.444.444,0,1,1,.888.007,31.515,31.515,0,0,0,1.019,7.585.443.443,0,0,1-.309.546.4.4,0,0,1-.119.017" transform="translate(74.139 38.892)"/>
        <path id="Trazado_877735" data-name="Trazado 877735" d="M45.107,90.173a.452.452,0,0,1-.442-.489L45.5,81.73a.42.42,0,0,1,.489-.394.443.443,0,0,1,.394.487l-.831,7.953a.443.443,0,0,1-.442.4" transform="translate(61.407 111.822)"/>
        <path id="Trazado_877736" data-name="Trazado 877736" d="M47.4,77.532a.455.455,0,0,1-.442-.5l2.912-22.55a.445.445,0,0,1,.883.114l-2.912,22.55a.447.447,0,0,1-.442.387" transform="translate(64.553 74.373)"/>
        <path id="Trazado_877737" data-name="Trazado 877737" d="M79.341,121.241a.448.448,0,0,1-.444-.4c-3.028-32.111-5.322-51.224-6.714-61.6a.445.445,0,0,1,.881-.119c1.392,10.388,3.688,29.513,6.719,61.638a.445.445,0,0,1-.4.487h-.043" transform="translate(99.238 80.753)"/>
        <path id="Trazado_877738" data-name="Trazado 877738" d="M57.078,33.118a.427.427,0,0,1-.152-.026.446.446,0,0,1-.266-.57c.8-2.192,3.838-2.826,5.645-2.422a.446.446,0,0,1,.335.532.433.433,0,0,1-.53.335c-1.484-.328-4.023.226-4.614,1.86a.444.444,0,0,1-.418.292" transform="translate(77.865 41.227)"/>
        <path id="Trazado_877739" data-name="Trazado 877739" d="M67.573,33.118a.444.444,0,0,1-.418-.292c-.594-1.634-3.132-2.187-4.614-1.86a.44.44,0,0,1-.53-.335.446.446,0,0,1,.335-.532c1.81-.406,4.85.23,5.645,2.422a.446.446,0,0,1-.266.57.427.427,0,0,1-.152.026" transform="translate(85.243 41.226)"/>
        <path id="Trazado_877740" data-name="Trazado 877740" d="M57.816,27.965a.442.442,0,0,1-.363-.188l-1.43-2.021a.444.444,0,1,1,.724-.513l1.432,2.021a.444.444,0,0,1-.363.7" transform="translate(76.912 34.451)"/>
        <path id="Trazado_877741" data-name="Trazado 877741" d="M91.072,55.654a.452.452,0,0,1-.342-.159c-8.215-9.818-16.819-11.7-23.4-12.247a.445.445,0,0,1-.406-.48.436.436,0,0,1,.48-.406c6.752.56,15.582,2.494,24.008,12.563a.444.444,0,0,1-.057.625.436.436,0,0,1-.285.1" transform="translate(92.015 58.241)"/>
        <path id="Trazado_877742" data-name="Trazado 877742" d="M22.237,61.3H10.415a2.091,2.091,0,0,1-1.926-.924,2.086,2.086,0,0,1,.176-2.13l5.883-10.077a1.938,1.938,0,0,1,3.553,0l5.89,10.077A1.884,1.884,0,0,1,22.237,61.3M16.324,47.853a1.279,1.279,0,0,0-1.009.762L9.432,58.694a1.278,1.278,0,0,0-.173,1.237,1.279,1.279,0,0,0,1.157.48H22.237a1.023,1.023,0,0,0,.986-1.717l-5.89-10.079a1.279,1.279,0,0,0-1.009-.762" transform="translate(11.372 64.627)"/>
        <path id="Trazado_877743" data-name="Trazado 877743" d="M74.333,61.661a6.536,6.536,0,0,1-3.273-.712A3.171,3.171,0,0,1,69.512,58.9c-.727-2.978,2.976-5.021,3.132-5.108a.446.446,0,0,1,.425.784c-.033.017-3.258,1.8-2.7,4.113a2.3,2.3,0,0,0,1.133,1.489c1.47.855,4.163.793,7.583-.176,4.712-1.337,13.29-5.621,13.375-5.666a.453.453,0,0,1,.6.2.448.448,0,0,1-.2.6c-.354.178-8.74,4.365-13.532,5.726a18.71,18.71,0,0,1-5,.8" transform="translate(95.441 73.894)"/>
        <path id="Trazado_877744" data-name="Trazado 877744" d="M77.647,86.616a5.492,5.492,0,0,1-3.493-.9c-2.572-2.164-1.235-4.23-1.221-4.249a.445.445,0,0,1,.741.492c-.05.076-.879,1.453,1.052,3.078,2.04,1.717,10.022.116,16.75-3.353a29.169,29.169,0,0,0,8.9-6.833,12.143,12.143,0,0,0,2.4-10.051,19.573,19.573,0,0,0-4.446-9.549c-.214-.254-.435-.5-.651-.736-1.095-1.216-2.128-2.363-2.273-4.18-.062-.779-.088-1.646-.112-2.544-.1-3.451-.2-7.365-2.57-7.946a3.773,3.773,0,0,0-3.8.9c-1.724,1.755-2.026,5.346-.824,9.846.416,1.548.869,3.087,1.325,4.624l.506,1.717a2.272,2.272,0,0,1,.066,1.5,2.227,2.227,0,0,1-.7.855,31.542,31.542,0,0,1-9.979,5.633c-4.975,1.724-7.908,3.607-8.718,5.6a3.061,3.061,0,0,0,.157,2.643,2.1,2.1,0,0,0,1.347.957c3,.945,10.533-.451,18.583-4.883a.445.445,0,1,1,.43.779c-7.376,4.059-15.484,6.141-19.279,4.954a2.94,2.94,0,0,1-1.876-1.411,3.95,3.95,0,0,1-.185-3.375c.926-2.268,3.952-4.261,9.25-6.1a30.729,30.729,0,0,0,9.7-5.476,1.493,1.493,0,0,0,.449-.5,1.556,1.556,0,0,0-.093-.929l-.5-1.71c-.458-1.546-.917-3.092-1.332-4.65-1.285-4.812-.9-8.711,1.047-10.7a4.689,4.689,0,0,1,4.65-1.138c3.021.746,3.14,5.018,3.244,8.787.024.881.048,1.734.109,2.494.121,1.518,1.014,2.51,2.047,3.657.223.245.446.494.67.755a20.508,20.508,0,0,1,4.645,9.982,13.015,13.015,0,0,1-2.608,10.773,30.057,30.057,0,0,1-9.169,7.046c-4.629,2.387-10.385,4.139-14.237,4.139" transform="translate(95.534 53.351)"/>
        <path id="Trazado_877745" data-name="Trazado 877745" d="M64.03,37.167H49.686a.444.444,0,1,1,0-.888H64.03a.444.444,0,0,1,0,.888" transform="translate(67.702 49.88)"/>
        <path id="Trazado_877746" data-name="Trazado 877746" d="M137.92,54.66a.442.442,0,0,1-.444-.444V12.76A11.885,11.885,0,0,0,125.6.888H26.079A11.885,11.885,0,0,0,14.207,12.76V32.078a.444.444,0,0,1-.888,0V12.76A12.774,12.774,0,0,1,26.079,0H125.6a12.774,12.774,0,0,1,12.76,12.76V54.216a.442.442,0,0,1-.444.444" transform="translate(18.312 0.001)"/>
        <path id="Trazado_877747" data-name="Trazado 877747" d="M48.045,44.3H26.079a12.775,12.775,0,0,1-12.76-12.76.444.444,0,1,1,.888,0A11.885,11.885,0,0,0,26.079,43.409H48.045a.444.444,0,1,1,0,.888" transform="translate(18.312 42.75)"/>
        <path id="Trazado_877748" data-name="Trazado 877748" d="M137.806,99.7H88.1a.444.444,0,0,1,0-.888h49.709a10.234,10.234,0,0,0,10.221-10.222V51.372a.444.444,0,0,1,.888,0V88.594a11.122,11.122,0,0,1-11.11,11.11" transform="translate(120.513 70.021)"/>
        <path id="Trazado_877749" data-name="Trazado 877749" d="M172,52.512a.442.442,0,0,1-.444-.444V48.135a10.232,10.232,0,0,0-10.221-10.219H81.648A10.232,10.232,0,0,0,71.426,48.135V51.8a.444.444,0,0,1-.888,0v-3.66a11.122,11.122,0,0,1,11.11-11.107h79.689a11.122,11.122,0,0,1,11.11,11.107v3.933a.442.442,0,0,1-.444.444" transform="translate(96.982 50.91)"/>
        <path id="Trazado_877750" data-name="Trazado 877750" d="M131.892,106.479H18.385a11.124,11.124,0,0,1-11.11-11.11V74.924a11.124,11.124,0,0,1,11.11-11.11H53.55a.444.444,0,0,1,0,.888H18.385A10.234,10.234,0,0,0,8.163,74.924V95.369a10.234,10.234,0,0,0,10.222,10.222H131.892a10.234,10.234,0,0,0,10.222-10.222V74.924A10.234,10.234,0,0,0,131.892,64.7H86.3a.444.444,0,0,1,0-.888h45.591A11.122,11.122,0,0,1,143,74.924V95.369a11.122,11.122,0,0,1-11.11,11.11" transform="translate(10.002 87.738)"/>
        <path id="Trazado_877751" data-name="Trazado 877751" d="M39.45,38.94a.444.444,0,0,1-.418-.294c-.1-.283-2.42-6.97,2.007-10.438,2.46-1.926,5.448-1.838,8.616-1.757a25.378,25.378,0,0,0,8.338-.755,64.154,64.154,0,0,0,7.051-2.8c4.84-2.147,9.022-4,11.359-2.4a3.244,3.244,0,0,1,.978,3.783c-1.2,4.1-7.129,8.661-17.33,8.982a.444.444,0,1,1-.026-.888c11.231-.354,15.705-5.612,16.5-8.343a2.383,2.383,0,0,0-.625-2.8c-1.924-1.313-6.089.53-10.5,2.482a64.245,64.245,0,0,1-7.153,2.845,26.044,26.044,0,0,1-8.618.793c-3.13-.083-5.835-.161-8.044,1.57-3.921,3.071-1.741,9.376-1.719,9.438a.442.442,0,0,1-.271.568.393.393,0,0,1-.147.026" transform="translate(52.707 27.341)"/>
        <path id="Trazado_877752" data-name="Trazado 877752" d="M50.768,34.235q-1.443,0-2.94-.114a.444.444,0,0,1-.411-.475.421.421,0,0,1,.477-.411c8.994.684,16.878-1.957,18.356-6.141A3.217,3.217,0,0,0,66.2,24.2a3.406,3.406,0,0,0-2.389-1.214.451.451,0,0,1-.42-.47.459.459,0,0,1,.47-.418,4.291,4.291,0,0,1,3.08,1.608,4.032,4.032,0,0,1,.143,3.681c-1.461,4.139-8.108,6.844-16.318,6.844" transform="translate(65.191 30.389)"/>
        <path id="Trazado_877753" data-name="Trazado 877753" d="M43.342,35.181a.444.444,0,0,1-.024-.888c7.861-.418,8.82-8.094,8.83-8.172a.459.459,0,0,1,.492-.392.448.448,0,0,1,.392.492c-.01.085-1.062,8.5-9.666,8.96Z" transform="translate(58.98 35.375)"/>
        <path id="Trazado_877754" data-name="Trazado 877754" d="M61.26,54.141a3.229,3.229,0,0,1-1.04-.173c-2.653-.893-4.325-5.042-4.921-6.785-.484-1.418-2.541-2.192-3.771-2.655A27.168,27.168,0,0,0,47.721,43.5c-.772-.171-1.544-.34-2.311-.549a8.228,8.228,0,0,1-5.438-4.484,14.775,14.775,0,0,1-1.337-7.341.463.463,0,0,1,.47-.418.446.446,0,0,1,.418.47,13.854,13.854,0,0,0,1.247,6.9,7.277,7.277,0,0,0,4.876,4.018c.75.2,1.51.37,2.266.537a28.054,28.054,0,0,1,3.93,1.066c1.375.518,3.679,1.385,4.3,3.2.432,1.261,2.023,5.443,4.363,6.229a2.632,2.632,0,0,0,2.408-.444,4.2,4.2,0,0,0,1.784-3.375,9.995,9.995,0,0,0-3.446-7.5,23.935,23.935,0,0,0-3.838-2.658,1.482,1.482,0,0,1-.822-.857,1.313,1.313,0,0,1,.083-.81,2.868,2.868,0,0,1,1.879-1.712,7.46,7.46,0,0,1,1.824-.249,54.143,54.143,0,0,0,8.982-1.18,21.624,21.624,0,0,0,6.949-2.577,4.55,4.55,0,0,0,2.028-2.185,2.9,2.9,0,0,0-1.736-3.5.443.443,0,0,1-.24-.579.451.451,0,0,1,.582-.242,3.75,3.75,0,0,1,2.247,4.579,5.333,5.333,0,0,1-2.4,2.676,22.377,22.377,0,0,1-7.234,2.7,54.562,54.562,0,0,1-9.048,1.2,6.935,6.935,0,0,0-1.691.216A1.97,1.97,0,0,0,57.5,37.808a.474.474,0,0,0-.052.261c.028.109.278.242.385.3a25.167,25.167,0,0,1,3.987,2.76,10.959,10.959,0,0,1,3.762,8.224,5.014,5.014,0,0,1-2.175,4.066,3.825,3.825,0,0,1-2.147.722" transform="translate(53.079 34.686)"/>
        <path id="Trazado_877755" data-name="Trazado 877755" d="M26.547,70.622H13.694A8.193,8.193,0,0,1,5.513,62.44V52.914a8.191,8.191,0,0,1,8.181-8.181H26.547a8.189,8.189,0,0,1,8.179,8.181V62.44a8.19,8.19,0,0,1-8.179,8.181m-12.853-25A7.3,7.3,0,0,0,6.4,52.914V62.44a7.3,7.3,0,0,0,7.293,7.293H26.547a7.3,7.3,0,0,0,7.291-7.293V52.914a7.3,7.3,0,0,0-7.291-7.293Z" transform="translate(7.58 61.504)"/>
        <path id="Trazado_877756" data-name="Trazado 877756" d="M105.326,32.167H92.416A3.774,3.774,0,0,1,88.645,28.4V15.485a3.774,3.774,0,0,1,3.771-3.771h12.91a3.774,3.774,0,0,1,3.771,3.771V28.4a3.774,3.774,0,0,1-3.771,3.771M92.416,12.6a2.888,2.888,0,0,0-2.883,2.883V28.4a2.888,2.888,0,0,0,2.883,2.883h12.91a2.888,2.888,0,0,0,2.883-2.883V15.485a2.888,2.888,0,0,0-2.883-2.883Z" transform="translate(121.877 16.106)"/>
        <path id="Trazado_877757" data-name="Trazado 877757" d="M118.15,21.889a.444.444,0,0,1-.42-.3c-2.389-6.866-6.45-11.611-12.074-14.1C97.8,4,87.079,5.082,73.8,10.708a.443.443,0,1,1-.344-.817c13.513-5.726,24.466-6.809,32.562-3.218,5.776,2.563,10.115,7.621,12.554,14.625a.447.447,0,0,1-.273.568.455.455,0,0,1-.147.024" transform="translate(100.618 6.328)"/>
        <path id="Trazado_877758" data-name="Trazado 877758" d="M74.339,15.606A4.959,4.959,0,1,1,79.3,10.647a4.965,4.965,0,0,1-4.959,4.959m0-9.029a4.071,4.071,0,1,0,4.071,4.071,4.075,4.075,0,0,0-4.071-4.071" transform="translate(95.39 7.821)"/>
        <path id="Trazado_877759" data-name="Trazado 877759" d="M95.822,23.844a4.959,4.959,0,1,1,4.959-4.959,4.964,4.964,0,0,1-4.959,4.959m0-9.029a4.071,4.071,0,1,0,4.071,4.071,4.075,4.075,0,0,0-4.071-4.071" transform="translate(124.926 19.148)"/>
        <path id="Trazado_877760" data-name="Trazado 877760" d="M116.775,37.463a25.866,25.866,0,0,1-10.6-2.076C100.4,32.82,96.052,27.754,93.617,20.736a.444.444,0,0,1,.273-.565.451.451,0,0,1,.568.273c2.384,6.875,6.448,11.63,12.076,14.131,7.859,3.491,18.579,2.411,31.864-3.218a.445.445,0,0,1,.347.819c-8.317,3.522-15.662,5.287-21.97,5.287" transform="translate(128.679 27.703)"/>
        <path id="Trazado_877761" data-name="Trazado 877761" d="M117.3,32.1a4.959,4.959,0,1,1,4.959-4.959A4.965,4.965,0,0,1,117.3,32.1m0-9.029a4.071,4.071,0,1,0,4.071,4.071,4.075,4.075,0,0,0-4.071-4.071" transform="translate(154.462 30.493)"/>
        <path id="Trazado_877762" data-name="Trazado 877762" d="M90.627,71.129H25.36a.444.444,0,0,1,0-.888H90.627a.444.444,0,0,1,0,.888" transform="translate(34.257 96.574)"/>
        <path id="Trazado_877763" data-name="Trazado 877763" d="M90.627,75.762H25.36a.444.444,0,0,1,0-.888H90.627a.444.444,0,0,1,0,.888" transform="translate(34.257 102.944)"/>
        <path id="Trazado_877764" data-name="Trazado 877764" d="M19.949,84.805a7.606,7.606,0,1,1,7.607-7.6,7.614,7.614,0,0,1-7.607,7.6m0-14.323A6.717,6.717,0,1,0,26.667,77.2a6.727,6.727,0,0,0-6.719-6.719" transform="translate(16.969 95.685)"/>
        <path id="Trazado_877765" data-name="Trazado 877765" d="M127.182,9.568H16.6a.444.444,0,0,1,0-.888H127.182a.444.444,0,1,1,0,.888" transform="translate(22.215 11.935)"/>
        <path id="Trazado_877766" data-name="Trazado 877766" d="M62.738,12.22A4.82,4.82,0,1,1,67.557,7.4a4.828,4.828,0,0,1-4.819,4.821m0-8.751a3.932,3.932,0,1,0,3.93,3.93,3.937,3.937,0,0,0-3.93-3.93" transform="translate(79.629 3.548)"/>
        <path id="Trazado_877767" data-name="Trazado 877767" d="M60.632,7.142a4.376,4.376,0,1,1-4.375-4.375,4.374,4.374,0,0,1,4.375,4.375" transform="translate(71.331 3.805)" fill="#fff"/>
        <path id="Trazado_877768" data-name="Trazado 877768" d="M56.514,12.22A4.82,4.82,0,1,1,61.332,7.4a4.826,4.826,0,0,1-4.819,4.821m0-8.751a3.932,3.932,0,1,0,3.93,3.93,3.935,3.935,0,0,0-3.93-3.93" transform="translate(71.075 3.548)"/>
        <path id="Trazado_877769" data-name="Trazado 877769" d="M50.292,12.22A4.82,4.82,0,1,1,55.111,7.4a4.828,4.828,0,0,1-4.819,4.821m0-8.751a3.932,3.932,0,1,0,3.93,3.93,3.937,3.937,0,0,0-3.93-3.93" transform="translate(62.518 3.548)"/>
        <path id="Trazado_877770" data-name="Trazado 877770" d="M42.519,54.675a.444.444,0,0,1-.237-.819c.133-.083,13.34-8.331,28.639-11.274a.444.444,0,0,1,.169.872c-15.138,2.914-28.2,11.069-28.332,11.152a.437.437,0,0,1-.237.069" transform="translate(57.849 58.535)"/>
        <path id="Trazado_877771" data-name="Trazado 877771" d="M106.142,92.012h-4.629a.445.445,0,0,1,0-.891h4.629a.445.445,0,0,1,0,.891m-9.255,0H92.258a.445.445,0,0,1,0-.891h4.629a.445.445,0,0,1,0,.891m-9.257,0H83a.445.445,0,0,1,0-.891h4.626a.445.445,0,0,1,0,.891m-9.255,0H73.748a.445.445,0,0,1,0-.891h4.626a.445.445,0,0,1,0,.891m-9.255,0H64.493a.445.445,0,0,1,0-.891H69.12a.445.445,0,0,1,0,.891m-9.255,0H55.238a.445.445,0,0,1,0-.891h4.626a.445.445,0,0,1,0,.891m-9.255,0H45.981a.445.445,0,0,1,0-.891H50.61a.445.445,0,0,1,0,.891m-7.79-1.468a.443.443,0,0,1-.444-.444V85.471a.444.444,0,1,1,.888,0V90.1a.442.442,0,0,1-.444.444m0-9.255a.445.445,0,0,1-.444-.444V76.219a.444.444,0,1,1,.888,0v4.626a.443.443,0,0,1-.444.444m0-9.255a.445.445,0,0,1-.444-.444V66.961a.444.444,0,1,1,.888,0V71.59a.443.443,0,0,1-.444.444m0-9.257a.443.443,0,0,1-.444-.444V57.706a.444.444,0,1,1,.888,0v4.626a.442.442,0,0,1-.444.444M128.2,55.168a.443.443,0,0,1-.444-.444V50.1a.444.444,0,1,1,.888,0v4.626a.442.442,0,0,1-.444.444M42.82,53.522a.443.443,0,0,1-.444-.444V48.451a.444.444,0,0,1,.888,0v4.626a.442.442,0,0,1-.444.444M128.2,45.913a.445.445,0,0,1-.444-.444V40.842a.444.444,0,1,1,.888,0v4.626a.443.443,0,0,1-.444.444M42.82,44.267a.443.443,0,0,1-.444-.444V39.2a.444.444,0,0,1,.888,0v4.626a.442.442,0,0,1-.444.444M128.2,36.658a.445.445,0,0,1-.444-.444V31.585a.444.444,0,1,1,.888,0v4.629a.443.443,0,0,1-.444.444M42.82,35.012a.443.443,0,0,1-.444-.444V29.942a.444.444,0,0,1,.888,0v4.626a.442.442,0,0,1-.444.444M128.2,27.4a.445.445,0,0,1-.444-.444V25.308H125.67a.444.444,0,1,1,0-.888H128.2a.443.443,0,0,1,.444.444v2.095a.443.443,0,0,1-.444.444M42.82,25.757a.445.445,0,0,1-.444-.444v-.449a.445.445,0,0,1,.444-.444H47a.444.444,0,0,1,0,.888l-3.736,0a.443.443,0,0,1-.444.444m78.222-.449h-4.629a.444.444,0,0,1,0-.888h4.629a.444.444,0,1,1,0,.888m-9.255,0h-4.629a.444.444,0,0,1,0-.888h4.629a.444.444,0,1,1,0,.888m-9.255,0H97.9a.444.444,0,1,1,0-.888h4.629a.444.444,0,1,1,0,.888m-9.257,0H88.648a.444.444,0,1,1,0-.888h4.626a.444.444,0,1,1,0,.888m-9.255,0H79.393a.444.444,0,1,1,0-.888H84.02a.444.444,0,1,1,0,.888m-9.255,0H70.138a.444.444,0,0,1,0-.888h4.626a.444.444,0,1,1,0,.888m-9.255,0H60.883a.444.444,0,0,1,0-.888H65.51a.444.444,0,0,1,0,.888m-9.255,0H51.626a.444.444,0,1,1,0-.888h4.629a.444.444,0,0,1,0,.888" transform="translate(58.262 33.576)"/>
        <path id="Trazado_877772" data-name="Trazado 877772" d="M81.316,38.087a.45.45,0,0,1-.3-.119A40.865,40.865,0,0,0,60.536,27.776c-.473,1.33-2.251,6.02-4.662,8.265a.445.445,0,1,1-.606-.653c2.6-2.42,4.524-8.184,4.543-8.243a.448.448,0,0,1,.473-.3A41.487,41.487,0,0,1,81.62,37.318a.444.444,0,0,1-.3.769" transform="translate(75.792 36.903)"/>
        <path id="Trazado_877773" data-name="Trazado 877773" d="M63.025,43.3a5.26,5.26,0,0,1-3.833-1.755,1.394,1.394,0,0,1-.3-1.356,10.594,10.594,0,0,1,.91-1.712,16.213,16.213,0,0,0,2.676-7.54.42.42,0,0,1,.482-.4.446.446,0,0,1,.4.482,17.161,17.161,0,0,1-2.8,7.92,10.181,10.181,0,0,0-.834,1.553c-.059.171.083.4.176.522A4.4,4.4,0,0,0,63.227,42.4a.417.417,0,0,1,.473.413.444.444,0,0,1-.416.473c-.085.007-.171.009-.259.009" transform="translate(80.874 41.976)"/>
        <path id="Trazado_877774" data-name="Trazado 877774" d="M60.991,81.294a.443.443,0,0,1-.444-.444v-32.5a.444.444,0,0,1,.888,0v32.5a.443.443,0,0,1-.444.444" transform="translate(83.245 65.862)"/>
        <path id="Trazado_877775" data-name="Trazado 877775" d="M43.609,39.125a.429.429,0,0,1-.266-.09c-5.07-3.814-7.438-8.01-6.035-10.692a4.12,4.12,0,0,1,3.408-2.173.44.44,0,0,1,.508.37.449.449,0,0,1-.373.508,3.284,3.284,0,0,0-2.757,1.708c-1.171,2.24,1.152,6.084,5.78,9.571a.441.441,0,0,1,.088.62.431.431,0,0,1-.354.178" transform="translate(50.746 35.972)"/>
        <path id="Trazado_877776" data-name="Trazado 877776" d="M51.5,36.759A28.351,28.351,0,0,1,42.085,33.5c-.214-.109-.425-.223-.634-.34a.444.444,0,1,1,.427-.779c.2.114.411.226.617.332a27.568,27.568,0,0,0,9.067,3.161.445.445,0,0,1-.059.886" transform="translate(56.672 44.444)"/>
        <path id="Trazado_877777" data-name="Trazado 877777" d="M51.289,37.362a.455.455,0,0,1-.442-.494c.2-1.779-1.092-4.085-3.634-6.491a.443.443,0,1,1,.61-.644c2.748,2.6,4.135,5.17,3.907,7.232a.446.446,0,0,1-.442.4" transform="translate(64.722 40.713)"/>
        <path id="Trazado_877778" data-name="Trazado 877778" d="M62.886,40.312a.446.446,0,0,1-.435-.347c-.1-.427-.879-4.185,1.176-4.7a1.74,1.74,0,0,1,1.734.366,3.608,3.608,0,0,1,.518,3.189.445.445,0,0,1-.867-.2,2.844,2.844,0,0,0-.273-2.351c-.071-.074-.3-.294-.9-.14-.959.242-.767,2.563-.522,3.648a.448.448,0,0,1-.337.532.466.466,0,0,1-.1.009" transform="translate(85.554 48.375)"/>
        <path id="Trazado_877779" data-name="Trazado 877779" d="M27.652,53.643a.442.442,0,0,1-.444-.444V11.441a.444.444,0,0,1,.888,0V53.2a.442.442,0,0,1-.444.444" transform="translate(37.408 15.121)"/>
        <path id="Trazado_877780" data-name="Trazado 877780" d="M66.3,35.625c-.107-.012-3.619-.879-3.619-.879a.444.444,0,0,1-.33-.349.449.449,0,0,1,.183-.446l3.14-2.183a.444.444,0,1,1,.508.729L63.846,34.12l2.558.629a.445.445,0,0,1-.107.876" transform="translate(85.711 43.571)"/>
      </g>
    </g>
  </g>
</svg>
