<svg xmlns="http://www.w3.org/2000/svg" width="60" height="60" viewBox="0 0 60 60">
  <g id="Grupo_1101795" data-name="Grupo 1101795" transform="translate(7950 -6497)">
    <rect id="Rectángulo_402785" data-name="Rectángulo 402785" width="60" height="60" transform="translate(-7950 6497)" fill="#5b2ccf"/>
    <g id="Grupo_1101641" data-name="Grupo 1101641" transform="translate(-7944.245 6503.209)">
      <path id="Trazado_877573" data-name="Trazado 877573" d="M55.6,38.329a.623.623,0,0,1-.538-.935A18.955,18.955,0,0,0,44.243,9.816a.623.623,0,0,1,.368-1.191,20.2,20.2,0,0,1,11.53,29.393A.623.623,0,0,1,55.6,38.329Z" transform="translate(-15.319 -2.484)" fill="#fff"/>
      <path id="Trazado_877574" data-name="Trazado 877574" d="M47.322,65.751a.623.623,0,0,1-.241-1.2,19.051,19.051,0,0,0,6.829-4.893.624.624,0,1,1,.935.828,20.316,20.316,0,0,1-7.28,5.215A.623.623,0,0,1,47.322,65.751Z" transform="translate(-16.409 -21.645)" fill="#fff"/>
      <path id="Trazado_877575" data-name="Trazado 877575" d="M29.261,70.654a.625.625,0,0,1-.095-.007c-.609-.093-1.237-.221-1.866-.379a.623.623,0,1,1,.305-1.209c.59.149,1.178.269,1.749.356a.623.623,0,0,1-.094,1.239Z" transform="translate(-8.923 -25.258)" fill="#fff"/>
      <path id="Trazado_877576" data-name="Trazado 877576" d="M15.75,63.053a.623.623,0,0,1-.292-.073,20.192,20.192,0,0,1-8-7.692.625.625,0,1,1,1.059-.662,18.945,18.945,0,0,0,7.522,7.253.623.623,0,0,1-.293,1.173Z" transform="translate(-1.583 -19.708)" fill="#fff"/>
      <path id="Trazado_877577" data-name="Trazado 877577" d="M37.341,71.037a.623.623,0,1,1-.036-1.246,17.113,17.113,0,0,0,1.786-.205.623.623,0,1,1,.2,1.23,18.378,18.378,0,0,1-1.915.219Z" transform="translate(-12.642 -25.461)" fill="#fff"/>
      <path id="Trazado_877578" data-name="Trazado 877578" d="M4.359,32.8a.623.623,0,0,1-.6-.472A20.2,20.2,0,0,1,23.338,7.21a.623.623,0,1,1,0,1.246A18.957,18.957,0,0,0,4.964,32.023a.623.623,0,0,1-.453.756.639.639,0,0,1-.152.019Z" transform="translate(0 -1.961)" fill="#fff"/>
      <path id="Trazado_877579" data-name="Trazado 877579" d="M29.958,9.741a.623.623,0,0,1-.441-1.064l2.8-2.8-2.8-2.8a.623.623,0,1,1,.881-.881l3.246,3.242a.623.623,0,0,1,0,.881L30.4,9.557a.619.619,0,0,1-.441.184Z" transform="translate(-9.867)" fill="#fff"/>
      <path id="Trazado_877580" data-name="Trazado 877580" d="M6.073,59.985a.607.607,0,0,1-.162-.022A.623.623,0,0,1,5.47,59.2l1.188-4.435a.623.623,0,0,1,.763-.441l4.435,1.188a.623.623,0,1,1-.322,1.2L7.7,55.689,6.674,59.522a.623.623,0,0,1-.6.462Z" transform="translate(-0.867 -19.706)" fill="#fff"/>
      <path id="Trazado_877581" data-name="Trazado 877581" d="M61.638,52.865a.623.623,0,0,1-.6-.462l-1.188-4.435a.623.623,0,1,1,1.2-.322l1.026,3.833,3.834-1.028a.623.623,0,1,1,.322,1.2L61.8,52.844a.617.617,0,0,1-.161.021Z" transform="translate(-21.356 -17.023)" fill="#fff"/>
      <path id="Trazado_877582" data-name="Trazado 877582" d="M38.9,42.1H20.288A1.289,1.289,0,0,1,19,40.817V29.678a1.289,1.289,0,0,1,1.288-1.288h4.1l.859-1.47a1.29,1.29,0,0,1,1.122-.651h6.458a1.29,1.29,0,0,1,1.122.651l.821,1.449,4.134.021a1.289,1.289,0,0,1,1.288,1.288V40.817A1.289,1.289,0,0,1,38.9,42.1ZM20.288,29.636l-.041,11.181,18.655.041.041-11.18a.042.042,0,0,0-.041-.042H34.8a1.29,1.29,0,0,1-1.122-.651l-.821-1.45-6.5-.021-.859,1.47a1.29,1.29,0,0,1-1.122.651Z" transform="translate(-5.973 -9.143)" fill="#fff"/>
      <path id="Trazado_877583" data-name="Trazado 877583" d="M33.789,41.812a3.656,3.656,0,1,1,3.656-3.656,3.656,3.656,0,0,1-3.656,3.656Zm0-6.066a2.41,2.41,0,1,0,2.409,2.41,2.41,2.41,0,0,0-2.409-2.41Z" transform="translate(-10.167 -12.244)" fill="#fff"/>
    </g>
  </g>
</svg>
