<svg xmlns="http://www.w3.org/2000/svg" width="85" height="85" viewBox="0 0 85 85">
  <g id="Grupo_1101836" data-name="Grupo 1101836" transform="translate(-600.051 -12506)">
    <rect id="Rectángulo_403209" data-name="Rectángulo 403209" width="85" height="85" transform="translate(600.051 12506)" fill="#fbd8d1"/>
    <g id="Grupo_1101837" data-name="Grupo 1101837" transform="translate(611.05 12517)">
      <path id="Trazado_878866" data-name="Trazado 878866" d="M35.531,30.271a5,5,0,0,0-9.062,0l-.957,2.051a4.99,4.99,0,0,0-7.984,1.313L9.553,49.585a3,3,0,0,0,2.683,4.342H41.86a3,3,0,0,0,2.718-4.269Zm-23.3,21.656a1,1,0,0,1-.894-1.448l7.975-15.95a3,3,0,0,1,5.366,0l8.7,17.4H12.236ZM42.7,51.464a.983.983,0,0,1-.843.463H35.618L26.8,34.291l1.481-3.174a3,3,0,0,1,5.437,0l9.047,19.388A.978.978,0,0,1,42.7,51.464Z" fill="#5b2ccf"/>
      <path id="Trazado_878867" data-name="Trazado 878867" d="M20,27.927a4,4,0,1,0-4-4A4,4,0,0,0,20,27.927Zm0-6a2,2,0,1,1-2,2A2,2,0,0,1,20,21.927Z" fill="#5b2ccf"/>
      <path id="Trazado_878868" data-name="Trazado 878868" d="M62.172,2.684l-.929-.929a6.005,6.005,0,0,0-8.485,0L44.586,9.927H5a5.006,5.006,0,0,0-5,5v44a5.006,5.006,0,0,0,5,5H49a5.006,5.006,0,0,0,5-5V19.341l8.172-8.172a6.008,6.008,0,0,0,0-8.485ZM52,58.927a3,3,0,0,1-3,3H5a3,3,0,0,1-3-3v-44a3,3,0,0,1,3-3H42.585L36.362,18.15a.912.912,0,0,0-.1.07.983.983,0,0,0-.258.888v7.819a1,1,0,0,0,1,1h8a1,1,0,0,0,.707-.293L52,21.341ZM38,21.376l4.551,4.551H38ZM60.758,9.755l-8.464,8.464,0,0-7.309,7.309L38.4,18.945l7.309-7.309,0,0,8.464-8.464a4.006,4.006,0,0,1,5.657,0l.929.929a4,4,0,0,1,0,5.657Z" fill="#5b2ccf"/>
      <path id="Trazado_878869" data-name="Trazado 878869" d="M57.258,5.22l-14,14a1,1,0,1,0,1.414,1.414l14-14A1,1,0,0,0,57.258,5.22Z" fill="#5b2ccf"/>
    </g>
  </g>
</svg>
